<svg width="13" height="16" viewBox="0 0 13 16" fill="none" xmlns="http://www.w3.org/2000/svg">
<path fill-rule="evenodd" clip-rule="evenodd" d="M6.5 0C9.12325 0 11.25 2.12675 11.25 4.75V7H12C12.2652 7 12.5196 7.10535 12.7071 7.2929C12.8946 7.48043 13 7.73478 13 8V15C13 15.2652 12.8946 15.5196 12.7071 15.7071C12.5196 15.8946 12.2652 16 12 16H1C0.734782 16 0.48043 15.8946 0.292892 15.7071C0.105357 15.5196 0 15.2652 0 15V8C0 7.73478 0.105357 7.48043 0.292892 7.2929C0.48043 7.10535 0.734782 7 1 7H1.75V4.75C1.75 2.12675 3.87675 0 6.5 0ZM6.5 2C5.00525 2 3.78925 3.1925 3.751 4.678L3.75 4.75V7H9.25V4.75C9.25 3.23125 8.01875 2 6.5 2Z" fill="#71767A"/>
</svg>
