<svg width="18" height="18" viewBox="0 0 18 18" fill="none" xmlns="http://www.w3.org/2000/svg">
<path fill-rule="evenodd" clip-rule="evenodd" d="M17.4937 0L11.7563 0.00597656C11.4767 0.00597656 11.25 0.232632 11.25 0.512227V1.68328C11.25 1.81933 11.3047 1.94967 11.4019 2.04491C11.499 2.14015 11.6304 2.19227 11.7664 2.18953L14.355 2.09391L14.4274 2.16633L4.62375 11.9704C4.54432 12.0495 4.49967 12.157 4.49967 12.2692C4.49967 12.3813 4.54432 12.4888 4.62375 12.568L5.43234 13.3766C5.5115 13.456 5.61903 13.5007 5.73117 13.5007C5.84331 13.5007 5.95084 13.456 6.03 13.3766L15.8337 3.57258L15.9061 3.645L15.8105 6.23355C15.8077 6.36958 15.8599 6.50098 15.9551 6.59814C16.0503 6.69529 16.1807 6.75003 16.3167 6.75H17.4878C17.7674 6.75 17.994 6.52334 17.994 6.24375L18 0.50625C18 0.226656 17.7733 0 17.4937 0ZM15.1875 10.125H14.625C14.3143 10.125 14.0625 10.3768 14.0625 10.6875V16.1016C14.0625 16.2181 13.9681 16.3125 13.8516 16.3125H1.89844C1.78194 16.3125 1.6875 16.2181 1.6875 16.1016V4.14844C1.6875 4.03194 1.78194 3.9375 1.89844 3.9375H7.3125C7.62316 3.9375 7.875 3.68566 7.875 3.375V2.8125C7.875 2.50184 7.62316 2.25 7.3125 2.25H1.6875C0.755519 2.25 0 3.00552 0 3.9375V16.3125C0 17.2445 0.755519 18 1.6875 18H14.0625C14.9945 18 15.75 17.2445 15.75 16.3125V10.6875C15.75 10.3768 15.4982 10.125 15.1875 10.125Z" fill="#0071BC"/>
</svg>
