<svg width="238" height="45" viewBox="0 0 238 45" fill="none" xmlns="http://www.w3.org/2000/svg">
<path d="M12.18 5.98H12.1L11.02 8.2L8.16 13.48L5.3 8.2L4.22 5.98H4.14V16H1.64V2.04H4.62L8.2 8.86H8.28L11.82 2.04H14.68V16H12.18V5.98ZM19.1681 2.04H24.2481C25.1548 2.04 25.9748 2.18667 26.7081 2.48C27.4548 2.77333 28.0881 3.21333 28.6081 3.8C29.1415 4.37333 29.5481 5.1 29.8281 5.98C30.1215 6.84667 30.2681 7.86 30.2681 9.02C30.2681 10.18 30.1215 11.2 29.8281 12.08C29.5481 12.9467 29.1415 13.6733 28.6081 14.26C28.0881 14.8333 27.4548 15.2667 26.7081 15.56C25.9748 15.8533 25.1548 16 24.2481 16H19.1681V2.04ZM24.2481 13.66C25.2348 13.66 26.0148 13.3733 26.5881 12.8C27.1748 12.2133 27.4681 11.32 27.4681 10.12V7.92C27.4681 6.72 27.1748 5.83333 26.5881 5.26C26.0148 4.67333 25.2348 4.38 24.2481 4.38H21.8081V13.66H24.2481ZM39.5772 16.24C38.6572 16.24 37.8239 16.0933 37.0772 15.8C36.3439 15.4933 35.7105 15.04 35.1772 14.44C34.6572 13.84 34.2572 13.1 33.9772 12.22C33.6972 11.3267 33.5572 10.2933 33.5572 9.12C33.5572 7.94667 33.6972 6.90667 33.9772 6C34.2572 5.08 34.6572 4.31333 35.1772 3.7C35.7105 3.07333 36.3439 2.6 37.0772 2.28C37.8239 1.96 38.6572 1.8 39.5772 1.8C40.8305 1.8 41.8705 2.06667 42.6972 2.6C43.5239 3.13333 44.1839 3.94 44.6772 5.02L42.4172 6.22C42.2172 5.59333 41.8905 5.09333 41.4372 4.72C40.9839 4.33333 40.3639 4.14 39.5772 4.14C38.5905 4.14 37.8039 4.47333 37.2172 5.14C36.6439 5.80667 36.3572 6.74 36.3572 7.94V10.14C36.3572 11.3533 36.6439 12.2867 37.2172 12.94C37.8039 13.58 38.5905 13.9 39.5772 13.9C40.3639 13.9 41.0039 13.6867 41.4972 13.26C42.0039 12.8333 42.3705 12.3067 42.5972 11.68L44.7372 12.94C44.2305 13.98 43.5572 14.7933 42.7172 15.38C41.8772 15.9533 40.8305 16.24 39.5772 16.24ZM53.6692 4.38V16H51.0292V4.38H47.0692V2.04H57.6292V4.38H53.6692ZM10.1 28.1H4.28V34H1.64V20.04H4.28V25.76H10.1V20.04H12.74V34H10.1V28.1ZM23.435 34.24C22.515 34.24 21.6817 34.0933 20.935 33.8C20.2017 33.4933 19.5683 33.04 19.035 32.44C18.515 31.84 18.115 31.1 17.835 30.22C17.555 29.3267 17.415 28.2933 17.415 27.12C17.415 25.9467 17.555 24.9067 17.835 24C18.115 23.08 18.515 22.3133 19.035 21.7C19.5683 21.0733 20.2017 20.6 20.935 20.28C21.6817 19.96 22.515 19.8 23.435 19.8C24.6883 19.8 25.7283 20.0667 26.555 20.6C27.3817 21.1333 28.0417 21.94 28.535 23.02L26.275 24.22C26.075 23.5933 25.7483 23.0933 25.295 22.72C24.8417 22.3333 24.2217 22.14 23.435 22.14C22.4483 22.14 21.6617 22.4733 21.075 23.14C20.5017 23.8067 20.215 24.74 20.215 25.94V28.14C20.215 29.3533 20.5017 30.2867 21.075 30.94C21.6617 31.58 22.4483 31.9 23.435 31.9C24.2217 31.9 24.8617 31.6867 25.355 31.26C25.8617 30.8333 26.2283 30.3067 26.455 29.68L28.595 30.94C28.0883 31.98 27.415 32.7933 26.575 33.38C25.735 33.9533 24.6883 34.24 23.435 34.24ZM32.847 20.04H39.307C39.8804 20.04 40.3937 20.1267 40.847 20.3C41.3137 20.4733 41.707 20.7133 42.027 21.02C42.347 21.3267 42.587 21.7067 42.747 22.16C42.9204 22.6 43.007 23.0867 43.007 23.62C43.007 24.1533 42.9337 24.6067 42.787 24.98C42.6537 25.34 42.467 25.64 42.227 25.88C42.0004 26.12 41.7337 26.3 41.427 26.42C41.1337 26.54 40.827 26.6067 40.507 26.62V26.74C40.8137 26.74 41.1404 26.8 41.487 26.92C41.847 27.04 42.1737 27.2333 42.467 27.5C42.7737 27.7533 43.027 28.0867 43.227 28.5C43.427 28.9 43.527 29.4 43.527 30C43.527 30.56 43.4337 31.0867 43.247 31.58C43.0737 32.06 42.827 32.48 42.507 32.84C42.187 33.2 41.807 33.4867 41.367 33.7C40.927 33.9 40.447 34 39.927 34H32.847V20.04ZM35.487 31.76H39.167C39.6737 31.76 40.067 31.6333 40.347 31.38C40.627 31.1133 40.767 30.7333 40.767 30.24V29.56C40.767 29.0667 40.627 28.6867 40.347 28.42C40.067 28.1533 39.6737 28.02 39.167 28.02H35.487V31.76ZM35.487 25.86H38.747C39.227 25.86 39.6004 25.7333 39.867 25.48C40.1337 25.2133 40.267 24.8467 40.267 24.38V23.76C40.267 23.2933 40.1337 22.9333 39.867 22.68C39.6004 22.4133 39.227 22.28 38.747 22.28H35.487V25.86ZM52.4488 34.24C51.2488 34.24 50.2288 34.0267 49.3888 33.6C48.5621 33.1733 47.8488 32.6133 47.2488 31.92L49.0288 30.2C49.5088 30.76 50.0421 31.1867 50.6288 31.48C51.2288 31.7733 51.8888 31.92 52.6088 31.92C53.4221 31.92 54.0354 31.7467 54.4488 31.4C54.8621 31.04 55.0688 30.56 55.0688 29.96C55.0688 29.4933 54.9354 29.1133 54.6688 28.82C54.4021 28.5267 53.9021 28.3133 53.1688 28.18L51.8488 27.98C49.0621 27.54 47.6688 26.1867 47.6688 23.92C47.6688 23.2933 47.7821 22.7267 48.0088 22.22C48.2488 21.7133 48.5888 21.28 49.0288 20.92C49.4688 20.56 49.9954 20.2867 50.6088 20.1C51.2354 19.9 51.9421 19.8 52.7288 19.8C53.7821 19.8 54.7021 19.9733 55.4888 20.32C56.2754 20.6667 56.9488 21.18 57.5088 21.86L55.7088 23.56C55.3621 23.1333 54.9421 22.7867 54.4488 22.52C53.9554 22.2533 53.3354 22.12 52.5888 22.12C51.8288 22.12 51.2554 22.2667 50.8688 22.56C50.4954 22.84 50.3088 23.24 50.3088 23.76C50.3088 24.2933 50.4621 24.6867 50.7688 24.94C51.0754 25.1933 51.5688 25.38 52.2488 25.5L53.5488 25.74C54.9621 25.9933 56.0021 26.4467 56.6688 27.1C57.3488 27.74 57.6888 28.64 57.6888 29.8C57.6888 30.4667 57.5688 31.0733 57.3288 31.62C57.1021 32.1533 56.7621 32.62 56.3088 33.02C55.8688 33.4067 55.3221 33.7067 54.6688 33.92C54.0288 34.1333 53.2888 34.24 52.4488 34.24Z" fill="white"/>
<path d="M89.5078 15H87.6406V9.84375H82.375V15H80.5V3.57812H82.375V8.25H87.6406V3.57812H89.5078V15ZM100.16 10.6562C100.16 11.375 100.066 12.013 99.8787 12.5703C99.6912 13.1276 99.4178 13.599 99.0584 13.9844C98.6991 14.3646 98.2668 14.6562 97.7616 14.8594C97.2564 15.0573 96.686 15.1562 96.0506 15.1562C95.4569 15.1562 94.9126 15.0573 94.4178 14.8594C93.923 14.6562 93.4933 14.3646 93.1287 13.9844C92.7694 13.599 92.4907 13.1276 92.2928 12.5703C92.0949 12.013 91.9959 11.375 91.9959 10.6562C91.9959 9.70312 92.16 8.89583 92.4881 8.23438C92.8215 7.56771 93.2954 7.0599 93.91 6.71094C94.5246 6.36198 95.2564 6.1875 96.1053 6.1875C96.9022 6.1875 97.6053 6.36198 98.2147 6.71094C98.8241 7.0599 99.3006 7.56771 99.6444 8.23438C99.9881 8.90104 100.16 9.70833 100.16 10.6562ZM93.8866 10.6562C93.8866 11.2865 93.9621 11.8255 94.1131 12.2734C94.2694 12.7214 94.509 13.0651 94.8319 13.3047C95.1548 13.5391 95.5715 13.6562 96.0819 13.6562C96.5923 13.6562 97.009 13.5391 97.3319 13.3047C97.6548 13.0651 97.8918 12.7214 98.0428 12.2734C98.1939 11.8255 98.2694 11.2865 98.2694 10.6562C98.2694 10.026 98.1939 9.49219 98.0428 9.05469C97.8918 8.61198 97.6548 8.27604 97.3319 8.04688C97.009 7.8125 96.5897 7.69531 96.0741 7.69531C95.3136 7.69531 94.759 7.95052 94.41 8.46094C94.061 8.97135 93.8866 9.70312 93.8866 10.6562ZM112.203 6.1875C113.172 6.1875 113.901 6.4375 114.39 6.9375C114.885 7.4375 115.132 8.23958 115.132 9.34375V15H113.297V9.67188C113.297 9.01562 113.169 8.52083 112.914 8.1875C112.659 7.85417 112.271 7.6875 111.75 7.6875C111.021 7.6875 110.494 7.92188 110.172 8.39062C109.854 8.85417 109.695 9.52865 109.695 10.4141V15H107.859V9.67188C107.859 9.23438 107.802 8.86979 107.687 8.57812C107.578 8.28125 107.409 8.0599 107.179 7.91406C106.95 7.76302 106.661 7.6875 106.312 7.6875C105.807 7.6875 105.403 7.80208 105.101 8.03125C104.804 8.26042 104.591 8.59896 104.461 9.04688C104.33 9.48958 104.265 10.0339 104.265 10.6797V15H102.429V6.35156H103.859L104.117 7.51562H104.218C104.396 7.21354 104.614 6.96615 104.875 6.77344C105.14 6.57552 105.435 6.42969 105.757 6.33594C106.08 6.23698 106.416 6.1875 106.765 6.1875C107.411 6.1875 107.955 6.30208 108.398 6.53125C108.841 6.75521 109.172 7.09896 109.39 7.5625H109.531C109.802 7.09375 110.179 6.7474 110.664 6.52344C111.148 6.29948 111.661 6.1875 112.203 6.1875ZM121.3 6.1875C122.071 6.1875 122.733 6.34635 123.285 6.66406C123.837 6.98177 124.261 7.43229 124.558 8.01562C124.855 8.59896 125.003 9.29688 125.003 10.1094V11.0938H119.23C119.251 11.9323 119.475 12.5781 119.902 13.0312C120.334 13.4844 120.938 13.7109 121.714 13.7109C122.266 13.7109 122.761 13.6589 123.199 13.5547C123.641 13.4453 124.097 13.2865 124.566 13.0781V14.5703C124.134 14.7734 123.694 14.9219 123.246 15.0156C122.798 15.1094 122.261 15.1562 121.636 15.1562C120.787 15.1562 120.04 14.9922 119.394 14.6641C118.753 14.3307 118.251 13.8359 117.886 13.1797C117.527 12.5234 117.347 11.7083 117.347 10.7344C117.347 9.76562 117.511 8.94271 117.839 8.26562C118.167 7.58854 118.628 7.07292 119.222 6.71875C119.816 6.36458 120.509 6.1875 121.3 6.1875ZM121.3 7.57031C120.722 7.57031 120.253 7.75781 119.894 8.13281C119.54 8.50781 119.332 9.05729 119.269 9.78125H123.207C123.201 9.34896 123.128 8.96615 122.988 8.63281C122.852 8.29948 122.644 8.03906 122.363 7.85156C122.087 7.66406 121.733 7.57031 121.3 7.57031ZM135.152 3.40625C135.74 3.40625 136.256 3.5026 136.698 3.69531C137.146 3.88802 137.495 4.16927 137.745 4.53906C137.995 4.90365 138.12 5.34896 138.12 5.875C138.12 6.57812 137.902 7.17188 137.464 7.65625C137.027 8.14062 136.474 8.57292 135.808 8.95312L138.503 11.5781C138.758 11.2292 138.969 10.8464 139.136 10.4297C139.303 10.0078 139.446 9.5651 139.566 9.10156H141.464C141.303 9.7474 141.079 10.3854 140.792 11.0156C140.506 11.6406 140.144 12.2135 139.706 12.7344L142.027 15H139.675L138.519 13.8672C138.196 14.1276 137.849 14.3542 137.48 14.5469C137.115 14.7396 136.717 14.8906 136.284 15C135.852 15.1042 135.376 15.1562 134.855 15.1562C134.058 15.1562 133.37 15.0286 132.792 14.7734C132.214 14.5182 131.769 14.1536 131.456 13.6797C131.149 13.2005 130.995 12.6328 130.995 11.9766C130.995 11.4297 131.086 10.9609 131.269 10.5703C131.456 10.1745 131.722 9.82812 132.066 9.53125C132.409 9.22917 132.821 8.94271 133.3 8.67188C133.04 8.375 132.813 8.08594 132.62 7.80469C132.428 7.52344 132.279 7.23438 132.175 6.9375C132.076 6.63542 132.027 6.3125 132.027 5.96875C132.027 5.4375 132.157 4.98177 132.417 4.60156C132.678 4.21615 133.042 3.92188 133.511 3.71875C133.98 3.51042 134.527 3.40625 135.152 3.40625ZM134.386 9.78906C134.084 9.98177 133.823 10.1771 133.605 10.375C133.386 10.5677 133.217 10.7812 133.097 11.0156C132.982 11.25 132.925 11.5234 132.925 11.8359C132.925 12.3724 133.112 12.7969 133.487 13.1094C133.868 13.4219 134.357 13.5781 134.956 13.5781C135.482 13.5781 135.943 13.5 136.339 13.3438C136.74 13.1823 137.089 12.9818 137.386 12.7422L134.386 9.78906ZM135.12 4.85938C134.751 4.85938 134.43 4.95573 134.159 5.14844C133.894 5.34115 133.761 5.64062 133.761 6.04688C133.761 6.375 133.847 6.6849 134.019 6.97656C134.196 7.26302 134.441 7.57292 134.753 7.90625C135.3 7.60417 135.706 7.30729 135.972 7.01562C136.243 6.72396 136.378 6.38542 136.378 6C136.378 5.63542 136.256 5.35417 136.011 5.15625C135.766 4.95833 135.469 4.85938 135.12 4.85938ZM152.909 5.00781C152.362 5.00781 151.873 5.10677 151.44 5.30469C151.013 5.5026 150.651 5.78906 150.354 6.16406C150.058 6.53385 149.831 6.98438 149.675 7.51562C149.518 8.04167 149.44 8.63542 149.44 9.29688C149.44 10.1823 149.565 10.9453 149.815 11.5859C150.065 12.2214 150.446 12.7109 150.956 13.0547C151.466 13.3932 152.112 13.5625 152.893 13.5625C153.378 13.5625 153.849 13.5156 154.308 13.4219C154.766 13.3281 155.24 13.2005 155.729 13.0391V14.6328C155.266 14.8151 154.797 14.9479 154.323 15.0312C153.849 15.1146 153.302 15.1562 152.683 15.1562C151.516 15.1562 150.547 14.9141 149.776 14.4297C149.011 13.9453 148.438 13.263 148.058 12.3828C147.683 11.5026 147.495 10.4714 147.495 9.28906C147.495 8.42448 147.615 7.63281 147.854 6.91406C148.094 6.19531 148.443 5.57552 148.901 5.05469C149.36 4.52865 149.925 4.125 150.597 3.84375C151.274 3.55729 152.047 3.41406 152.917 3.41406C153.49 3.41406 154.052 3.47917 154.604 3.60938C155.162 3.73438 155.677 3.91406 156.151 4.14844L155.495 5.69531C155.099 5.50781 154.685 5.34635 154.253 5.21094C153.821 5.07552 153.373 5.00781 152.909 5.00781ZM165.811 10.6562C165.811 11.375 165.717 12.013 165.53 12.5703C165.342 13.1276 165.069 13.599 164.71 13.9844C164.35 14.3646 163.918 14.6562 163.413 14.8594C162.908 15.0573 162.337 15.1562 161.702 15.1562C161.108 15.1562 160.564 15.0573 160.069 14.8594C159.574 14.6562 159.145 14.3646 158.78 13.9844C158.421 13.599 158.142 13.1276 157.944 12.5703C157.746 12.013 157.647 11.375 157.647 10.6562C157.647 9.70312 157.811 8.89583 158.139 8.23438C158.473 7.56771 158.947 7.0599 159.561 6.71094C160.176 6.36198 160.908 6.1875 161.757 6.1875C162.553 6.1875 163.257 6.36198 163.866 6.71094C164.475 7.0599 164.952 7.56771 165.296 8.23438C165.639 8.90104 165.811 9.70833 165.811 10.6562ZM159.538 10.6562C159.538 11.2865 159.613 11.8255 159.764 12.2734C159.921 12.7214 160.16 13.0651 160.483 13.3047C160.806 13.5391 161.223 13.6562 161.733 13.6562C162.244 13.6562 162.66 13.5391 162.983 13.3047C163.306 13.0651 163.543 12.7214 163.694 12.2734C163.845 11.8255 163.921 11.2865 163.921 10.6562C163.921 10.026 163.845 9.49219 163.694 9.05469C163.543 8.61198 163.306 8.27604 162.983 8.04688C162.66 7.8125 162.241 7.69531 161.725 7.69531C160.965 7.69531 160.41 7.95052 160.061 8.46094C159.712 8.97135 159.538 9.70312 159.538 10.6562ZM177.854 6.1875C178.823 6.1875 179.552 6.4375 180.042 6.9375C180.536 7.4375 180.784 8.23958 180.784 9.34375V15H178.948V9.67188C178.948 9.01562 178.82 8.52083 178.565 8.1875C178.31 7.85417 177.922 7.6875 177.401 7.6875C176.672 7.6875 176.146 7.92188 175.823 8.39062C175.505 8.85417 175.346 9.52865 175.346 10.4141V15H173.51V9.67188C173.51 9.23438 173.453 8.86979 173.338 8.57812C173.229 8.28125 173.06 8.0599 172.831 7.91406C172.601 7.76302 172.312 7.6875 171.963 7.6875C171.458 7.6875 171.055 7.80208 170.753 8.03125C170.456 8.26042 170.242 8.59896 170.112 9.04688C169.982 9.48958 169.917 10.0339 169.917 10.6797V15H168.081V6.35156H169.51L169.768 7.51562H169.87C170.047 7.21354 170.266 6.96615 170.526 6.77344C170.792 6.57552 171.086 6.42969 171.409 6.33594C171.732 6.23698 172.068 6.1875 172.417 6.1875C173.062 6.1875 173.607 6.30208 174.049 6.53125C174.492 6.75521 174.823 7.09896 175.042 7.5625H175.182C175.453 7.09375 175.831 6.7474 176.315 6.52344C176.799 6.29948 177.312 6.1875 177.854 6.1875ZM193.28 6.1875C194.248 6.1875 194.978 6.4375 195.467 6.9375C195.962 7.4375 196.209 8.23958 196.209 9.34375V15H194.373V9.67188C194.373 9.01562 194.246 8.52083 193.991 8.1875C193.735 7.85417 193.347 7.6875 192.827 7.6875C192.097 7.6875 191.571 7.92188 191.248 8.39062C190.931 8.85417 190.772 9.52865 190.772 10.4141V15H188.936V9.67188C188.936 9.23438 188.879 8.86979 188.764 8.57812C188.655 8.28125 188.485 8.0599 188.256 7.91406C188.027 7.76302 187.738 7.6875 187.389 7.6875C186.884 7.6875 186.48 7.80208 186.178 8.03125C185.881 8.26042 185.668 8.59896 185.537 9.04688C185.407 9.48958 185.342 10.0339 185.342 10.6797V15H183.506V6.35156H184.936L185.194 7.51562H185.295C185.472 7.21354 185.691 6.96615 185.952 6.77344C186.217 6.57552 186.511 6.42969 186.834 6.33594C187.157 6.23698 187.493 6.1875 187.842 6.1875C188.488 6.1875 189.032 6.30208 189.475 6.53125C189.918 6.75521 190.248 7.09896 190.467 7.5625H190.608C190.879 7.09375 191.256 6.7474 191.741 6.52344C192.225 6.29948 192.738 6.1875 193.28 6.1875ZM206.471 6.35156V15H205.026L204.776 13.8359H204.674C204.492 14.1328 204.26 14.3802 203.979 14.5781C203.698 14.7708 203.385 14.9141 203.041 15.0078C202.698 15.1068 202.336 15.1562 201.955 15.1562C201.304 15.1562 200.747 15.0469 200.283 14.8281C199.825 14.6042 199.474 14.2604 199.229 13.7969C198.984 13.3333 198.862 12.7344 198.862 12V6.35156H200.705V11.6562C200.705 12.3281 200.841 12.8307 201.112 13.1641C201.388 13.4974 201.815 13.6641 202.393 13.6641C202.95 13.6641 203.393 13.5495 203.721 13.3203C204.049 13.0911 204.281 12.7526 204.416 12.3047C204.557 11.8568 204.627 11.3073 204.627 10.6562V6.35156H206.471ZM213.772 6.1875C214.746 6.1875 215.503 6.4401 216.045 6.94531C216.592 7.44531 216.865 8.25 216.865 9.35938V15H215.029V9.70312C215.029 9.03125 214.891 8.52865 214.615 8.19531C214.339 7.85677 213.912 7.6875 213.334 7.6875C212.496 7.6875 211.912 7.94531 211.584 8.46094C211.261 8.97656 211.1 9.72396 211.1 10.7031V15H209.264V6.35156H210.693L210.951 7.52344H211.053C211.24 7.22135 211.472 6.97396 211.748 6.78125C212.029 6.58333 212.342 6.4349 212.686 6.33594C213.035 6.23698 213.397 6.1875 213.772 6.1875ZM221.432 6.35156V15H219.596V6.35156H221.432ZM220.525 3.03906C220.807 3.03906 221.049 3.11458 221.252 3.26562C221.46 3.41667 221.564 3.67708 221.564 4.04688C221.564 4.41146 221.46 4.67188 221.252 4.82812C221.049 4.97917 220.807 5.05469 220.525 5.05469C220.234 5.05469 219.986 4.97917 219.783 4.82812C219.585 4.67188 219.486 4.41146 219.486 4.04688C219.486 3.67708 219.585 3.41667 219.783 3.26562C219.986 3.11458 220.234 3.03906 220.525 3.03906ZM227.443 13.6719C227.683 13.6719 227.92 13.651 228.154 13.6094C228.388 13.5625 228.602 13.5078 228.795 13.4453V14.8359C228.592 14.9245 228.329 15 228.006 15.0625C227.683 15.125 227.347 15.1562 226.998 15.1562C226.508 15.1562 226.068 15.0755 225.678 14.9141C225.287 14.7474 224.977 14.4635 224.748 14.0625C224.519 13.6615 224.404 13.1068 224.404 12.3984V7.75H223.224V6.92969L224.49 6.28125L225.092 4.42969H226.248V6.35156H228.724V7.75H226.248V12.375C226.248 12.8125 226.357 13.138 226.576 13.3516C226.795 13.5651 227.084 13.6719 227.443 13.6719ZM229.408 6.35156H231.408L233.181 11.2891C233.259 11.513 233.33 11.7344 233.392 11.9531C233.46 12.1667 233.517 12.3776 233.564 12.5859C233.616 12.7943 233.658 13.0026 233.689 13.2109H233.736C233.788 12.9401 233.861 12.638 233.955 12.3047C234.054 11.9661 234.163 11.6276 234.283 11.2891L235.986 6.35156H237.962L234.252 16.1875C234.038 16.75 233.775 17.2292 233.462 17.625C233.155 18.026 232.791 18.3281 232.369 18.5312C231.947 18.7396 231.465 18.8438 230.923 18.8438C230.663 18.8438 230.436 18.8281 230.244 18.7969C230.051 18.7708 229.887 18.7422 229.752 18.7109V17.2422C229.861 17.2682 229.999 17.2917 230.166 17.3125C230.332 17.3333 230.504 17.3438 230.681 17.3438C231.009 17.3438 231.293 17.2786 231.533 17.1484C231.772 17.0182 231.976 16.8333 232.142 16.5938C232.309 16.3594 232.447 16.0911 232.556 15.7891L232.861 14.9766L229.408 6.35156ZM80.5 21.5781H83.8984C85.3724 21.5781 86.4844 21.7917 87.2344 22.2188C87.9844 22.6458 88.3594 23.3828 88.3594 24.4297C88.3594 24.8672 88.2812 25.263 88.125 25.6172C87.974 25.9661 87.7526 26.2552 87.4609 26.4844C87.1693 26.7083 86.8099 26.8594 86.3828 26.9375V27.0156C86.8255 27.0938 87.2188 27.2318 87.5625 27.4297C87.9115 27.6276 88.1849 27.9115 88.3828 28.2812C88.5859 28.651 88.6875 29.1302 88.6875 29.7188C88.6875 30.4167 88.5208 31.0104 88.1875 31.5C87.8594 31.9896 87.388 32.362 86.7734 32.6172C86.1641 32.8724 85.4401 33 84.6016 33H80.5V21.5781ZM82.375 26.2891H84.1719C85.0208 26.2891 85.6094 26.151 85.9375 25.875C86.2656 25.599 86.4297 25.1953 86.4297 24.6641C86.4297 24.1224 86.2344 23.7318 85.8438 23.4922C85.4583 23.2526 84.8438 23.1328 84 23.1328H82.375V26.2891ZM82.375 27.8047V31.4297H84.3516C85.2266 31.4297 85.8411 31.2604 86.1953 30.9219C86.5495 30.5833 86.7266 30.125 86.7266 29.5469C86.7266 29.1927 86.6458 28.8854 86.4844 28.625C86.3281 28.3646 86.0703 28.1641 85.7109 28.0234C85.3516 27.8776 84.8672 27.8047 84.2578 27.8047H82.375ZM94.41 24.1875C95.5037 24.1875 96.3293 24.4297 96.8866 24.9141C97.4491 25.3984 97.7303 26.1536 97.7303 27.1797V33H96.4256L96.0741 31.7734H96.0116C95.7668 32.0859 95.5142 32.3438 95.2537 32.5469C94.9933 32.75 94.6912 32.901 94.3475 33C94.009 33.1042 93.5949 33.1562 93.1053 33.1562C92.5897 33.1562 92.1287 33.0625 91.7225 32.875C91.3162 32.6823 90.9959 32.3906 90.7616 32C90.5272 31.6094 90.41 31.1146 90.41 30.5156C90.41 29.625 90.7407 28.9557 91.4022 28.5078C92.0689 28.0599 93.0741 27.8125 94.4178 27.7656L95.9178 27.7109V27.2578C95.9178 26.6589 95.7772 26.2318 95.4959 25.9766C95.2199 25.7214 94.8293 25.5938 94.3241 25.5938C93.8918 25.5938 93.4725 25.6562 93.0662 25.7812C92.66 25.9062 92.2642 26.0599 91.8787 26.2422L91.285 24.9453C91.7069 24.7214 92.186 24.5391 92.7225 24.3984C93.2642 24.2578 93.8267 24.1875 94.41 24.1875ZM95.91 28.8672L94.7928 28.9062C93.8761 28.9375 93.2329 29.0938 92.8631 29.375C92.4933 29.6562 92.3084 30.0417 92.3084 30.5312C92.3084 30.9583 92.436 31.2708 92.6912 31.4688C92.9465 31.6615 93.2824 31.7578 93.6991 31.7578C94.3345 31.7578 94.8605 31.5781 95.2772 31.2188C95.6991 30.8542 95.91 30.3203 95.91 29.6172V28.8672ZM106.273 30.5312C106.273 31.099 106.135 31.5781 105.859 31.9688C105.583 32.3594 105.179 32.6562 104.648 32.8594C104.122 33.0573 103.476 33.1562 102.711 33.1562C102.106 33.1562 101.586 33.112 101.148 33.0234C100.716 32.9401 100.307 32.8099 99.9216 32.6328V31.0469C100.333 31.2396 100.794 31.4062 101.304 31.5469C101.82 31.6875 102.307 31.7578 102.765 31.7578C103.369 31.7578 103.804 31.6641 104.07 31.4766C104.336 31.2839 104.468 31.0286 104.468 30.7109C104.468 30.5234 104.414 30.3568 104.304 30.2109C104.2 30.0599 104.002 29.9062 103.711 29.75C103.424 29.5885 103.002 29.3958 102.445 29.1719C101.898 28.9531 101.437 28.7344 101.062 28.5156C100.687 28.2969 100.403 28.0339 100.211 27.7266C100.018 27.4141 99.9216 27.0156 99.9216 26.5312C99.9216 25.7656 100.224 25.1849 100.828 24.7891C101.437 24.388 102.242 24.1875 103.242 24.1875C103.773 24.1875 104.273 24.2422 104.742 24.3516C105.216 24.4557 105.679 24.6094 106.132 24.8125L105.554 26.1953C105.164 26.0234 104.771 25.8828 104.375 25.7734C103.984 25.6589 103.586 25.6016 103.179 25.6016C102.705 25.6016 102.343 25.6745 102.093 25.8203C101.849 25.9661 101.726 26.1745 101.726 26.4453C101.726 26.6484 101.786 26.8203 101.906 26.9609C102.026 27.1016 102.231 27.2422 102.523 27.3828C102.82 27.5234 103.231 27.6979 103.757 27.9062C104.273 28.1042 104.718 28.3125 105.093 28.5312C105.474 28.7448 105.765 29.0078 105.968 29.3203C106.172 29.6328 106.273 30.0365 106.273 30.5312ZM111.863 24.1875C112.634 24.1875 113.295 24.3464 113.847 24.6641C114.399 24.9818 114.824 25.4323 115.121 26.0156C115.417 26.599 115.566 27.2969 115.566 28.1094V29.0938H109.792C109.813 29.9323 110.037 30.5781 110.464 31.0312C110.897 31.4844 111.501 31.7109 112.277 31.7109C112.829 31.7109 113.324 31.6589 113.761 31.5547C114.204 31.4453 114.66 31.2865 115.128 31.0781V32.5703C114.696 32.7734 114.256 32.9219 113.808 33.0156C113.36 33.1094 112.824 33.1562 112.199 33.1562C111.35 33.1562 110.602 32.9922 109.957 32.6641C109.316 32.3307 108.813 31.8359 108.449 31.1797C108.089 30.5234 107.91 29.7083 107.91 28.7344C107.91 27.7656 108.074 26.9427 108.402 26.2656C108.73 25.5885 109.191 25.0729 109.785 24.7188C110.378 24.3646 111.071 24.1875 111.863 24.1875ZM111.863 25.5703C111.285 25.5703 110.816 25.7578 110.457 26.1328C110.102 26.5078 109.894 27.0573 109.832 27.7812H113.769C113.764 27.349 113.691 26.9661 113.55 26.6328C113.415 26.2995 113.207 26.0391 112.925 25.8516C112.649 25.6641 112.295 25.5703 111.863 25.5703ZM120.702 33.1562C119.671 33.1562 118.843 32.7812 118.218 32.0312C117.598 31.276 117.288 30.1641 117.288 28.6953C117.288 27.2109 117.604 26.0885 118.234 25.3281C118.869 24.5677 119.705 24.1875 120.742 24.1875C121.179 24.1875 121.562 24.2474 121.89 24.3672C122.218 24.4818 122.499 24.638 122.734 24.8359C122.973 25.0339 123.176 25.2552 123.343 25.5H123.429C123.403 25.3385 123.372 25.1068 123.335 24.8047C123.304 24.4974 123.288 24.2135 123.288 23.9531V20.8438H125.132V33H123.695L123.367 31.8203H123.288C123.132 32.0703 122.934 32.2969 122.695 32.5C122.46 32.6979 122.179 32.8568 121.851 32.9766C121.528 33.0964 121.145 33.1562 120.702 33.1562ZM121.218 31.6641C122.005 31.6641 122.559 31.4375 122.882 30.9844C123.205 30.5312 123.372 29.8516 123.382 28.9453V28.7031C123.382 27.7344 123.226 26.9922 122.913 26.4766C122.601 25.9557 122.031 25.6953 121.202 25.6953C120.541 25.6953 120.036 25.9635 119.687 26.5C119.343 27.0312 119.171 27.7734 119.171 28.7266C119.171 29.6797 119.343 30.4089 119.687 30.9141C120.036 31.4141 120.546 31.6641 121.218 31.6641ZM139.022 29.8906C139.022 30.5677 138.856 31.151 138.522 31.6406C138.194 32.1302 137.72 32.5052 137.101 32.7656C136.486 33.026 135.752 33.1562 134.897 33.1562C134.481 33.1562 134.082 33.1328 133.702 33.0859C133.322 33.0391 132.963 32.9714 132.624 32.8828C132.291 32.7891 131.986 32.6771 131.71 32.5469V30.7812C132.174 30.9844 132.692 31.1693 133.265 31.3359C133.838 31.4974 134.421 31.5781 135.015 31.5781C135.499 31.5781 135.9 31.5156 136.218 31.3906C136.541 31.2604 136.78 31.0781 136.937 30.8438C137.093 30.6042 137.171 30.3255 137.171 30.0078C137.171 29.6693 137.08 29.3828 136.897 29.1484C136.715 28.9141 136.439 28.7005 136.069 28.5078C135.705 28.3099 135.246 28.099 134.694 27.875C134.319 27.724 133.96 27.5521 133.616 27.3594C133.278 27.1667 132.976 26.9401 132.71 26.6797C132.444 26.4193 132.233 26.112 132.077 25.7578C131.926 25.3984 131.851 24.9766 131.851 24.4922C131.851 23.8464 132.004 23.2943 132.312 22.8359C132.624 22.3776 133.062 22.026 133.624 21.7812C134.192 21.5365 134.853 21.4141 135.608 21.4141C136.207 21.4141 136.77 21.4766 137.296 21.6016C137.827 21.7266 138.348 21.9036 138.858 22.1328L138.265 23.6406C137.796 23.4479 137.34 23.2943 136.897 23.1797C136.46 23.0651 136.012 23.0078 135.554 23.0078C135.158 23.0078 134.822 23.0677 134.546 23.1875C134.27 23.3073 134.059 23.4766 133.913 23.6953C133.772 23.9089 133.702 24.1641 133.702 24.4609C133.702 24.7943 133.783 25.0755 133.944 25.3047C134.111 25.5286 134.366 25.7344 134.71 25.9219C135.059 26.1094 135.507 26.3177 136.054 26.5469C136.684 26.8073 137.218 27.0807 137.655 27.3672C138.098 27.6536 138.437 27.9974 138.671 28.3984C138.905 28.7943 139.022 29.2917 139.022 29.8906ZM144.643 24.1875C145.414 24.1875 146.076 24.3464 146.628 24.6641C147.18 24.9818 147.604 25.4323 147.901 26.0156C148.198 26.599 148.347 27.2969 148.347 28.1094V29.0938H142.573C142.594 29.9323 142.818 30.5781 143.245 31.0312C143.677 31.4844 144.281 31.7109 145.057 31.7109C145.61 31.7109 146.104 31.6589 146.542 31.5547C146.985 31.4453 147.44 31.2865 147.909 31.0781V32.5703C147.477 32.7734 147.037 32.9219 146.589 33.0156C146.141 33.1094 145.604 33.1562 144.979 33.1562C144.13 33.1562 143.383 32.9922 142.737 32.6641C142.097 32.3307 141.594 31.8359 141.229 31.1797C140.87 30.5234 140.69 29.7083 140.69 28.7344C140.69 27.7656 140.854 26.9427 141.182 26.2656C141.511 25.5885 141.972 25.0729 142.565 24.7188C143.159 24.3646 143.852 24.1875 144.643 24.1875ZM144.643 25.5703C144.065 25.5703 143.597 25.7578 143.237 26.1328C142.883 26.5078 142.675 27.0573 142.612 27.7812H146.55C146.544 27.349 146.472 26.9661 146.331 26.6328C146.196 26.2995 145.987 26.0391 145.706 25.8516C145.43 25.6641 145.076 25.5703 144.643 25.5703ZM154.96 24.1875C155.106 24.1875 155.264 24.1953 155.436 24.2109C155.608 24.2266 155.757 24.2474 155.882 24.2734L155.71 25.9922C155.6 25.9609 155.465 25.9375 155.303 25.9219C155.147 25.9062 155.007 25.8984 154.882 25.8984C154.553 25.8984 154.241 25.9531 153.944 26.0625C153.647 26.1667 153.384 26.3281 153.155 26.5469C152.926 26.7604 152.746 27.0286 152.616 27.3516C152.486 27.6745 152.421 28.0495 152.421 28.4766V33H150.577V24.3516H152.014L152.264 25.875H152.35C152.522 25.5677 152.736 25.2865 152.991 25.0312C153.246 24.776 153.538 24.5729 153.866 24.4219C154.199 24.2656 154.564 24.1875 154.96 24.1875ZM159.62 33L156.331 24.3516H158.276L160.057 29.4297C160.172 29.7526 160.276 30.1016 160.37 30.4766C160.463 30.8516 160.529 31.1667 160.565 31.4219H160.628C160.664 31.1562 160.734 30.8385 160.838 30.4688C160.943 30.0938 161.049 29.7474 161.159 29.4297L162.94 24.3516H164.878L161.588 33H159.62ZM168.186 24.3516V33H166.35V24.3516H168.186ZM167.28 21.0391C167.561 21.0391 167.803 21.1146 168.006 21.2656C168.215 21.4167 168.319 21.6771 168.319 22.0469C168.319 22.4115 168.215 22.6719 168.006 22.8281C167.803 22.9792 167.561 23.0547 167.28 23.0547C166.988 23.0547 166.741 22.9792 166.537 22.8281C166.34 22.6719 166.241 22.4115 166.241 22.0469C166.241 21.6771 166.34 21.4167 166.537 21.2656C166.741 21.1146 166.988 21.0391 167.28 21.0391ZM174.463 33.1562C173.645 33.1562 172.937 32.9974 172.338 32.6797C171.739 32.362 171.278 31.875 170.955 31.2188C170.632 30.5625 170.471 29.7292 170.471 28.7188C170.471 27.6667 170.648 26.8073 171.002 26.1406C171.356 25.474 171.846 24.9818 172.471 24.6641C173.101 24.3464 173.823 24.1875 174.635 24.1875C175.151 24.1875 175.617 24.2396 176.033 24.3438C176.455 24.4427 176.812 24.5651 177.104 24.7109L176.557 26.1797C176.239 26.0495 175.914 25.9401 175.58 25.8516C175.247 25.763 174.927 25.7188 174.619 25.7188C174.114 25.7188 173.692 25.8307 173.354 26.0547C173.02 26.2786 172.77 26.612 172.604 27.0547C172.442 27.4974 172.362 28.0469 172.362 28.7031C172.362 29.3385 172.445 29.875 172.612 30.3125C172.778 30.7448 173.026 31.0729 173.354 31.2969C173.682 31.5156 174.086 31.625 174.565 31.625C175.039 31.625 175.463 31.5677 175.838 31.4531C176.213 31.3385 176.567 31.1901 176.901 31.0078V32.6016C176.573 32.7891 176.221 32.9271 175.846 33.0156C175.471 33.1094 175.01 33.1562 174.463 33.1562ZM182.537 24.1875C183.308 24.1875 183.969 24.3464 184.522 24.6641C185.074 24.9818 185.498 25.4323 185.795 26.0156C186.092 26.599 186.24 27.2969 186.24 28.1094V29.0938H180.467C180.488 29.9323 180.712 30.5781 181.139 31.0312C181.571 31.4844 182.175 31.7109 182.951 31.7109C183.503 31.7109 183.998 31.6589 184.436 31.5547C184.878 31.4453 185.334 31.2865 185.803 31.0781V32.5703C185.371 32.7734 184.93 32.9219 184.482 33.0156C184.035 33.1094 183.498 33.1562 182.873 33.1562C182.024 33.1562 181.277 32.9922 180.631 32.6641C179.99 32.3307 179.488 31.8359 179.123 31.1797C178.764 30.5234 178.584 29.7083 178.584 28.7344C178.584 27.7656 178.748 26.9427 179.076 26.2656C179.404 25.5885 179.865 25.0729 180.459 24.7188C181.053 24.3646 181.746 24.1875 182.537 24.1875ZM182.537 25.5703C181.959 25.5703 181.49 25.7578 181.131 26.1328C180.777 26.5078 180.568 27.0573 180.506 27.7812H184.443C184.438 27.349 184.365 26.9661 184.225 26.6328C184.089 26.2995 183.881 26.0391 183.6 25.8516C183.324 25.6641 182.969 25.5703 182.537 25.5703ZM194.283 30.5312C194.283 31.099 194.145 31.5781 193.869 31.9688C193.593 32.3594 193.189 32.6562 192.658 32.8594C192.132 33.0573 191.486 33.1562 190.721 33.1562C190.116 33.1562 189.596 33.112 189.158 33.0234C188.726 32.9401 188.317 32.8099 187.932 32.6328V31.0469C188.343 31.2396 188.804 31.4062 189.314 31.5469C189.83 31.6875 190.317 31.7578 190.775 31.7578C191.379 31.7578 191.814 31.6641 192.08 31.4766C192.346 31.2839 192.478 31.0286 192.478 30.7109C192.478 30.5234 192.424 30.3568 192.314 30.2109C192.21 30.0599 192.012 29.9062 191.721 29.75C191.434 29.5885 191.012 29.3958 190.455 29.1719C189.908 28.9531 189.447 28.7344 189.072 28.5156C188.697 28.2969 188.413 28.0339 188.221 27.7266C188.028 27.4141 187.932 27.0156 187.932 26.5312C187.932 25.7656 188.234 25.1849 188.838 24.7891C189.447 24.388 190.252 24.1875 191.252 24.1875C191.783 24.1875 192.283 24.2422 192.752 24.3516C193.226 24.4557 193.689 24.6094 194.143 24.8125L193.564 26.1953C193.174 26.0234 192.781 25.8828 192.385 25.7734C191.994 25.6589 191.596 25.6016 191.189 25.6016C190.715 25.6016 190.353 25.6745 190.103 25.8203C189.859 25.9661 189.736 26.1745 189.736 26.4453C189.736 26.6484 189.796 26.8203 189.916 26.9609C190.036 27.1016 190.241 27.2422 190.533 27.3828C190.83 27.5234 191.241 27.6979 191.768 27.9062C192.283 28.1042 192.728 28.3125 193.103 28.5312C193.484 28.7448 193.775 29.0078 193.978 29.3203C194.182 29.6328 194.283 30.0365 194.283 30.5312Z" fill="white"/>
<line x1="68.5" y1="1" x2="68.5" y2="35" stroke="#B3ECF8"/>
</svg>
