<svg width="238" height="74" viewBox="0 0 238 74" fill="none" xmlns="http://www.w3.org/2000/svg">
<path d="M6.42505 67L3.6499 58.9514H3.59058C3.60376 59.1316 3.61914 59.3777 3.63672 59.6897C3.6543 60.0017 3.66968 60.3357 3.68286 60.6917C3.69604 61.0476 3.70264 61.3882 3.70264 61.7134V67H2.26562V57.3628H4.48706L7.15674 65.0554H7.19629L9.95825 57.3628H12.1731V67H10.6636V61.6343C10.6636 61.3398 10.668 61.0212 10.6768 60.6785C10.6899 60.3357 10.7031 60.0105 10.7163 59.7029C10.7339 59.3953 10.7471 59.1492 10.7559 58.9646H10.7031L7.82251 67H6.42505ZM17.4597 59.5645C18.1101 59.5645 18.6682 59.6985 19.134 59.9666C19.5999 60.2346 19.958 60.6147 20.2085 61.1069C20.459 61.5991 20.5842 62.188 20.5842 62.8735V63.7041H15.7129C15.7305 64.4116 15.9194 64.9565 16.2798 65.3389C16.6445 65.7212 17.1543 65.9124 17.8091 65.9124C18.2749 65.9124 18.6924 65.8684 19.0615 65.7805C19.4351 65.6882 19.8196 65.5542 20.2151 65.3784V66.6375C19.8503 66.8088 19.479 66.9341 19.1011 67.0132C18.7231 67.0923 18.2705 67.1318 17.7432 67.1318C17.0269 67.1318 16.3962 66.9934 15.8513 66.7166C15.3108 66.4353 14.8867 66.0178 14.5791 65.4641C14.2759 64.9104 14.1243 64.2227 14.1243 63.4009C14.1243 62.5835 14.2627 61.8892 14.5396 61.3179C14.8164 60.7466 15.2053 60.3115 15.7063 60.0127C16.2073 59.7139 16.7917 59.5645 17.4597 59.5645ZM17.4597 60.7312C16.9719 60.7312 16.5764 60.8894 16.2732 61.2058C15.9744 61.5222 15.7986 61.9858 15.7458 62.5967H19.0681C19.0637 62.2319 19.0022 61.9089 18.8835 61.6277C18.7693 61.3464 18.5935 61.1267 18.3562 60.9685C18.1233 60.8103 17.8245 60.7312 17.4597 60.7312ZM24.7832 67.1318C23.9131 67.1318 23.2144 66.8154 22.687 66.1826C22.1641 65.5454 21.9026 64.6072 21.9026 63.3679C21.9026 62.1155 22.1685 61.1685 22.7002 60.5269C23.2363 59.8853 23.9417 59.5645 24.8162 59.5645C25.1853 59.5645 25.5083 59.615 25.7852 59.7161C26.062 59.8127 26.2993 59.9446 26.4971 60.1116C26.6992 60.2786 26.8706 60.4653 27.0112 60.6719H27.0837C27.0618 60.5356 27.0354 60.3401 27.0046 60.0852C26.9783 59.8259 26.9651 59.5864 26.9651 59.3667V56.7432H28.5208V67H27.3079L27.031 66.0046H26.9651C26.8333 66.2156 26.6663 66.4067 26.4641 66.5781C26.2664 66.7451 26.0291 66.8792 25.7522 66.9802C25.4797 67.0813 25.1567 67.1318 24.7832 67.1318ZM25.2183 65.8728C25.8818 65.8728 26.3499 65.6816 26.6223 65.2993C26.8948 64.917 27.0354 64.3435 27.0442 63.5789V63.3745C27.0442 62.5571 26.9124 61.9309 26.6487 61.4958C26.385 61.0564 25.9038 60.8367 25.2051 60.8367C24.647 60.8367 24.2207 61.063 23.9263 61.5156C23.6362 61.9639 23.4912 62.5901 23.4912 63.3943C23.4912 64.1985 23.6362 64.8137 23.9263 65.24C24.2207 65.6619 24.6514 65.8728 25.2183 65.8728ZM32.2913 59.7029V67H30.7422V59.7029H32.2913ZM31.5266 56.908C31.7639 56.908 31.9683 56.9717 32.1396 57.0991C32.3154 57.2266 32.4033 57.4463 32.4033 57.7583C32.4033 58.0659 32.3154 58.2856 32.1396 58.4175C31.9683 58.5449 31.7639 58.6086 31.5266 58.6086C31.2805 58.6086 31.0718 58.5449 30.9004 58.4175C30.7334 58.2856 30.6499 58.0659 30.6499 57.7583C30.6499 57.4463 30.7334 57.2266 30.9004 57.0991C31.0718 56.9717 31.2805 56.908 31.5266 56.908ZM37.4526 67.1318C36.7627 67.1318 36.165 66.9978 35.6597 66.7297C35.1543 66.4617 34.7654 66.0508 34.4929 65.4971C34.2205 64.9434 34.0842 64.2402 34.0842 63.3877C34.0842 62.5 34.2336 61.7749 34.5325 61.2124C34.8313 60.6499 35.2444 60.2346 35.7717 59.9666C36.3035 59.6985 36.9121 59.5645 37.5977 59.5645C38.0327 59.5645 38.426 59.6084 38.7776 59.6963C39.1335 59.7798 39.4346 59.8831 39.6807 60.0061L39.2192 61.2454C38.9512 61.1355 38.6765 61.0432 38.3953 60.9685C38.114 60.8938 37.8438 60.8564 37.5845 60.8564C37.1582 60.8564 36.8022 60.9509 36.5166 61.1399C36.2354 61.3289 36.0244 61.6101 35.8838 61.9836C35.7476 62.3572 35.6794 62.8208 35.6794 63.3745C35.6794 63.9106 35.7498 64.3633 35.8904 64.7324C36.031 65.0972 36.2397 65.374 36.5166 65.563C36.7935 65.7476 37.134 65.8398 37.5383 65.8398C37.9382 65.8398 38.2964 65.7915 38.6128 65.6948C38.9292 65.5981 39.228 65.4729 39.5093 65.3191V66.6638C39.2324 66.822 38.9358 66.9385 38.6194 67.0132C38.303 67.0923 37.9141 67.1318 37.4526 67.1318ZM44.084 59.5645C45.0068 59.5645 45.7034 59.7688 46.1736 60.1775C46.6482 60.5862 46.8855 61.2234 46.8855 62.0891V67H45.7847L45.488 65.9651H45.4353C45.2288 66.2288 45.0156 66.4463 44.7959 66.6177C44.5762 66.7891 44.3213 66.9165 44.0312 67C43.7456 67.0879 43.3962 67.1318 42.9832 67.1318C42.5481 67.1318 42.1592 67.0527 41.8164 66.8945C41.4736 66.7319 41.2034 66.4858 41.0056 66.1562C40.8079 65.8267 40.709 65.4092 40.709 64.9038C40.709 64.1523 40.988 63.5876 41.5461 63.2097C42.1086 62.8318 42.9568 62.623 44.0906 62.5835L45.3562 62.5374V62.155C45.3562 61.6497 45.2375 61.2893 45.0002 61.074C44.7673 60.8586 44.4377 60.751 44.0115 60.751C43.6467 60.751 43.293 60.8037 42.9502 60.9092C42.6074 61.0146 42.2734 61.1443 41.9482 61.2981L41.4473 60.2039C41.8032 60.0149 42.2075 59.8611 42.6602 59.7424C43.1172 59.6238 43.5918 59.5645 44.084 59.5645ZM45.3496 63.5129L44.407 63.5459C43.6335 63.5723 43.0908 63.7041 42.7788 63.9414C42.4668 64.1787 42.3108 64.5039 42.3108 64.917C42.3108 65.2773 42.4185 65.541 42.6338 65.708C42.8491 65.8706 43.1326 65.9519 43.4841 65.9519C44.0203 65.9519 44.4641 65.8003 44.8157 65.4971C45.1716 65.1895 45.3496 64.739 45.3496 64.1458V63.5129ZM50.6033 59.7029V67H49.0542V59.7029H50.6033ZM49.8386 56.908C50.0759 56.908 50.2803 56.9717 50.4517 57.0991C50.6274 57.2266 50.7153 57.4463 50.7153 57.7583C50.7153 58.0659 50.6274 58.2856 50.4517 58.4175C50.2803 58.5449 50.0759 58.6086 49.8386 58.6086C49.5925 58.6086 49.3838 58.5449 49.2124 58.4175C49.0454 58.2856 48.9619 58.0659 48.9619 57.7583C48.9619 57.4463 49.0454 57.2266 49.2124 57.0991C49.3838 56.9717 49.5925 56.908 49.8386 56.908ZM55.2769 67.1318C54.4067 67.1318 53.708 66.8154 53.1807 66.1826C52.6577 65.5454 52.3962 64.6072 52.3962 63.3679C52.3962 62.1155 52.6621 61.1685 53.1938 60.5269C53.73 59.8853 54.4353 59.5645 55.3098 59.5645C55.679 59.5645 56.002 59.615 56.2788 59.7161C56.5557 59.8127 56.793 59.9446 56.9907 60.1116C57.1929 60.2786 57.3643 60.4653 57.5049 60.6719H57.5774C57.5554 60.5356 57.5291 60.3401 57.4983 60.0852C57.4719 59.8259 57.4587 59.5864 57.4587 59.3667V56.7432H59.0144V67H57.8015L57.5247 66.0046H57.4587C57.3269 66.2156 57.1599 66.4067 56.9578 66.5781C56.76 66.7451 56.5227 66.8792 56.2458 66.9802C55.9734 67.0813 55.6504 67.1318 55.2769 67.1318ZM55.7119 65.8728C56.3755 65.8728 56.8435 65.6816 57.116 65.2993C57.3884 64.917 57.5291 64.3435 57.5378 63.5789V63.3745C57.5378 62.5571 57.406 61.9309 57.1423 61.4958C56.8787 61.0564 56.3975 60.8367 55.6987 60.8367C55.1406 60.8367 54.7144 61.063 54.4199 61.5156C54.1299 61.9639 53.9849 62.5901 53.9849 63.3943C53.9849 64.1985 54.1299 64.8137 54.4199 65.24C54.7144 65.6619 55.145 65.8728 55.7119 65.8728ZM72.7253 62.0891C72.7253 63.1746 72.5232 64.082 72.1189 64.8115C71.7146 65.5366 71.1279 66.0837 70.3589 66.4529C69.5898 66.8176 68.6626 67 67.5771 67H64.9009V57.3628H67.8672C68.8647 57.3628 69.7261 57.543 70.4512 57.9033C71.1763 58.2593 71.7366 58.7888 72.1321 59.4919C72.5276 60.1907 72.7253 61.0564 72.7253 62.0891ZM71.0774 62.1353C71.0774 61.3442 70.9521 60.6938 70.7017 60.1841C70.4556 59.6743 70.0908 59.2964 69.6074 59.0503C69.1284 58.7998 68.5374 58.6746 67.8342 58.6746H66.4829V65.675H67.6035C68.7681 65.675 69.6382 65.3784 70.2139 64.7852C70.7896 64.1919 71.0774 63.3086 71.0774 62.1353ZM77.5044 59.5645C78.4272 59.5645 79.1238 59.7688 79.594 60.1775C80.0686 60.5862 80.3059 61.2234 80.3059 62.0891V67H79.2051L78.9084 65.9651H78.8557C78.6492 66.2288 78.436 66.4463 78.2163 66.6177C77.9966 66.7891 77.7417 66.9165 77.4517 67C77.166 67.0879 76.8167 67.1318 76.4036 67.1318C75.9685 67.1318 75.5796 67.0527 75.2368 66.8945C74.894 66.7319 74.6238 66.4858 74.426 66.1562C74.2283 65.8267 74.1294 65.4092 74.1294 64.9038C74.1294 64.1523 74.4084 63.5876 74.9666 63.2097C75.5291 62.8318 76.3772 62.623 77.511 62.5835L78.7766 62.5374V62.155C78.7766 61.6497 78.658 61.2893 78.4207 61.074C78.1877 60.8586 77.8582 60.751 77.4319 60.751C77.0671 60.751 76.7134 60.8037 76.3706 60.9092C76.0278 61.0146 75.6938 61.1443 75.3687 61.2981L74.8677 60.2039C75.2236 60.0149 75.6279 59.8611 76.0806 59.7424C76.5376 59.6238 77.0122 59.5645 77.5044 59.5645ZM78.77 63.5129L77.8274 63.5459C77.054 63.5723 76.5112 63.7041 76.1992 63.9414C75.8872 64.1787 75.7312 64.5039 75.7312 64.917C75.7312 65.2773 75.8389 65.541 76.0542 65.708C76.2695 65.8706 76.553 65.9519 76.9045 65.9519C77.4407 65.9519 77.8845 65.8003 78.2361 65.4971C78.592 65.1895 78.77 64.739 78.77 64.1458V63.5129ZM85.1904 65.8794C85.3926 65.8794 85.5925 65.8618 85.7903 65.8267C85.988 65.7871 86.1682 65.741 86.3308 65.6882V66.8616C86.1594 66.9363 85.9375 67 85.665 67.0527C85.3926 67.1055 85.1091 67.1318 84.8147 67.1318C84.4016 67.1318 84.0303 67.0637 83.7007 66.9275C83.3711 66.7869 83.1096 66.5474 82.9163 66.209C82.7229 65.8706 82.6262 65.4026 82.6262 64.8049V60.8828H81.6309V60.1907L82.6987 59.6436L83.2063 58.0813H84.1819V59.7029H86.2715V60.8828H84.1819V64.7852C84.1819 65.1543 84.2742 65.429 84.4587 65.6091C84.6433 65.7893 84.8872 65.8794 85.1904 65.8794ZM90.6748 59.5645C91.5977 59.5645 92.2942 59.7688 92.7644 60.1775C93.239 60.5862 93.4763 61.2234 93.4763 62.0891V67H92.3755L92.0789 65.9651H92.0261C91.8196 66.2288 91.6064 66.4463 91.3867 66.6177C91.167 66.7891 90.9121 66.9165 90.6221 67C90.3364 67.0879 89.9871 67.1318 89.574 67.1318C89.1389 67.1318 88.75 67.0527 88.4072 66.8945C88.0645 66.7319 87.7942 66.4858 87.5964 66.1562C87.3987 65.8267 87.2998 65.4092 87.2998 64.9038C87.2998 64.1523 87.5789 63.5876 88.137 63.2097C88.6995 62.8318 89.5476 62.623 90.6814 62.5835L91.947 62.5374V62.155C91.947 61.6497 91.8284 61.2893 91.5911 61.074C91.3582 60.8586 91.0286 60.751 90.6023 60.751C90.2375 60.751 89.8838 60.8037 89.541 60.9092C89.1982 61.0146 88.8643 61.1443 88.5391 61.2981L88.0381 60.2039C88.394 60.0149 88.7983 59.8611 89.251 59.7424C89.708 59.6238 90.1826 59.5645 90.6748 59.5645ZM91.9404 63.5129L90.9978 63.5459C90.2244 63.5723 89.6816 63.7041 89.3696 63.9414C89.0576 64.1787 88.9016 64.5039 88.9016 64.917C88.9016 65.2773 89.0093 65.541 89.2246 65.708C89.4399 65.8706 89.7234 65.9519 90.075 65.9519C90.6111 65.9519 91.0549 65.8003 91.4065 65.4971C91.7625 65.1895 91.9404 64.739 91.9404 64.1458V63.5129ZM103.417 58.5691C102.955 58.5691 102.542 58.6526 102.177 58.8196C101.817 58.9866 101.512 59.2283 101.261 59.5447C101.011 59.8567 100.82 60.2368 100.688 60.6851C100.556 61.1289 100.49 61.6299 100.49 62.188C100.49 62.9351 100.595 63.5789 100.806 64.1194C101.017 64.6555 101.338 65.0686 101.769 65.3586C102.199 65.6443 102.744 65.7871 103.404 65.7871C103.812 65.7871 104.21 65.7476 104.597 65.6685C104.983 65.5894 105.383 65.4817 105.796 65.3455V66.6902C105.405 66.844 105.01 66.9561 104.61 67.0264C104.21 67.0967 103.749 67.1318 103.226 67.1318C102.241 67.1318 101.424 66.9275 100.773 66.5188C100.127 66.1101 99.644 65.5344 99.3232 64.7917C99.0068 64.0491 98.8486 63.179 98.8486 62.1814C98.8486 61.4519 98.9497 60.7839 99.1519 60.1775C99.354 59.571 99.6484 59.0481 100.035 58.6086C100.422 58.1648 100.899 57.8242 101.466 57.5869C102.037 57.3452 102.689 57.2244 103.423 57.2244C103.907 57.2244 104.381 57.2793 104.847 57.3892C105.317 57.4946 105.752 57.6462 106.152 57.844L105.599 59.1492C105.265 58.991 104.915 58.8547 104.551 58.7405C104.186 58.6262 103.808 58.5691 103.417 58.5691ZM114.168 63.335C114.168 63.9414 114.089 64.4797 113.931 64.95C113.772 65.4202 113.542 65.8179 113.239 66.1431C112.935 66.4639 112.571 66.71 112.144 66.8813C111.718 67.0483 111.237 67.1318 110.701 67.1318C110.2 67.1318 109.74 67.0483 109.323 66.8813C108.906 66.71 108.543 66.4639 108.235 66.1431C107.932 65.8179 107.697 65.4202 107.53 64.95C107.363 64.4797 107.28 63.9414 107.28 63.335C107.28 62.5308 107.418 61.8496 107.695 61.2915C107.976 60.729 108.376 60.3005 108.895 60.0061C109.413 59.7117 110.031 59.5645 110.747 59.5645C111.419 59.5645 112.012 59.7117 112.527 60.0061C113.041 60.3005 113.443 60.729 113.733 61.2915C114.023 61.854 114.168 62.5352 114.168 63.335ZM108.875 63.335C108.875 63.8667 108.938 64.3215 109.066 64.6995C109.198 65.0774 109.4 65.3674 109.672 65.5696C109.945 65.7673 110.296 65.8662 110.727 65.8662C111.158 65.8662 111.509 65.7673 111.782 65.5696C112.054 65.3674 112.254 65.0774 112.382 64.6995C112.509 64.3215 112.573 63.8667 112.573 63.335C112.573 62.8032 112.509 62.3528 112.382 61.9836C112.254 61.6101 112.054 61.3267 111.782 61.1333C111.509 60.9355 111.156 60.8367 110.72 60.8367C110.079 60.8367 109.611 61.052 109.316 61.4827C109.022 61.9133 108.875 62.5308 108.875 63.335ZM117.503 67H115.948V56.7432H117.503V67ZM121.274 67H119.718V56.7432H121.274V67ZM126.396 59.5645C127.046 59.5645 127.604 59.6985 128.07 59.9666C128.536 60.2346 128.894 60.6147 129.145 61.1069C129.395 61.5991 129.52 62.188 129.52 62.8735V63.7041H124.649C124.667 64.4116 124.855 64.9565 125.216 65.3389C125.581 65.7212 126.09 65.9124 126.745 65.9124C127.211 65.9124 127.628 65.8684 127.998 65.7805C128.371 65.6882 128.756 65.5542 129.151 65.3784V66.6375C128.786 66.8088 128.415 66.9341 128.037 67.0132C127.659 67.0923 127.207 67.1318 126.679 67.1318C125.963 67.1318 125.332 66.9934 124.787 66.7166C124.247 66.4353 123.823 66.0178 123.515 65.4641C123.212 64.9104 123.06 64.2227 123.06 63.4009C123.06 62.5835 123.199 61.8892 123.476 61.3179C123.752 60.7466 124.141 60.3115 124.642 60.0127C125.143 59.7139 125.728 59.5645 126.396 59.5645ZM126.396 60.7312C125.908 60.7312 125.512 60.8894 125.209 61.2058C124.91 61.5222 124.735 61.9858 124.682 62.5967H128.004C128 62.2319 127.938 61.9089 127.82 61.6277C127.705 61.3464 127.53 61.1267 127.292 60.9685C127.059 60.8103 126.76 60.7312 126.396 60.7312ZM134.207 67.1318C133.517 67.1318 132.919 66.9978 132.414 66.7297C131.909 66.4617 131.52 66.0508 131.247 65.4971C130.975 64.9434 130.839 64.2402 130.839 63.3877C130.839 62.5 130.988 61.7749 131.287 61.2124C131.586 60.6499 131.999 60.2346 132.526 59.9666C133.058 59.6985 133.667 59.5645 134.352 59.5645C134.787 59.5645 135.18 59.6084 135.532 59.6963C135.888 59.7798 136.189 59.8831 136.435 60.0061L135.974 61.2454C135.706 61.1355 135.431 61.0432 135.15 60.9685C134.868 60.8938 134.598 60.8564 134.339 60.8564C133.913 60.8564 133.557 60.9509 133.271 61.1399C132.99 61.3289 132.779 61.6101 132.638 61.9836C132.502 62.3572 132.434 62.8208 132.434 63.3745C132.434 63.9106 132.504 64.3633 132.645 64.7324C132.785 65.0972 132.994 65.374 133.271 65.563C133.548 65.7476 133.888 65.8398 134.293 65.8398C134.693 65.8398 135.051 65.7915 135.367 65.6948C135.684 65.5981 135.982 65.4729 136.264 65.3191V66.6638C135.987 66.822 135.69 66.9385 135.374 67.0132C135.057 67.0923 134.668 67.1318 134.207 67.1318ZM140.693 65.8794C140.896 65.8794 141.095 65.8618 141.293 65.8267C141.491 65.7871 141.671 65.741 141.834 65.6882V66.8616C141.662 66.9363 141.44 67 141.168 67.0527C140.896 67.1055 140.612 67.1318 140.318 67.1318C139.905 67.1318 139.533 67.0637 139.204 66.9275C138.874 66.7869 138.613 66.5474 138.419 66.209C138.226 65.8706 138.129 65.4026 138.129 64.8049V60.8828H137.134V60.1907L138.202 59.6436L138.709 58.0813H139.685V59.7029H141.774V60.8828H139.685V64.7852C139.685 65.1543 139.777 65.429 139.962 65.6091C140.146 65.7893 140.39 65.8794 140.693 65.8794ZM144.866 59.7029V67H143.317V59.7029H144.866ZM144.101 56.908C144.339 56.908 144.543 56.9717 144.714 57.0991C144.89 57.2266 144.978 57.4463 144.978 57.7583C144.978 58.0659 144.89 58.2856 144.714 58.4175C144.543 58.5449 144.339 58.6086 144.101 58.6086C143.855 58.6086 143.646 58.5449 143.475 58.4175C143.308 58.2856 143.225 58.0659 143.225 57.7583C143.225 57.4463 143.308 57.2266 143.475 57.0991C143.646 56.9717 143.855 56.908 144.101 56.908ZM153.547 63.335C153.547 63.9414 153.468 64.4797 153.31 64.95C153.152 65.4202 152.921 65.8179 152.618 66.1431C152.315 66.4639 151.95 66.71 151.524 66.8813C151.097 67.0483 150.616 67.1318 150.08 67.1318C149.579 67.1318 149.12 67.0483 148.702 66.8813C148.285 66.71 147.922 66.4639 147.615 66.1431C147.312 65.8179 147.076 65.4202 146.909 64.95C146.742 64.4797 146.659 63.9414 146.659 63.335C146.659 62.5308 146.797 61.8496 147.074 61.2915C147.355 60.729 147.755 60.3005 148.274 60.0061C148.792 59.7117 149.41 59.5645 150.126 59.5645C150.799 59.5645 151.392 59.7117 151.906 60.0061C152.42 60.3005 152.822 60.729 153.112 61.2915C153.402 61.854 153.547 62.5352 153.547 63.335ZM148.254 63.335C148.254 63.8667 148.318 64.3215 148.445 64.6995C148.577 65.0774 148.779 65.3674 149.052 65.5696C149.324 65.7673 149.676 65.8662 150.106 65.8662C150.537 65.8662 150.889 65.7673 151.161 65.5696C151.434 65.3674 151.634 65.0774 151.761 64.6995C151.888 64.3215 151.952 63.8667 151.952 63.335C151.952 62.8032 151.888 62.3528 151.761 61.9836C151.634 61.6101 151.434 61.3267 151.161 61.1333C150.889 60.9355 150.535 60.8367 150.1 60.8367C149.458 60.8367 148.99 61.052 148.696 61.4827C148.401 61.9133 148.254 62.5308 148.254 63.335ZM159.131 59.5645C159.952 59.5645 160.592 59.7776 161.049 60.2039C161.51 60.6257 161.741 61.3047 161.741 62.2407V67H160.192V62.5308C160.192 61.9639 160.075 61.5398 159.843 61.2585C159.61 60.9729 159.249 60.8301 158.761 60.8301C158.054 60.8301 157.562 61.0476 157.285 61.4827C157.012 61.9177 156.876 62.5483 156.876 63.3745V67H155.327V59.7029H156.533L156.751 60.6917H156.837C156.995 60.4368 157.19 60.228 157.423 60.0654C157.661 59.8984 157.924 59.7732 158.214 59.6897C158.509 59.6062 158.814 59.5645 159.131 59.5645ZM170.917 67H169.328V58.7075H166.507V57.3628H173.731V58.7075H170.917V67ZM181.51 63.335C181.51 63.9414 181.431 64.4797 181.272 64.95C181.114 65.4202 180.884 65.8179 180.58 66.1431C180.277 66.4639 179.912 66.71 179.486 66.8813C179.06 67.0483 178.579 67.1318 178.042 67.1318C177.542 67.1318 177.082 67.0483 176.665 66.8813C176.247 66.71 175.885 66.4639 175.577 66.1431C175.274 65.8179 175.039 65.4202 174.872 64.95C174.705 64.4797 174.621 63.9414 174.621 63.335C174.621 62.5308 174.76 61.8496 175.037 61.2915C175.318 60.729 175.718 60.3005 176.236 60.0061C176.755 59.7117 177.372 59.5645 178.089 59.5645C178.761 59.5645 179.354 59.7117 179.868 60.0061C180.383 60.3005 180.785 60.729 181.075 61.2915C181.365 61.854 181.51 62.5352 181.51 63.335ZM176.217 63.335C176.217 63.8667 176.28 64.3215 176.408 64.6995C176.54 65.0774 176.742 65.3674 177.014 65.5696C177.287 65.7673 177.638 65.8662 178.069 65.8662C178.5 65.8662 178.851 65.7673 179.124 65.5696C179.396 65.3674 179.596 65.0774 179.723 64.6995C179.851 64.3215 179.915 63.8667 179.915 63.335C179.915 62.8032 179.851 62.3528 179.723 61.9836C179.596 61.6101 179.396 61.3267 179.124 61.1333C178.851 60.9355 178.497 60.8367 178.062 60.8367C177.421 60.8367 176.953 61.052 176.658 61.4827C176.364 61.9133 176.217 62.5308 176.217 63.335ZM189.75 63.335C189.75 63.9414 189.67 64.4797 189.512 64.95C189.354 65.4202 189.123 65.8179 188.82 66.1431C188.517 66.4639 188.152 66.71 187.726 66.8813C187.3 67.0483 186.818 67.1318 186.282 67.1318C185.781 67.1318 185.322 67.0483 184.905 66.8813C184.487 66.71 184.125 66.4639 183.817 66.1431C183.514 65.8179 183.279 65.4202 183.112 64.95C182.945 64.4797 182.861 63.9414 182.861 63.335C182.861 62.5308 183 61.8496 183.276 61.2915C183.558 60.729 183.958 60.3005 184.476 60.0061C184.995 59.7117 185.612 59.5645 186.328 59.5645C187.001 59.5645 187.594 59.7117 188.108 60.0061C188.622 60.3005 189.024 60.729 189.314 61.2915C189.604 61.854 189.75 62.5352 189.75 63.335ZM184.456 63.335C184.456 63.8667 184.52 64.3215 184.647 64.6995C184.779 65.0774 184.981 65.3674 185.254 65.5696C185.526 65.7673 185.878 65.8662 186.309 65.8662C186.739 65.8662 187.091 65.7673 187.363 65.5696C187.636 65.3674 187.836 65.0774 187.963 64.6995C188.091 64.3215 188.154 63.8667 188.154 63.335C188.154 62.8032 188.091 62.3528 187.963 61.9836C187.836 61.6101 187.636 61.3267 187.363 61.1333C187.091 60.9355 186.737 60.8367 186.302 60.8367C185.66 60.8367 185.192 61.052 184.898 61.4827C184.604 61.9133 184.456 62.5308 184.456 63.335ZM193.085 67H191.529V56.7432H193.085V67Z" fill="#5A5A5A"/>
<line x1="209" y1="45.5" y2="45.5" stroke="#D9D9D9"/>
<path d="M12.18 5.98H12.1L11.02 8.2L8.16 13.48L5.3 8.2L4.22 5.98H4.14V16H1.64V2.04H4.62L8.2 8.86H8.28L11.82 2.04H14.68V16H12.18V5.98ZM19.1681 2.04H24.2481C25.1548 2.04 25.9748 2.18667 26.7081 2.48C27.4548 2.77333 28.0881 3.21333 28.6081 3.8C29.1415 4.37333 29.5481 5.1 29.8281 5.98C30.1215 6.84667 30.2681 7.86 30.2681 9.02C30.2681 10.18 30.1215 11.2 29.8281 12.08C29.5481 12.9467 29.1415 13.6733 28.6081 14.26C28.0881 14.8333 27.4548 15.2667 26.7081 15.56C25.9748 15.8533 25.1548 16 24.2481 16H19.1681V2.04ZM24.2481 13.66C25.2348 13.66 26.0148 13.3733 26.5881 12.8C27.1748 12.2133 27.4681 11.32 27.4681 10.12V7.92C27.4681 6.72 27.1748 5.83333 26.5881 5.26C26.0148 4.67333 25.2348 4.38 24.2481 4.38H21.8081V13.66H24.2481ZM39.5772 16.24C38.6572 16.24 37.8239 16.0933 37.0772 15.8C36.3439 15.4933 35.7105 15.04 35.1772 14.44C34.6572 13.84 34.2572 13.1 33.9772 12.22C33.6972 11.3267 33.5572 10.2933 33.5572 9.12C33.5572 7.94667 33.6972 6.90667 33.9772 6C34.2572 5.08 34.6572 4.31333 35.1772 3.7C35.7105 3.07333 36.3439 2.6 37.0772 2.28C37.8239 1.96 38.6572 1.8 39.5772 1.8C40.8305 1.8 41.8705 2.06667 42.6972 2.6C43.5239 3.13333 44.1839 3.94 44.6772 5.02L42.4172 6.22C42.2172 5.59333 41.8905 5.09333 41.4372 4.72C40.9839 4.33333 40.3639 4.14 39.5772 4.14C38.5905 4.14 37.8039 4.47333 37.2172 5.14C36.6439 5.80667 36.3572 6.74 36.3572 7.94V10.14C36.3572 11.3533 36.6439 12.2867 37.2172 12.94C37.8039 13.58 38.5905 13.9 39.5772 13.9C40.3639 13.9 41.0039 13.6867 41.4972 13.26C42.0039 12.8333 42.3705 12.3067 42.5972 11.68L44.7372 12.94C44.2305 13.98 43.5572 14.7933 42.7172 15.38C41.8772 15.9533 40.8305 16.24 39.5772 16.24ZM53.6692 4.38V16H51.0292V4.38H47.0692V2.04H57.6292V4.38H53.6692ZM10.1 28.1H4.28V34H1.64V20.04H4.28V25.76H10.1V20.04H12.74V34H10.1V28.1ZM23.435 34.24C22.515 34.24 21.6817 34.0933 20.935 33.8C20.2017 33.4933 19.5683 33.04 19.035 32.44C18.515 31.84 18.115 31.1 17.835 30.22C17.555 29.3267 17.415 28.2933 17.415 27.12C17.415 25.9467 17.555 24.9067 17.835 24C18.115 23.08 18.515 22.3133 19.035 21.7C19.5683 21.0733 20.2017 20.6 20.935 20.28C21.6817 19.96 22.515 19.8 23.435 19.8C24.6883 19.8 25.7283 20.0667 26.555 20.6C27.3817 21.1333 28.0417 21.94 28.535 23.02L26.275 24.22C26.075 23.5933 25.7483 23.0933 25.295 22.72C24.8417 22.3333 24.2217 22.14 23.435 22.14C22.4483 22.14 21.6617 22.4733 21.075 23.14C20.5017 23.8067 20.215 24.74 20.215 25.94V28.14C20.215 29.3533 20.5017 30.2867 21.075 30.94C21.6617 31.58 22.4483 31.9 23.435 31.9C24.2217 31.9 24.8617 31.6867 25.355 31.26C25.8617 30.8333 26.2283 30.3067 26.455 29.68L28.595 30.94C28.0883 31.98 27.415 32.7933 26.575 33.38C25.735 33.9533 24.6883 34.24 23.435 34.24ZM32.847 20.04H39.307C39.8804 20.04 40.3937 20.1267 40.847 20.3C41.3137 20.4733 41.707 20.7133 42.027 21.02C42.347 21.3267 42.587 21.7067 42.747 22.16C42.9204 22.6 43.007 23.0867 43.007 23.62C43.007 24.1533 42.9337 24.6067 42.787 24.98C42.6537 25.34 42.467 25.64 42.227 25.88C42.0004 26.12 41.7337 26.3 41.427 26.42C41.1337 26.54 40.827 26.6067 40.507 26.62V26.74C40.8137 26.74 41.1404 26.8 41.487 26.92C41.847 27.04 42.1737 27.2333 42.467 27.5C42.7737 27.7533 43.027 28.0867 43.227 28.5C43.427 28.9 43.527 29.4 43.527 30C43.527 30.56 43.4337 31.0867 43.247 31.58C43.0737 32.06 42.827 32.48 42.507 32.84C42.187 33.2 41.807 33.4867 41.367 33.7C40.927 33.9 40.447 34 39.927 34H32.847V20.04ZM35.487 31.76H39.167C39.6737 31.76 40.067 31.6333 40.347 31.38C40.627 31.1133 40.767 30.7333 40.767 30.24V29.56C40.767 29.0667 40.627 28.6867 40.347 28.42C40.067 28.1533 39.6737 28.02 39.167 28.02H35.487V31.76ZM35.487 25.86H38.747C39.227 25.86 39.6004 25.7333 39.867 25.48C40.1337 25.2133 40.267 24.8467 40.267 24.38V23.76C40.267 23.2933 40.1337 22.9333 39.867 22.68C39.6004 22.4133 39.227 22.28 38.747 22.28H35.487V25.86ZM52.4488 34.24C51.2488 34.24 50.2288 34.0267 49.3888 33.6C48.5621 33.1733 47.8488 32.6133 47.2488 31.92L49.0288 30.2C49.5088 30.76 50.0421 31.1867 50.6288 31.48C51.2288 31.7733 51.8888 31.92 52.6088 31.92C53.4221 31.92 54.0354 31.7467 54.4488 31.4C54.8621 31.04 55.0688 30.56 55.0688 29.96C55.0688 29.4933 54.9354 29.1133 54.6688 28.82C54.4021 28.5267 53.9021 28.3133 53.1688 28.18L51.8488 27.98C49.0621 27.54 47.6688 26.1867 47.6688 23.92C47.6688 23.2933 47.7821 22.7267 48.0088 22.22C48.2488 21.7133 48.5888 21.28 49.0288 20.92C49.4688 20.56 49.9954 20.2867 50.6088 20.1C51.2354 19.9 51.9421 19.8 52.7288 19.8C53.7821 19.8 54.7021 19.9733 55.4888 20.32C56.2754 20.6667 56.9488 21.18 57.5088 21.86L55.7088 23.56C55.3621 23.1333 54.9421 22.7867 54.4488 22.52C53.9554 22.2533 53.3354 22.12 52.5888 22.12C51.8288 22.12 51.2554 22.2667 50.8688 22.56C50.4954 22.84 50.3088 23.24 50.3088 23.76C50.3088 24.2933 50.4621 24.6867 50.7688 24.94C51.0754 25.1933 51.5688 25.38 52.2488 25.5L53.5488 25.74C54.9621 25.9933 56.0021 26.4467 56.6688 27.1C57.3488 27.74 57.6888 28.64 57.6888 29.8C57.6888 30.4667 57.5688 31.0733 57.3288 31.62C57.1021 32.1533 56.7621 32.62 56.3088 33.02C55.8688 33.4067 55.3221 33.7067 54.6688 33.92C54.0288 34.1333 53.2888 34.24 52.4488 34.24Z" fill="#5A5A5A"/>
<path d="M89.5078 15H87.6406V9.84375H82.375V15H80.5V3.57812H82.375V8.25H87.6406V3.57812H89.5078V15ZM100.16 10.6562C100.16 11.375 100.066 12.013 99.8787 12.5703C99.6912 13.1276 99.4178 13.599 99.0584 13.9844C98.6991 14.3646 98.2668 14.6562 97.7616 14.8594C97.2564 15.0573 96.686 15.1562 96.0506 15.1562C95.4569 15.1562 94.9126 15.0573 94.4178 14.8594C93.923 14.6562 93.4933 14.3646 93.1287 13.9844C92.7694 13.599 92.4907 13.1276 92.2928 12.5703C92.0949 12.013 91.9959 11.375 91.9959 10.6562C91.9959 9.70312 92.16 8.89583 92.4881 8.23438C92.8215 7.56771 93.2954 7.0599 93.91 6.71094C94.5246 6.36198 95.2564 6.1875 96.1053 6.1875C96.9022 6.1875 97.6053 6.36198 98.2147 6.71094C98.8241 7.0599 99.3006 7.56771 99.6444 8.23438C99.9881 8.90104 100.16 9.70833 100.16 10.6562ZM93.8866 10.6562C93.8866 11.2865 93.9621 11.8255 94.1131 12.2734C94.2694 12.7214 94.509 13.0651 94.8319 13.3047C95.1548 13.5391 95.5715 13.6562 96.0819 13.6562C96.5923 13.6562 97.009 13.5391 97.3319 13.3047C97.6548 13.0651 97.8918 12.7214 98.0428 12.2734C98.1939 11.8255 98.2694 11.2865 98.2694 10.6562C98.2694 10.026 98.1939 9.49219 98.0428 9.05469C97.8918 8.61198 97.6548 8.27604 97.3319 8.04688C97.009 7.8125 96.5897 7.69531 96.0741 7.69531C95.3136 7.69531 94.759 7.95052 94.41 8.46094C94.061 8.97135 93.8866 9.70312 93.8866 10.6562ZM112.203 6.1875C113.172 6.1875 113.901 6.4375 114.39 6.9375C114.885 7.4375 115.132 8.23958 115.132 9.34375V15H113.297V9.67188C113.297 9.01562 113.169 8.52083 112.914 8.1875C112.659 7.85417 112.271 7.6875 111.75 7.6875C111.021 7.6875 110.494 7.92188 110.172 8.39062C109.854 8.85417 109.695 9.52865 109.695 10.4141V15H107.859V9.67188C107.859 9.23438 107.802 8.86979 107.687 8.57812C107.578 8.28125 107.409 8.0599 107.179 7.91406C106.95 7.76302 106.661 7.6875 106.312 7.6875C105.807 7.6875 105.403 7.80208 105.101 8.03125C104.804 8.26042 104.591 8.59896 104.461 9.04688C104.33 9.48958 104.265 10.0339 104.265 10.6797V15H102.429V6.35156H103.859L104.117 7.51562H104.218C104.396 7.21354 104.614 6.96615 104.875 6.77344C105.14 6.57552 105.435 6.42969 105.757 6.33594C106.08 6.23698 106.416 6.1875 106.765 6.1875C107.411 6.1875 107.955 6.30208 108.398 6.53125C108.841 6.75521 109.172 7.09896 109.39 7.5625H109.531C109.802 7.09375 110.179 6.7474 110.664 6.52344C111.148 6.29948 111.661 6.1875 112.203 6.1875ZM121.3 6.1875C122.071 6.1875 122.733 6.34635 123.285 6.66406C123.837 6.98177 124.261 7.43229 124.558 8.01562C124.855 8.59896 125.003 9.29688 125.003 10.1094V11.0938H119.23C119.251 11.9323 119.475 12.5781 119.902 13.0312C120.334 13.4844 120.938 13.7109 121.714 13.7109C122.266 13.7109 122.761 13.6589 123.199 13.5547C123.641 13.4453 124.097 13.2865 124.566 13.0781V14.5703C124.134 14.7734 123.694 14.9219 123.246 15.0156C122.798 15.1094 122.261 15.1562 121.636 15.1562C120.787 15.1562 120.04 14.9922 119.394 14.6641C118.753 14.3307 118.251 13.8359 117.886 13.1797C117.527 12.5234 117.347 11.7083 117.347 10.7344C117.347 9.76562 117.511 8.94271 117.839 8.26562C118.167 7.58854 118.628 7.07292 119.222 6.71875C119.816 6.36458 120.509 6.1875 121.3 6.1875ZM121.3 7.57031C120.722 7.57031 120.253 7.75781 119.894 8.13281C119.54 8.50781 119.332 9.05729 119.269 9.78125H123.207C123.201 9.34896 123.128 8.96615 122.988 8.63281C122.852 8.29948 122.644 8.03906 122.363 7.85156C122.087 7.66406 121.733 7.57031 121.3 7.57031ZM135.152 3.40625C135.74 3.40625 136.256 3.5026 136.698 3.69531C137.146 3.88802 137.495 4.16927 137.745 4.53906C137.995 4.90365 138.12 5.34896 138.12 5.875C138.12 6.57812 137.902 7.17188 137.464 7.65625C137.027 8.14062 136.474 8.57292 135.808 8.95312L138.503 11.5781C138.758 11.2292 138.969 10.8464 139.136 10.4297C139.303 10.0078 139.446 9.5651 139.566 9.10156H141.464C141.303 9.7474 141.079 10.3854 140.792 11.0156C140.506 11.6406 140.144 12.2135 139.706 12.7344L142.027 15H139.675L138.519 13.8672C138.196 14.1276 137.849 14.3542 137.48 14.5469C137.115 14.7396 136.717 14.8906 136.284 15C135.852 15.1042 135.376 15.1562 134.855 15.1562C134.058 15.1562 133.37 15.0286 132.792 14.7734C132.214 14.5182 131.769 14.1536 131.456 13.6797C131.149 13.2005 130.995 12.6328 130.995 11.9766C130.995 11.4297 131.086 10.9609 131.269 10.5703C131.456 10.1745 131.722 9.82812 132.066 9.53125C132.409 9.22917 132.821 8.94271 133.3 8.67188C133.04 8.375 132.813 8.08594 132.62 7.80469C132.428 7.52344 132.279 7.23438 132.175 6.9375C132.076 6.63542 132.027 6.3125 132.027 5.96875C132.027 5.4375 132.157 4.98177 132.417 4.60156C132.678 4.21615 133.042 3.92188 133.511 3.71875C133.98 3.51042 134.527 3.40625 135.152 3.40625ZM134.386 9.78906C134.084 9.98177 133.823 10.1771 133.605 10.375C133.386 10.5677 133.217 10.7812 133.097 11.0156C132.982 11.25 132.925 11.5234 132.925 11.8359C132.925 12.3724 133.112 12.7969 133.487 13.1094C133.868 13.4219 134.357 13.5781 134.956 13.5781C135.482 13.5781 135.943 13.5 136.339 13.3438C136.74 13.1823 137.089 12.9818 137.386 12.7422L134.386 9.78906ZM135.12 4.85938C134.751 4.85938 134.43 4.95573 134.159 5.14844C133.894 5.34115 133.761 5.64062 133.761 6.04688C133.761 6.375 133.847 6.6849 134.019 6.97656C134.196 7.26302 134.441 7.57292 134.753 7.90625C135.3 7.60417 135.706 7.30729 135.972 7.01562C136.243 6.72396 136.378 6.38542 136.378 6C136.378 5.63542 136.256 5.35417 136.011 5.15625C135.766 4.95833 135.469 4.85938 135.12 4.85938ZM152.909 5.00781C152.362 5.00781 151.873 5.10677 151.44 5.30469C151.013 5.5026 150.651 5.78906 150.354 6.16406C150.058 6.53385 149.831 6.98438 149.675 7.51562C149.518 8.04167 149.44 8.63542 149.44 9.29688C149.44 10.1823 149.565 10.9453 149.815 11.5859C150.065 12.2214 150.446 12.7109 150.956 13.0547C151.466 13.3932 152.112 13.5625 152.893 13.5625C153.378 13.5625 153.849 13.5156 154.308 13.4219C154.766 13.3281 155.24 13.2005 155.729 13.0391V14.6328C155.266 14.8151 154.797 14.9479 154.323 15.0312C153.849 15.1146 153.302 15.1562 152.683 15.1562C151.516 15.1562 150.547 14.9141 149.776 14.4297C149.011 13.9453 148.438 13.263 148.058 12.3828C147.683 11.5026 147.495 10.4714 147.495 9.28906C147.495 8.42448 147.615 7.63281 147.854 6.91406C148.094 6.19531 148.443 5.57552 148.901 5.05469C149.36 4.52865 149.925 4.125 150.597 3.84375C151.274 3.55729 152.047 3.41406 152.917 3.41406C153.49 3.41406 154.052 3.47917 154.604 3.60938C155.162 3.73438 155.677 3.91406 156.151 4.14844L155.495 5.69531C155.099 5.50781 154.685 5.34635 154.253 5.21094C153.821 5.07552 153.373 5.00781 152.909 5.00781ZM165.811 10.6562C165.811 11.375 165.717 12.013 165.53 12.5703C165.342 13.1276 165.069 13.599 164.71 13.9844C164.35 14.3646 163.918 14.6562 163.413 14.8594C162.908 15.0573 162.337 15.1562 161.702 15.1562C161.108 15.1562 160.564 15.0573 160.069 14.8594C159.574 14.6562 159.145 14.3646 158.78 13.9844C158.421 13.599 158.142 13.1276 157.944 12.5703C157.746 12.013 157.647 11.375 157.647 10.6562C157.647 9.70312 157.811 8.89583 158.139 8.23438C158.473 7.56771 158.947 7.0599 159.561 6.71094C160.176 6.36198 160.908 6.1875 161.757 6.1875C162.553 6.1875 163.257 6.36198 163.866 6.71094C164.475 7.0599 164.952 7.56771 165.296 8.23438C165.639 8.90104 165.811 9.70833 165.811 10.6562ZM159.538 10.6562C159.538 11.2865 159.613 11.8255 159.764 12.2734C159.921 12.7214 160.16 13.0651 160.483 13.3047C160.806 13.5391 161.223 13.6562 161.733 13.6562C162.244 13.6562 162.66 13.5391 162.983 13.3047C163.306 13.0651 163.543 12.7214 163.694 12.2734C163.845 11.8255 163.921 11.2865 163.921 10.6562C163.921 10.026 163.845 9.49219 163.694 9.05469C163.543 8.61198 163.306 8.27604 162.983 8.04688C162.66 7.8125 162.241 7.69531 161.725 7.69531C160.965 7.69531 160.41 7.95052 160.061 8.46094C159.712 8.97135 159.538 9.70312 159.538 10.6562ZM177.854 6.1875C178.823 6.1875 179.552 6.4375 180.042 6.9375C180.536 7.4375 180.784 8.23958 180.784 9.34375V15H178.948V9.67188C178.948 9.01562 178.82 8.52083 178.565 8.1875C178.31 7.85417 177.922 7.6875 177.401 7.6875C176.672 7.6875 176.146 7.92188 175.823 8.39062C175.505 8.85417 175.346 9.52865 175.346 10.4141V15H173.51V9.67188C173.51 9.23438 173.453 8.86979 173.338 8.57812C173.229 8.28125 173.06 8.0599 172.831 7.91406C172.601 7.76302 172.312 7.6875 171.963 7.6875C171.458 7.6875 171.055 7.80208 170.753 8.03125C170.456 8.26042 170.242 8.59896 170.112 9.04688C169.982 9.48958 169.917 10.0339 169.917 10.6797V15H168.081V6.35156H169.51L169.768 7.51562H169.87C170.047 7.21354 170.266 6.96615 170.526 6.77344C170.792 6.57552 171.086 6.42969 171.409 6.33594C171.732 6.23698 172.068 6.1875 172.417 6.1875C173.062 6.1875 173.607 6.30208 174.049 6.53125C174.492 6.75521 174.823 7.09896 175.042 7.5625H175.182C175.453 7.09375 175.831 6.7474 176.315 6.52344C176.799 6.29948 177.312 6.1875 177.854 6.1875ZM193.28 6.1875C194.248 6.1875 194.978 6.4375 195.467 6.9375C195.962 7.4375 196.209 8.23958 196.209 9.34375V15H194.373V9.67188C194.373 9.01562 194.246 8.52083 193.991 8.1875C193.735 7.85417 193.347 7.6875 192.827 7.6875C192.097 7.6875 191.571 7.92188 191.248 8.39062C190.931 8.85417 190.772 9.52865 190.772 10.4141V15H188.936V9.67188C188.936 9.23438 188.879 8.86979 188.764 8.57812C188.655 8.28125 188.485 8.0599 188.256 7.91406C188.027 7.76302 187.738 7.6875 187.389 7.6875C186.884 7.6875 186.48 7.80208 186.178 8.03125C185.881 8.26042 185.668 8.59896 185.537 9.04688C185.407 9.48958 185.342 10.0339 185.342 10.6797V15H183.506V6.35156H184.936L185.194 7.51562H185.295C185.472 7.21354 185.691 6.96615 185.952 6.77344C186.217 6.57552 186.511 6.42969 186.834 6.33594C187.157 6.23698 187.493 6.1875 187.842 6.1875C188.488 6.1875 189.032 6.30208 189.475 6.53125C189.918 6.75521 190.248 7.09896 190.467 7.5625H190.608C190.879 7.09375 191.256 6.7474 191.741 6.52344C192.225 6.29948 192.738 6.1875 193.28 6.1875ZM206.471 6.35156V15H205.026L204.776 13.8359H204.674C204.492 14.1328 204.26 14.3802 203.979 14.5781C203.698 14.7708 203.385 14.9141 203.041 15.0078C202.698 15.1068 202.336 15.1562 201.955 15.1562C201.304 15.1562 200.747 15.0469 200.283 14.8281C199.825 14.6042 199.474 14.2604 199.229 13.7969C198.984 13.3333 198.862 12.7344 198.862 12V6.35156H200.705V11.6562C200.705 12.3281 200.841 12.8307 201.112 13.1641C201.388 13.4974 201.815 13.6641 202.393 13.6641C202.95 13.6641 203.393 13.5495 203.721 13.3203C204.049 13.0911 204.281 12.7526 204.416 12.3047C204.557 11.8568 204.627 11.3073 204.627 10.6562V6.35156H206.471ZM213.772 6.1875C214.746 6.1875 215.503 6.4401 216.045 6.94531C216.592 7.44531 216.865 8.25 216.865 9.35938V15H215.029V9.70312C215.029 9.03125 214.891 8.52865 214.615 8.19531C214.339 7.85677 213.912 7.6875 213.334 7.6875C212.496 7.6875 211.912 7.94531 211.584 8.46094C211.261 8.97656 211.1 9.72396 211.1 10.7031V15H209.264V6.35156H210.693L210.951 7.52344H211.053C211.24 7.22135 211.472 6.97396 211.748 6.78125C212.029 6.58333 212.342 6.4349 212.686 6.33594C213.035 6.23698 213.397 6.1875 213.772 6.1875ZM221.432 6.35156V15H219.596V6.35156H221.432ZM220.525 3.03906C220.807 3.03906 221.049 3.11458 221.252 3.26562C221.46 3.41667 221.564 3.67708 221.564 4.04688C221.564 4.41146 221.46 4.67188 221.252 4.82812C221.049 4.97917 220.807 5.05469 220.525 5.05469C220.234 5.05469 219.986 4.97917 219.783 4.82812C219.585 4.67188 219.486 4.41146 219.486 4.04688C219.486 3.67708 219.585 3.41667 219.783 3.26562C219.986 3.11458 220.234 3.03906 220.525 3.03906ZM227.443 13.6719C227.683 13.6719 227.92 13.651 228.154 13.6094C228.388 13.5625 228.602 13.5078 228.795 13.4453V14.8359C228.592 14.9245 228.329 15 228.006 15.0625C227.683 15.125 227.347 15.1562 226.998 15.1562C226.508 15.1562 226.068 15.0755 225.678 14.9141C225.287 14.7474 224.977 14.4635 224.748 14.0625C224.519 13.6615 224.404 13.1068 224.404 12.3984V7.75H223.224V6.92969L224.49 6.28125L225.092 4.42969H226.248V6.35156H228.724V7.75H226.248V12.375C226.248 12.8125 226.357 13.138 226.576 13.3516C226.795 13.5651 227.084 13.6719 227.443 13.6719ZM229.408 6.35156H231.408L233.181 11.2891C233.259 11.513 233.33 11.7344 233.392 11.9531C233.46 12.1667 233.517 12.3776 233.564 12.5859C233.616 12.7943 233.658 13.0026 233.689 13.2109H233.736C233.788 12.9401 233.861 12.638 233.955 12.3047C234.054 11.9661 234.163 11.6276 234.283 11.2891L235.986 6.35156H237.962L234.252 16.1875C234.038 16.75 233.775 17.2292 233.462 17.625C233.155 18.026 232.791 18.3281 232.369 18.5312C231.947 18.7396 231.465 18.8438 230.923 18.8438C230.663 18.8438 230.436 18.8281 230.244 18.7969C230.051 18.7708 229.887 18.7422 229.752 18.7109V17.2422C229.861 17.2682 229.999 17.2917 230.166 17.3125C230.332 17.3333 230.504 17.3438 230.681 17.3438C231.009 17.3438 231.293 17.2786 231.533 17.1484C231.772 17.0182 231.976 16.8333 232.142 16.5938C232.309 16.3594 232.447 16.0911 232.556 15.7891L232.861 14.9766L229.408 6.35156ZM80.5 21.5781H83.8984C85.3724 21.5781 86.4844 21.7917 87.2344 22.2188C87.9844 22.6458 88.3594 23.3828 88.3594 24.4297C88.3594 24.8672 88.2812 25.263 88.125 25.6172C87.974 25.9661 87.7526 26.2552 87.4609 26.4844C87.1693 26.7083 86.8099 26.8594 86.3828 26.9375V27.0156C86.8255 27.0938 87.2188 27.2318 87.5625 27.4297C87.9115 27.6276 88.1849 27.9115 88.3828 28.2812C88.5859 28.651 88.6875 29.1302 88.6875 29.7188C88.6875 30.4167 88.5208 31.0104 88.1875 31.5C87.8594 31.9896 87.388 32.362 86.7734 32.6172C86.1641 32.8724 85.4401 33 84.6016 33H80.5V21.5781ZM82.375 26.2891H84.1719C85.0208 26.2891 85.6094 26.151 85.9375 25.875C86.2656 25.599 86.4297 25.1953 86.4297 24.6641C86.4297 24.1224 86.2344 23.7318 85.8438 23.4922C85.4583 23.2526 84.8438 23.1328 84 23.1328H82.375V26.2891ZM82.375 27.8047V31.4297H84.3516C85.2266 31.4297 85.8411 31.2604 86.1953 30.9219C86.5495 30.5833 86.7266 30.125 86.7266 29.5469C86.7266 29.1927 86.6458 28.8854 86.4844 28.625C86.3281 28.3646 86.0703 28.1641 85.7109 28.0234C85.3516 27.8776 84.8672 27.8047 84.2578 27.8047H82.375ZM94.41 24.1875C95.5037 24.1875 96.3293 24.4297 96.8866 24.9141C97.4491 25.3984 97.7303 26.1536 97.7303 27.1797V33H96.4256L96.0741 31.7734H96.0116C95.7668 32.0859 95.5142 32.3438 95.2537 32.5469C94.9933 32.75 94.6912 32.901 94.3475 33C94.009 33.1042 93.5949 33.1562 93.1053 33.1562C92.5897 33.1562 92.1287 33.0625 91.7225 32.875C91.3162 32.6823 90.9959 32.3906 90.7616 32C90.5272 31.6094 90.41 31.1146 90.41 30.5156C90.41 29.625 90.7407 28.9557 91.4022 28.5078C92.0689 28.0599 93.0741 27.8125 94.4178 27.7656L95.9178 27.7109V27.2578C95.9178 26.6589 95.7772 26.2318 95.4959 25.9766C95.2199 25.7214 94.8293 25.5938 94.3241 25.5938C93.8918 25.5938 93.4725 25.6562 93.0662 25.7812C92.66 25.9062 92.2642 26.0599 91.8787 26.2422L91.285 24.9453C91.7069 24.7214 92.186 24.5391 92.7225 24.3984C93.2642 24.2578 93.8267 24.1875 94.41 24.1875ZM95.91 28.8672L94.7928 28.9062C93.8761 28.9375 93.2329 29.0938 92.8631 29.375C92.4933 29.6562 92.3084 30.0417 92.3084 30.5312C92.3084 30.9583 92.436 31.2708 92.6912 31.4688C92.9465 31.6615 93.2824 31.7578 93.6991 31.7578C94.3345 31.7578 94.8605 31.5781 95.2772 31.2188C95.6991 30.8542 95.91 30.3203 95.91 29.6172V28.8672ZM106.273 30.5312C106.273 31.099 106.135 31.5781 105.859 31.9688C105.583 32.3594 105.179 32.6562 104.648 32.8594C104.122 33.0573 103.476 33.1562 102.711 33.1562C102.106 33.1562 101.586 33.112 101.148 33.0234C100.716 32.9401 100.307 32.8099 99.9216 32.6328V31.0469C100.333 31.2396 100.794 31.4062 101.304 31.5469C101.82 31.6875 102.307 31.7578 102.765 31.7578C103.369 31.7578 103.804 31.6641 104.07 31.4766C104.336 31.2839 104.468 31.0286 104.468 30.7109C104.468 30.5234 104.414 30.3568 104.304 30.2109C104.2 30.0599 104.002 29.9062 103.711 29.75C103.424 29.5885 103.002 29.3958 102.445 29.1719C101.898 28.9531 101.437 28.7344 101.062 28.5156C100.687 28.2969 100.403 28.0339 100.211 27.7266C100.018 27.4141 99.9216 27.0156 99.9216 26.5312C99.9216 25.7656 100.224 25.1849 100.828 24.7891C101.437 24.388 102.242 24.1875 103.242 24.1875C103.773 24.1875 104.273 24.2422 104.742 24.3516C105.216 24.4557 105.679 24.6094 106.132 24.8125L105.554 26.1953C105.164 26.0234 104.771 25.8828 104.375 25.7734C103.984 25.6589 103.586 25.6016 103.179 25.6016C102.705 25.6016 102.343 25.6745 102.093 25.8203C101.849 25.9661 101.726 26.1745 101.726 26.4453C101.726 26.6484 101.786 26.8203 101.906 26.9609C102.026 27.1016 102.231 27.2422 102.523 27.3828C102.82 27.5234 103.231 27.6979 103.757 27.9062C104.273 28.1042 104.718 28.3125 105.093 28.5312C105.474 28.7448 105.765 29.0078 105.968 29.3203C106.172 29.6328 106.273 30.0365 106.273 30.5312ZM111.863 24.1875C112.634 24.1875 113.295 24.3464 113.847 24.6641C114.399 24.9818 114.824 25.4323 115.121 26.0156C115.417 26.599 115.566 27.2969 115.566 28.1094V29.0938H109.792C109.813 29.9323 110.037 30.5781 110.464 31.0312C110.897 31.4844 111.501 31.7109 112.277 31.7109C112.829 31.7109 113.324 31.6589 113.761 31.5547C114.204 31.4453 114.66 31.2865 115.128 31.0781V32.5703C114.696 32.7734 114.256 32.9219 113.808 33.0156C113.36 33.1094 112.824 33.1562 112.199 33.1562C111.35 33.1562 110.602 32.9922 109.957 32.6641C109.316 32.3307 108.813 31.8359 108.449 31.1797C108.089 30.5234 107.91 29.7083 107.91 28.7344C107.91 27.7656 108.074 26.9427 108.402 26.2656C108.73 25.5885 109.191 25.0729 109.785 24.7188C110.378 24.3646 111.071 24.1875 111.863 24.1875ZM111.863 25.5703C111.285 25.5703 110.816 25.7578 110.457 26.1328C110.102 26.5078 109.894 27.0573 109.832 27.7812H113.769C113.764 27.349 113.691 26.9661 113.55 26.6328C113.415 26.2995 113.207 26.0391 112.925 25.8516C112.649 25.6641 112.295 25.5703 111.863 25.5703ZM120.702 33.1562C119.671 33.1562 118.843 32.7812 118.218 32.0312C117.598 31.276 117.288 30.1641 117.288 28.6953C117.288 27.2109 117.604 26.0885 118.234 25.3281C118.869 24.5677 119.705 24.1875 120.742 24.1875C121.179 24.1875 121.562 24.2474 121.89 24.3672C122.218 24.4818 122.499 24.638 122.734 24.8359C122.973 25.0339 123.176 25.2552 123.343 25.5H123.429C123.403 25.3385 123.372 25.1068 123.335 24.8047C123.304 24.4974 123.288 24.2135 123.288 23.9531V20.8438H125.132V33H123.695L123.367 31.8203H123.288C123.132 32.0703 122.934 32.2969 122.695 32.5C122.46 32.6979 122.179 32.8568 121.851 32.9766C121.528 33.0964 121.145 33.1562 120.702 33.1562ZM121.218 31.6641C122.005 31.6641 122.559 31.4375 122.882 30.9844C123.205 30.5312 123.372 29.8516 123.382 28.9453V28.7031C123.382 27.7344 123.226 26.9922 122.913 26.4766C122.601 25.9557 122.031 25.6953 121.202 25.6953C120.541 25.6953 120.036 25.9635 119.687 26.5C119.343 27.0312 119.171 27.7734 119.171 28.7266C119.171 29.6797 119.343 30.4089 119.687 30.9141C120.036 31.4141 120.546 31.6641 121.218 31.6641ZM139.022 29.8906C139.022 30.5677 138.856 31.151 138.522 31.6406C138.194 32.1302 137.72 32.5052 137.101 32.7656C136.486 33.026 135.752 33.1562 134.897 33.1562C134.481 33.1562 134.082 33.1328 133.702 33.0859C133.322 33.0391 132.963 32.9714 132.624 32.8828C132.291 32.7891 131.986 32.6771 131.71 32.5469V30.7812C132.174 30.9844 132.692 31.1693 133.265 31.3359C133.838 31.4974 134.421 31.5781 135.015 31.5781C135.499 31.5781 135.9 31.5156 136.218 31.3906C136.541 31.2604 136.78 31.0781 136.937 30.8438C137.093 30.6042 137.171 30.3255 137.171 30.0078C137.171 29.6693 137.08 29.3828 136.897 29.1484C136.715 28.9141 136.439 28.7005 136.069 28.5078C135.705 28.3099 135.246 28.099 134.694 27.875C134.319 27.724 133.96 27.5521 133.616 27.3594C133.278 27.1667 132.976 26.9401 132.71 26.6797C132.444 26.4193 132.233 26.112 132.077 25.7578C131.926 25.3984 131.851 24.9766 131.851 24.4922C131.851 23.8464 132.004 23.2943 132.312 22.8359C132.624 22.3776 133.062 22.026 133.624 21.7812C134.192 21.5365 134.853 21.4141 135.608 21.4141C136.207 21.4141 136.77 21.4766 137.296 21.6016C137.827 21.7266 138.348 21.9036 138.858 22.1328L138.265 23.6406C137.796 23.4479 137.34 23.2943 136.897 23.1797C136.46 23.0651 136.012 23.0078 135.554 23.0078C135.158 23.0078 134.822 23.0677 134.546 23.1875C134.27 23.3073 134.059 23.4766 133.913 23.6953C133.772 23.9089 133.702 24.1641 133.702 24.4609C133.702 24.7943 133.783 25.0755 133.944 25.3047C134.111 25.5286 134.366 25.7344 134.71 25.9219C135.059 26.1094 135.507 26.3177 136.054 26.5469C136.684 26.8073 137.218 27.0807 137.655 27.3672C138.098 27.6536 138.437 27.9974 138.671 28.3984C138.905 28.7943 139.022 29.2917 139.022 29.8906ZM144.643 24.1875C145.414 24.1875 146.076 24.3464 146.628 24.6641C147.18 24.9818 147.604 25.4323 147.901 26.0156C148.198 26.599 148.347 27.2969 148.347 28.1094V29.0938H142.573C142.594 29.9323 142.818 30.5781 143.245 31.0312C143.677 31.4844 144.281 31.7109 145.057 31.7109C145.61 31.7109 146.104 31.6589 146.542 31.5547C146.985 31.4453 147.44 31.2865 147.909 31.0781V32.5703C147.477 32.7734 147.037 32.9219 146.589 33.0156C146.141 33.1094 145.604 33.1562 144.979 33.1562C144.13 33.1562 143.383 32.9922 142.737 32.6641C142.097 32.3307 141.594 31.8359 141.229 31.1797C140.87 30.5234 140.69 29.7083 140.69 28.7344C140.69 27.7656 140.854 26.9427 141.182 26.2656C141.511 25.5885 141.972 25.0729 142.565 24.7188C143.159 24.3646 143.852 24.1875 144.643 24.1875ZM144.643 25.5703C144.065 25.5703 143.597 25.7578 143.237 26.1328C142.883 26.5078 142.675 27.0573 142.612 27.7812H146.55C146.544 27.349 146.472 26.9661 146.331 26.6328C146.196 26.2995 145.987 26.0391 145.706 25.8516C145.43 25.6641 145.076 25.5703 144.643 25.5703ZM154.96 24.1875C155.106 24.1875 155.264 24.1953 155.436 24.2109C155.608 24.2266 155.757 24.2474 155.882 24.2734L155.71 25.9922C155.6 25.9609 155.465 25.9375 155.303 25.9219C155.147 25.9062 155.007 25.8984 154.882 25.8984C154.553 25.8984 154.241 25.9531 153.944 26.0625C153.647 26.1667 153.384 26.3281 153.155 26.5469C152.926 26.7604 152.746 27.0286 152.616 27.3516C152.486 27.6745 152.421 28.0495 152.421 28.4766V33H150.577V24.3516H152.014L152.264 25.875H152.35C152.522 25.5677 152.736 25.2865 152.991 25.0312C153.246 24.776 153.538 24.5729 153.866 24.4219C154.199 24.2656 154.564 24.1875 154.96 24.1875ZM159.62 33L156.331 24.3516H158.276L160.057 29.4297C160.172 29.7526 160.276 30.1016 160.37 30.4766C160.463 30.8516 160.529 31.1667 160.565 31.4219H160.628C160.664 31.1562 160.734 30.8385 160.838 30.4688C160.943 30.0938 161.049 29.7474 161.159 29.4297L162.94 24.3516H164.878L161.588 33H159.62ZM168.186 24.3516V33H166.35V24.3516H168.186ZM167.28 21.0391C167.561 21.0391 167.803 21.1146 168.006 21.2656C168.215 21.4167 168.319 21.6771 168.319 22.0469C168.319 22.4115 168.215 22.6719 168.006 22.8281C167.803 22.9792 167.561 23.0547 167.28 23.0547C166.988 23.0547 166.741 22.9792 166.537 22.8281C166.34 22.6719 166.241 22.4115 166.241 22.0469C166.241 21.6771 166.34 21.4167 166.537 21.2656C166.741 21.1146 166.988 21.0391 167.28 21.0391ZM174.463 33.1562C173.645 33.1562 172.937 32.9974 172.338 32.6797C171.739 32.362 171.278 31.875 170.955 31.2188C170.632 30.5625 170.471 29.7292 170.471 28.7188C170.471 27.6667 170.648 26.8073 171.002 26.1406C171.356 25.474 171.846 24.9818 172.471 24.6641C173.101 24.3464 173.823 24.1875 174.635 24.1875C175.151 24.1875 175.617 24.2396 176.033 24.3438C176.455 24.4427 176.812 24.5651 177.104 24.7109L176.557 26.1797C176.239 26.0495 175.914 25.9401 175.58 25.8516C175.247 25.763 174.927 25.7188 174.619 25.7188C174.114 25.7188 173.692 25.8307 173.354 26.0547C173.02 26.2786 172.77 26.612 172.604 27.0547C172.442 27.4974 172.362 28.0469 172.362 28.7031C172.362 29.3385 172.445 29.875 172.612 30.3125C172.778 30.7448 173.026 31.0729 173.354 31.2969C173.682 31.5156 174.086 31.625 174.565 31.625C175.039 31.625 175.463 31.5677 175.838 31.4531C176.213 31.3385 176.567 31.1901 176.901 31.0078V32.6016C176.573 32.7891 176.221 32.9271 175.846 33.0156C175.471 33.1094 175.01 33.1562 174.463 33.1562ZM182.537 24.1875C183.308 24.1875 183.969 24.3464 184.522 24.6641C185.074 24.9818 185.498 25.4323 185.795 26.0156C186.092 26.599 186.24 27.2969 186.24 28.1094V29.0938H180.467C180.488 29.9323 180.712 30.5781 181.139 31.0312C181.571 31.4844 182.175 31.7109 182.951 31.7109C183.503 31.7109 183.998 31.6589 184.436 31.5547C184.878 31.4453 185.334 31.2865 185.803 31.0781V32.5703C185.371 32.7734 184.93 32.9219 184.482 33.0156C184.035 33.1094 183.498 33.1562 182.873 33.1562C182.024 33.1562 181.277 32.9922 180.631 32.6641C179.99 32.3307 179.488 31.8359 179.123 31.1797C178.764 30.5234 178.584 29.7083 178.584 28.7344C178.584 27.7656 178.748 26.9427 179.076 26.2656C179.404 25.5885 179.865 25.0729 180.459 24.7188C181.053 24.3646 181.746 24.1875 182.537 24.1875ZM182.537 25.5703C181.959 25.5703 181.49 25.7578 181.131 26.1328C180.777 26.5078 180.568 27.0573 180.506 27.7812H184.443C184.438 27.349 184.365 26.9661 184.225 26.6328C184.089 26.2995 183.881 26.0391 183.6 25.8516C183.324 25.6641 182.969 25.5703 182.537 25.5703ZM194.283 30.5312C194.283 31.099 194.145 31.5781 193.869 31.9688C193.593 32.3594 193.189 32.6562 192.658 32.8594C192.132 33.0573 191.486 33.1562 190.721 33.1562C190.116 33.1562 189.596 33.112 189.158 33.0234C188.726 32.9401 188.317 32.8099 187.932 32.6328V31.0469C188.343 31.2396 188.804 31.4062 189.314 31.5469C189.83 31.6875 190.317 31.7578 190.775 31.7578C191.379 31.7578 191.814 31.6641 192.08 31.4766C192.346 31.2839 192.478 31.0286 192.478 30.7109C192.478 30.5234 192.424 30.3568 192.314 30.2109C192.21 30.0599 192.012 29.9062 191.721 29.75C191.434 29.5885 191.012 29.3958 190.455 29.1719C189.908 28.9531 189.447 28.7344 189.072 28.5156C188.697 28.2969 188.413 28.0339 188.221 27.7266C188.028 27.4141 187.932 27.0156 187.932 26.5312C187.932 25.7656 188.234 25.1849 188.838 24.7891C189.447 24.388 190.252 24.1875 191.252 24.1875C191.783 24.1875 192.283 24.2422 192.752 24.3516C193.226 24.4557 193.689 24.6094 194.143 24.8125L193.564 26.1953C193.174 26.0234 192.781 25.8828 192.385 25.7734C191.994 25.6589 191.596 25.6016 191.189 25.6016C190.715 25.6016 190.353 25.6745 190.103 25.8203C189.859 25.9661 189.736 26.1745 189.736 26.4453C189.736 26.6484 189.796 26.8203 189.916 26.9609C190.036 27.1016 190.241 27.2422 190.533 27.3828C190.83 27.5234 191.241 27.6979 191.768 27.9062C192.283 28.1042 192.728 28.3125 193.103 28.5312C193.484 28.7448 193.775 29.0078 193.978 29.3203C194.182 29.6328 194.283 30.0365 194.283 30.5312Z" fill="#5A5A5A"/>
<line x1="68.5" y1="1" x2="68.5" y2="35" stroke="#D9D9D9"/>
</svg>
