<svg width="283" height="39" viewBox="0 0 283 39" fill="none" xmlns="http://www.w3.org/2000/svg">
<g clip-path="url(#clip0_6673_1055)">
<path d="M12.18 5.98H12.1L11.02 8.2L8.16 13.48L5.3 8.2L4.22 5.98H4.14V16H1.64V2.04H4.62L8.2 8.86H8.28L11.82 2.04H14.68V16H12.18V5.98ZM19.1681 2.04H24.2481C25.1548 2.04 25.9748 2.18667 26.7081 2.48C27.4548 2.77333 28.0881 3.21333 28.6081 3.8C29.1415 4.37333 29.5481 5.1 29.8281 5.98C30.1215 6.84667 30.2681 7.86 30.2681 9.02C30.2681 10.18 30.1215 11.2 29.8281 12.08C29.5481 12.9467 29.1415 13.6733 28.6081 14.26C28.0881 14.8333 27.4548 15.2667 26.7081 15.56C25.9748 15.8533 25.1548 16 24.2481 16H19.1681V2.04ZM24.2481 13.66C25.2348 13.66 26.0148 13.3733 26.5881 12.8C27.1748 12.2133 27.4681 11.32 27.4681 10.12V7.92C27.4681 6.72 27.1748 5.83333 26.5881 5.26C26.0148 4.67333 25.2348 4.38 24.2481 4.38H21.8081V13.66H24.2481ZM39.5772 16.24C38.6572 16.24 37.8239 16.0933 37.0772 15.8C36.3439 15.4933 35.7105 15.04 35.1772 14.44C34.6572 13.84 34.2572 13.1 33.9772 12.22C33.6972 11.3267 33.5572 10.2933 33.5572 9.12C33.5572 7.94667 33.6972 6.90667 33.9772 6C34.2572 5.08 34.6572 4.31333 35.1772 3.7C35.7105 3.07333 36.3439 2.6 37.0772 2.28C37.8239 1.96 38.6572 1.8 39.5772 1.8C40.8305 1.8 41.8705 2.06667 42.6972 2.6C43.5239 3.13333 44.1839 3.94 44.6772 5.02L42.4172 6.22C42.2172 5.59333 41.8905 5.09333 41.4372 4.72C40.9839 4.33333 40.3639 4.14 39.5772 4.14C38.5905 4.14 37.8039 4.47333 37.2172 5.14C36.6439 5.80667 36.3572 6.74 36.3572 7.94V10.14C36.3572 11.3533 36.6439 12.2867 37.2172 12.94C37.8039 13.58 38.5905 13.9 39.5772 13.9C40.3639 13.9 41.0039 13.6867 41.4972 13.26C42.0039 12.8333 42.3705 12.3067 42.5972 11.68L44.7372 12.94C44.2305 13.98 43.5572 14.7933 42.7172 15.38C41.8772 15.9533 40.8305 16.24 39.5772 16.24ZM53.6692 4.38V16H51.0292V4.38H47.0692V2.04H57.6292V4.38H53.6692ZM4.28 34H1.64V20.04H7.94C8.58 20.04 9.15333 20.14 9.66 20.34C10.1667 20.54 10.5933 20.8333 10.94 21.22C11.3 21.5933 11.5733 22.0467 11.76 22.58C11.96 23.1133 12.06 23.7067 12.06 24.36C12.06 25.32 11.84 26.1467 11.4 26.84C10.9733 27.5333 10.3267 28.0267 9.46 28.32L12.32 34H9.38L6.78 28.62H4.28V34ZM7.68 26.4C8.18667 26.4 8.58667 26.2667 8.88 26C9.17333 25.72 9.32 25.3267 9.32 24.82V23.9C9.32 23.3933 9.17333 23.0067 8.88 22.74C8.58667 22.4733 8.18667 22.34 7.68 22.34H4.28V26.4H7.68ZM25.3812 28.1H19.5613V34H16.9213V20.04H19.5613V25.76H25.3812V20.04H28.0213V34H25.3812V28.1ZM38.7763 22.38V34H36.1363V22.38H32.1763V20.04H42.7363V22.38H38.7763ZM46.8978 34V20.04H53.1778C53.8178 20.04 54.3911 20.1467 54.8978 20.36C55.4178 20.56 55.8578 20.8533 56.2178 21.24C56.5778 21.6133 56.8511 22.0667 57.0378 22.6C57.2245 23.1333 57.3178 23.72 57.3178 24.36C57.3178 25.0133 57.2245 25.6067 57.0378 26.14C56.8511 26.66 56.5778 27.1133 56.2178 27.5C55.8578 27.8733 55.4178 28.1667 54.8978 28.38C54.3911 28.58 53.8178 28.68 53.1778 28.68H49.5378V34H46.8978ZM49.5378 26.4H52.9378C53.4445 26.4 53.8445 26.2667 54.1378 26C54.4311 25.72 54.5778 25.3267 54.5778 24.82V23.9C54.5778 23.3933 54.4311 23.0067 54.1378 22.74C53.8445 22.4733 53.4445 22.34 52.9378 22.34H49.5378V26.4Z" fill="white"/>
<path d="M82.8276 4.71973C83.6274 4.71973 84.2876 4.81706 84.8081 5.01172C85.3328 5.20638 85.7222 5.5026 85.9761 5.90039C86.2342 6.29818 86.3633 6.80387 86.3633 7.41748C86.3633 7.87451 86.2786 8.26383 86.1094 8.58545C85.9401 8.90706 85.7179 9.17367 85.4429 9.38525C85.1678 9.59684 84.8737 9.76611 84.5605 9.89307L87.1948 14H85.4746L83.2339 10.2803H81.7422V14H80.2188V4.71973H82.8276ZM82.7261 5.98926H81.7422V9.02344H82.7959C83.5026 9.02344 84.0146 8.89225 84.332 8.62988C84.6536 8.36751 84.8145 7.98031 84.8145 7.46826C84.8145 6.93083 84.6431 6.54997 84.3003 6.32568C83.9618 6.1014 83.437 5.98926 82.7261 5.98926ZM94.6246 6.97314V14H93.4503L93.2472 13.0542H93.1647C93.0166 13.2954 92.8282 13.4964 92.5997 13.6572C92.3712 13.8138 92.1173 13.9302 91.838 14.0063C91.5587 14.0868 91.2646 14.127 90.9557 14.127C90.4267 14.127 89.9739 14.0381 89.5973 13.8604C89.2249 13.6784 88.9392 13.3991 88.7404 13.0225C88.5415 12.6458 88.442 12.1592 88.442 11.5625V6.97314H89.9401V11.2832C89.9401 11.8291 90.0501 12.2375 90.2701 12.5083C90.4944 12.7791 90.8414 12.9146 91.3112 12.9146C91.764 12.9146 92.1237 12.8215 92.3903 12.6353C92.6569 12.4491 92.8452 12.174 92.9552 11.8101C93.0695 11.4461 93.1266 10.9997 93.1266 10.4707V6.97314H94.6246ZM100.455 6.83984C100.573 6.83984 100.702 6.84619 100.842 6.85889C100.982 6.87158 101.102 6.88851 101.204 6.90967L101.064 8.30615C100.975 8.28076 100.865 8.26172 100.734 8.24902C100.607 8.23633 100.493 8.22998 100.391 8.22998C100.125 8.22998 99.8708 8.27441 99.6296 8.36328C99.3884 8.44792 99.1747 8.5791 98.9885 8.75684C98.8023 8.93034 98.6563 9.14827 98.5505 9.41064C98.4447 9.67301 98.3918 9.9777 98.3918 10.3247V14H96.8938V6.97314H98.0618L98.2649 8.21094H98.3347C98.4744 7.96126 98.6479 7.73275 98.8552 7.52539C99.0626 7.31803 99.2996 7.15299 99.5662 7.03027C99.837 6.90332 100.133 6.83984 100.455 6.83984ZM105.39 6.83984C106.279 6.83984 106.949 7.03662 107.402 7.43018C107.859 7.82373 108.088 8.43734 108.088 9.271V14H107.028L106.742 13.0034H106.691C106.492 13.2573 106.287 13.4668 106.076 13.6318C105.864 13.7969 105.619 13.9196 105.339 14C105.064 14.0846 104.728 14.127 104.33 14.127C103.911 14.127 103.536 14.0508 103.206 13.8984C102.876 13.7419 102.616 13.5049 102.426 13.1875C102.235 12.8701 102.14 12.4681 102.14 11.9814C102.14 11.2578 102.409 10.714 102.946 10.3501C103.488 9.98617 104.305 9.78516 105.396 9.74707L106.615 9.70264V9.33447C106.615 8.84782 106.501 8.50081 106.272 8.29346C106.048 8.0861 105.731 7.98242 105.32 7.98242C104.969 7.98242 104.628 8.0332 104.298 8.13477C103.968 8.23633 103.647 8.36117 103.333 8.50928L102.851 7.45557C103.194 7.2736 103.583 7.12549 104.019 7.01123C104.459 6.89697 104.916 6.83984 105.39 6.83984ZM106.609 10.6421L105.701 10.6738C104.956 10.6992 104.434 10.8262 104.133 11.0547C103.833 11.2832 103.682 11.5964 103.682 11.9941C103.682 12.3411 103.786 12.5951 103.994 12.7559C104.201 12.9124 104.474 12.9907 104.812 12.9907C105.329 12.9907 105.756 12.8447 106.095 12.5527C106.437 12.2565 106.609 11.8228 106.609 11.2515V10.6421ZM111.804 14H110.306V4.12305H111.804V14ZM125.045 14H123.528V9.81055H119.25V14H117.726V4.71973H119.25V8.51562H123.528V4.71973H125.045V14ZM130.279 6.83984C130.905 6.83984 131.442 6.96891 131.891 7.22705C132.34 7.48519 132.684 7.85124 132.926 8.3252C133.167 8.79915 133.287 9.36621 133.287 10.0264V10.8262H128.597C128.613 11.5075 128.795 12.0322 129.142 12.4004C129.494 12.7686 129.985 12.9526 130.615 12.9526C131.064 12.9526 131.466 12.9103 131.821 12.8257C132.181 12.7368 132.551 12.6077 132.932 12.4385V13.6509C132.581 13.8159 132.223 13.9365 131.859 14.0127C131.495 14.0889 131.059 14.127 130.552 14.127C129.862 14.127 129.255 13.9937 128.73 13.7271C128.209 13.4562 127.801 13.0542 127.505 12.521C127.213 11.9878 127.067 11.3255 127.067 10.5342C127.067 9.74707 127.2 9.07845 127.467 8.52832C127.733 7.97819 128.108 7.55924 128.59 7.27148C129.073 6.98372 129.635 6.83984 130.279 6.83984ZM130.279 7.96338C129.809 7.96338 129.428 8.11572 129.136 8.42041C128.848 8.7251 128.679 9.17155 128.628 9.75977H131.827C131.823 9.40853 131.764 9.09749 131.65 8.82666C131.54 8.55583 131.37 8.34424 131.142 8.19189C130.918 8.03955 130.63 7.96338 130.279 7.96338ZM137.854 6.83984C138.743 6.83984 139.414 7.03662 139.867 7.43018C140.324 7.82373 140.552 8.43734 140.552 9.271V14H139.492L139.207 13.0034H139.156C138.957 13.2573 138.752 13.4668 138.54 13.6318C138.328 13.7969 138.083 13.9196 137.804 14C137.529 14.0846 137.192 14.127 136.794 14.127C136.375 14.127 136.001 14.0508 135.671 13.8984C135.341 13.7419 135.081 13.5049 134.89 13.1875C134.7 12.8701 134.604 12.4681 134.604 11.9814C134.604 11.2578 134.873 10.714 135.411 10.3501C135.952 9.98617 136.769 9.78516 137.861 9.74707L139.08 9.70264V9.33447C139.08 8.84782 138.965 8.50081 138.737 8.29346C138.512 8.0861 138.195 7.98242 137.785 7.98242C137.433 7.98242 137.093 8.0332 136.763 8.13477C136.433 8.23633 136.111 8.36117 135.798 8.50928L135.315 7.45557C135.658 7.2736 136.047 7.12549 136.483 7.01123C136.923 6.89697 137.38 6.83984 137.854 6.83984ZM139.073 10.6421L138.165 10.6738C137.421 10.6992 136.898 10.8262 136.598 11.0547C136.297 11.2832 136.147 11.5964 136.147 11.9941C136.147 12.3411 136.251 12.5951 136.458 12.7559C136.665 12.9124 136.938 12.9907 137.277 12.9907C137.793 12.9907 138.221 12.8447 138.559 12.5527C138.902 12.2565 139.073 11.8228 139.073 11.2515V10.6421ZM144.269 14H142.771V4.12305H144.269V14ZM149.147 12.9209C149.341 12.9209 149.534 12.904 149.724 12.8701C149.915 12.832 150.088 12.7876 150.245 12.7368V13.8667C150.08 13.9386 149.866 14 149.604 14.0508C149.341 14.1016 149.068 14.127 148.785 14.127C148.387 14.127 148.029 14.0614 147.712 13.9302C147.395 13.7948 147.143 13.5641 146.957 13.2383C146.771 12.9124 146.677 12.4618 146.677 11.8862V8.10938H145.719V7.44287L146.747 6.91602L147.236 5.41162H148.175V6.97314H150.188V8.10938H148.175V11.8672C148.175 12.2227 148.264 12.4871 148.442 12.6606C148.62 12.8341 148.855 12.9209 149.147 12.9209ZM153.295 4.12305V6.60498C153.295 6.86312 153.286 7.11491 153.269 7.36035C153.257 7.60579 153.242 7.79622 153.225 7.93164H153.307C153.456 7.6862 153.638 7.48519 153.853 7.32861C154.069 7.16781 154.31 7.0472 154.577 6.9668C154.848 6.88639 155.136 6.84619 155.44 6.84619C155.978 6.84619 156.435 6.93717 156.811 7.11914C157.188 7.29688 157.476 7.57406 157.675 7.95068C157.878 8.32731 157.979 8.81608 157.979 9.41699V14H156.488V9.69629C156.488 9.15039 156.375 8.74202 156.151 8.47119C155.927 8.19613 155.58 8.05859 155.11 8.05859C154.657 8.05859 154.298 8.15381 154.031 8.34424C153.769 8.53044 153.58 8.80762 153.466 9.17578C153.352 9.53971 153.295 9.98405 153.295 10.5088V14H151.803V4.12305H153.295ZM83.437 32H81.9072V24.0146H79.1904V22.7197H86.1475V24.0146H83.437V32ZM91.108 24.8398C91.2265 24.8398 91.3556 24.8462 91.4952 24.8589C91.6349 24.8716 91.7555 24.8885 91.8571 24.9097L91.7174 26.3062C91.6285 26.2808 91.5185 26.2617 91.3873 26.249C91.2604 26.2363 91.1461 26.23 91.0446 26.23C90.7779 26.23 90.524 26.2744 90.2828 26.3633C90.0416 26.4479 89.8279 26.5791 89.6417 26.7568C89.4555 26.9303 89.3095 27.1483 89.2037 27.4106C89.0979 27.673 89.045 27.9777 89.045 28.3247V32H87.547V24.9731H88.715L88.9181 26.2109H88.9879C89.1276 25.9613 89.3011 25.7327 89.5084 25.5254C89.7158 25.318 89.9528 25.153 90.2194 25.0303C90.4902 24.9033 90.7864 24.8398 91.108 24.8398ZM96.0432 24.8398C96.9319 24.8398 97.6026 25.0366 98.0554 25.4302C98.5124 25.8237 98.741 26.4373 98.741 27.271V32H97.6809L97.3953 31.0034H97.3445C97.1456 31.2573 96.9403 31.4668 96.7288 31.6318C96.5172 31.7969 96.2717 31.9196 95.9924 32C95.7174 32.0846 95.3809 32.127 94.9831 32.127C94.5642 32.127 94.1897 32.0508 93.8596 31.8984C93.5295 31.7419 93.2693 31.5049 93.0788 31.1875C92.8884 30.8701 92.7932 30.4681 92.7932 29.9814C92.7932 29.2578 93.0619 28.714 93.5994 28.3501C94.141 27.9862 94.9578 27.7852 96.0496 27.7471L97.2683 27.7026V27.3345C97.2683 26.8478 97.154 26.5008 96.9255 26.2935C96.7012 26.0861 96.3839 25.9824 95.9734 25.9824C95.6221 25.9824 95.2815 26.0332 94.9514 26.1348C94.6213 26.2363 94.2997 26.3612 93.9866 26.5093L93.5041 25.4556C93.8469 25.2736 94.2362 25.1255 94.6721 25.0112C95.1122 24.897 95.5692 24.8398 96.0432 24.8398ZM97.262 28.6421L96.3542 28.6738C95.6094 28.6992 95.0868 28.8262 94.7864 29.0547C94.4859 29.2832 94.3357 29.5964 94.3357 29.9941C94.3357 30.3411 94.4394 30.5951 94.6467 30.7559C94.8541 30.9124 95.127 30.9907 95.4656 30.9907C95.9818 30.9907 96.4093 30.8447 96.7478 30.5527C97.0906 30.2565 97.262 29.8228 97.262 29.2515V28.6421ZM104.622 24.8398C105.413 24.8398 106.029 25.0451 106.469 25.4556C106.913 25.8618 107.136 26.5156 107.136 27.417V32H105.644V27.6963C105.644 27.1504 105.532 26.742 105.307 26.4712C105.083 26.1961 104.736 26.0586 104.266 26.0586C103.585 26.0586 103.111 26.2681 102.845 26.687C102.582 27.106 102.451 27.7132 102.451 28.5088V32H100.959V24.9731H102.121L102.33 25.9253H102.413C102.565 25.6799 102.754 25.4788 102.978 25.3223C103.206 25.1615 103.46 25.0409 103.74 24.9604C104.023 24.88 104.317 24.8398 104.622 24.8398ZM114.077 29.9941C114.077 30.4554 113.964 30.8447 113.74 31.1621C113.516 31.4795 113.188 31.7207 112.756 31.8857C112.329 32.0465 111.804 32.127 111.182 32.127C110.691 32.127 110.268 32.091 109.913 32.019C109.561 31.9513 109.229 31.8455 108.916 31.7017V30.4131C109.25 30.5697 109.625 30.7051 110.04 30.8193C110.458 30.9336 110.854 30.9907 111.227 30.9907C111.717 30.9907 112.071 30.9146 112.287 30.7622C112.502 30.6056 112.61 30.3983 112.61 30.1401C112.61 29.9878 112.566 29.8524 112.477 29.7339C112.392 29.6112 112.232 29.4863 111.995 29.3594C111.762 29.2282 111.419 29.0716 110.966 28.8896C110.522 28.7119 110.147 28.5342 109.843 28.3564C109.538 28.1787 109.307 27.965 109.151 27.7153C108.994 27.4614 108.916 27.1377 108.916 26.7441C108.916 26.1221 109.161 25.6502 109.652 25.3286C110.147 25.0028 110.801 24.8398 111.614 24.8398C112.045 24.8398 112.452 24.8843 112.833 24.9731C113.218 25.0578 113.594 25.1826 113.962 25.3477L113.493 26.4712C113.175 26.3315 112.856 26.2173 112.534 26.1284C112.217 26.0353 111.893 25.9888 111.563 25.9888C111.178 25.9888 110.884 26.048 110.681 26.1665C110.482 26.285 110.382 26.4543 110.382 26.6743C110.382 26.8394 110.431 26.979 110.528 27.0933C110.626 27.2075 110.793 27.3218 111.03 27.436C111.271 27.5503 111.605 27.6921 112.033 27.8613C112.452 28.0221 112.813 28.1914 113.118 28.3691C113.427 28.5426 113.664 28.7563 113.829 29.0103C113.994 29.2642 114.077 29.5921 114.077 29.9941ZM119.329 26.1094H117.622V32H116.13V26.1094H114.981V25.3921L116.13 24.9541V24.4653C116.13 23.8687 116.223 23.3947 116.409 23.0435C116.6 22.6922 116.871 22.4404 117.222 22.2881C117.577 22.1315 118 22.0532 118.491 22.0532C118.813 22.0532 119.107 22.0807 119.374 22.1357C119.64 22.1865 119.865 22.2458 120.046 22.3135L119.659 23.4434C119.515 23.3968 119.355 23.3545 119.177 23.3164C118.999 23.2741 118.809 23.2529 118.606 23.2529C118.267 23.2529 118.017 23.3587 117.857 23.5703C117.7 23.7819 117.622 24.0908 117.622 24.4971V24.9731H119.329V26.1094ZM126.88 28.4707C126.88 29.0547 126.803 29.5731 126.651 30.0259C126.499 30.4787 126.277 30.8617 125.985 31.1748C125.693 31.4837 125.341 31.7207 124.931 31.8857C124.52 32.0465 124.057 32.127 123.541 32.127C123.058 32.127 122.616 32.0465 122.214 31.8857C121.812 31.7207 121.463 31.4837 121.167 31.1748C120.875 30.8617 120.648 30.4787 120.488 30.0259C120.327 29.5731 120.246 29.0547 120.246 28.4707C120.246 27.6963 120.38 27.0404 120.646 26.5029C120.917 25.9613 121.302 25.5487 121.801 25.2651C122.301 24.9816 122.895 24.8398 123.585 24.8398C124.233 24.8398 124.804 24.9816 125.299 25.2651C125.794 25.5487 126.181 25.9613 126.461 26.5029C126.74 27.0446 126.88 27.7005 126.88 28.4707ZM121.782 28.4707C121.782 28.9827 121.844 29.4207 121.967 29.7847C122.093 30.1486 122.288 30.4279 122.551 30.6226C122.813 30.813 123.151 30.9082 123.566 30.9082C123.981 30.9082 124.319 30.813 124.582 30.6226C124.844 30.4279 125.037 30.1486 125.159 29.7847C125.282 29.4207 125.343 28.9827 125.343 28.4707C125.343 27.9587 125.282 27.5249 125.159 27.1694C125.037 26.8097 124.844 26.5368 124.582 26.3506C124.319 26.1602 123.979 26.0649 123.56 26.0649C122.942 26.0649 122.491 26.2723 122.208 26.687C121.924 27.1017 121.782 27.6963 121.782 28.4707ZM132.285 24.8398C132.403 24.8398 132.532 24.8462 132.672 24.8589C132.811 24.8716 132.932 24.8885 133.034 24.9097L132.894 26.3062C132.805 26.2808 132.695 26.2617 132.564 26.249C132.437 26.2363 132.323 26.23 132.221 26.23C131.954 26.23 131.701 26.2744 131.459 26.3633C131.218 26.4479 131.004 26.5791 130.818 26.7568C130.632 26.9303 130.486 27.1483 130.38 27.4106C130.274 27.673 130.222 27.9777 130.222 28.3247V32H128.723V24.9731H129.891L130.095 26.2109H130.164C130.304 25.9613 130.478 25.7327 130.685 25.5254C130.892 25.318 131.129 25.153 131.396 25.0303C131.667 24.9033 131.963 24.8398 132.285 24.8398ZM142.406 24.8398C143.193 24.8398 143.785 25.043 144.183 25.4492C144.585 25.8555 144.786 26.5072 144.786 27.4043V32H143.294V27.6709C143.294 27.1377 143.191 26.7357 142.983 26.4648C142.776 26.194 142.461 26.0586 142.038 26.0586C141.445 26.0586 141.018 26.249 140.755 26.6299C140.497 27.0065 140.368 27.5545 140.368 28.2739V32H138.876V27.6709C138.876 27.3154 138.83 27.0192 138.737 26.7822C138.648 26.541 138.51 26.3612 138.324 26.2427C138.138 26.12 137.903 26.0586 137.62 26.0586C137.209 26.0586 136.881 26.1517 136.636 26.3379C136.394 26.5241 136.221 26.7992 136.115 27.1631C136.009 27.5228 135.957 27.965 135.957 28.4897V32H134.465V24.9731H135.626L135.836 25.9189H135.918C136.062 25.6735 136.24 25.4725 136.452 25.3159C136.667 25.1551 136.907 25.0366 137.169 24.9604C137.431 24.88 137.704 24.8398 137.988 24.8398C138.512 24.8398 138.955 24.9329 139.314 25.1191C139.674 25.3011 139.943 25.5804 140.121 25.957H140.235C140.455 25.5762 140.762 25.2948 141.155 25.1128C141.549 24.9308 141.966 24.8398 142.406 24.8398ZM149.753 24.8398C150.642 24.8398 151.312 25.0366 151.765 25.4302C152.222 25.8237 152.451 26.4373 152.451 27.271V32H151.391L151.105 31.0034H151.054C150.855 31.2573 150.65 31.4668 150.439 31.6318C150.227 31.7969 149.982 31.9196 149.702 32C149.427 32.0846 149.091 32.127 148.693 32.127C148.274 32.127 147.899 32.0508 147.569 31.8984C147.239 31.7419 146.979 31.5049 146.789 31.1875C146.598 30.8701 146.503 30.4681 146.503 29.9814C146.503 29.2578 146.772 28.714 147.309 28.3501C147.851 27.9862 148.668 27.7852 149.759 27.7471L150.978 27.7026V27.3345C150.978 26.8478 150.864 26.5008 150.635 26.2935C150.411 26.0861 150.094 25.9824 149.683 25.9824C149.332 25.9824 148.991 26.0332 148.661 26.1348C148.331 26.2363 148.01 26.3612 147.696 26.5093L147.214 25.4556C147.557 25.2736 147.946 25.1255 148.382 25.0112C148.822 24.897 149.279 24.8398 149.753 24.8398ZM150.972 28.6421L150.064 28.6738C149.319 28.6992 148.797 28.8262 148.496 29.0547C148.196 29.2832 148.045 29.5964 148.045 29.9941C148.045 30.3411 148.149 30.5951 148.357 30.7559C148.564 30.9124 148.837 30.9907 149.175 30.9907C149.692 30.9907 150.119 30.8447 150.458 30.5527C150.8 30.2565 150.972 29.8228 150.972 29.2515V28.6421ZM157.284 30.9209C157.479 30.9209 157.672 30.904 157.862 30.8701C158.052 30.832 158.226 30.7876 158.383 30.7368V31.8667C158.217 31.9386 158.004 32 157.741 32.0508C157.479 32.1016 157.206 32.127 156.923 32.127C156.525 32.127 156.167 32.0614 155.85 31.9302C155.532 31.7948 155.281 31.5641 155.094 31.2383C154.908 30.9124 154.815 30.4618 154.815 29.8862V26.1094H153.857V25.4429L154.885 24.916L155.374 23.4116H156.313V24.9731H158.325V26.1094H156.313V29.8672C156.313 30.2227 156.402 30.4871 156.58 30.6606C156.758 30.8341 156.992 30.9209 157.284 30.9209ZM161.432 24.9731V32H159.941V24.9731H161.432ZM160.696 22.2817C160.925 22.2817 161.121 22.3431 161.286 22.4658C161.456 22.5885 161.54 22.8001 161.54 23.1006C161.54 23.3968 161.456 23.6084 161.286 23.7354C161.121 23.8581 160.925 23.9194 160.696 23.9194C160.459 23.9194 160.258 23.8581 160.093 23.7354C159.932 23.6084 159.852 23.3968 159.852 23.1006C159.852 22.8001 159.932 22.5885 160.093 22.4658C160.258 22.3431 160.459 22.2817 160.696 22.2817ZM169.922 28.4707C169.922 29.0547 169.846 29.5731 169.694 30.0259C169.541 30.4787 169.319 30.8617 169.027 31.1748C168.735 31.4837 168.384 31.7207 167.974 31.8857C167.563 32.0465 167.1 32.127 166.583 32.127C166.101 32.127 165.659 32.0465 165.257 31.8857C164.855 31.7207 164.506 31.4837 164.209 31.1748C163.917 30.8617 163.691 30.4787 163.53 30.0259C163.369 29.5731 163.289 29.0547 163.289 28.4707C163.289 27.6963 163.422 27.0404 163.689 26.5029C163.96 25.9613 164.345 25.5487 164.844 25.2651C165.344 24.9816 165.938 24.8398 166.628 24.8398C167.275 24.8398 167.847 24.9816 168.342 25.2651C168.837 25.5487 169.224 25.9613 169.503 26.5029C169.783 27.0446 169.922 27.7005 169.922 28.4707ZM164.825 28.4707C164.825 28.9827 164.886 29.4207 165.009 29.7847C165.136 30.1486 165.331 30.4279 165.593 30.6226C165.856 30.813 166.194 30.9082 166.609 30.9082C167.024 30.9082 167.362 30.813 167.624 30.6226C167.887 30.4279 168.079 30.1486 168.202 29.7847C168.325 29.4207 168.386 28.9827 168.386 28.4707C168.386 27.9587 168.325 27.5249 168.202 27.1694C168.079 26.8097 167.887 26.5368 167.624 26.3506C167.362 26.1602 167.021 26.0649 166.602 26.0649C165.985 26.0649 165.534 26.2723 165.25 26.687C164.967 27.1017 164.825 27.6963 164.825 28.4707ZM175.429 24.8398C176.22 24.8398 176.836 25.0451 177.276 25.4556C177.72 25.8618 177.942 26.5156 177.942 27.417V32H176.451V27.6963C176.451 27.1504 176.339 26.742 176.114 26.4712C175.89 26.1961 175.543 26.0586 175.073 26.0586C174.392 26.0586 173.918 26.2681 173.651 26.687C173.389 27.106 173.258 27.7132 173.258 28.5088V32H171.766V24.9731H172.928L173.137 25.9253H173.22C173.372 25.6799 173.56 25.4788 173.785 25.3223C174.013 25.1615 174.267 25.0409 174.546 24.9604C174.83 24.88 175.124 24.8398 175.429 24.8398ZM186.518 22.7197C187.715 22.7197 188.589 22.9652 189.139 23.4561C189.69 23.9469 189.965 24.6346 189.965 25.519C189.965 25.9211 189.901 26.304 189.774 26.668C189.651 27.0277 189.448 27.3472 189.165 27.6265C188.881 27.9015 188.507 28.1195 188.041 28.2803C187.58 28.4411 187.011 28.5215 186.334 28.5215H185.344V32H183.82V22.7197H186.518ZM186.416 23.9829H185.344V27.252H186.175C186.653 27.252 187.06 27.1969 187.394 27.0869C187.728 26.9727 187.982 26.7928 188.156 26.5474C188.329 26.3019 188.416 25.9782 188.416 25.5762C188.416 25.0387 188.253 24.6388 187.927 24.3765C187.605 24.1141 187.102 23.9829 186.416 23.9829ZM195.357 24.8398C195.475 24.8398 195.604 24.8462 195.744 24.8589C195.884 24.8716 196.004 24.8885 196.106 24.9097L195.966 26.3062C195.877 26.2808 195.767 26.2617 195.636 26.249C195.509 26.2363 195.395 26.23 195.293 26.23C195.027 26.23 194.773 26.2744 194.532 26.3633C194.29 26.4479 194.077 26.5791 193.891 26.7568C193.704 26.9303 193.558 27.1483 193.453 27.4106C193.347 27.673 193.294 27.9777 193.294 28.3247V32H191.796V24.9731H192.964L193.167 26.2109H193.237C193.376 25.9613 193.55 25.7327 193.757 25.5254C193.965 25.318 194.202 25.153 194.468 25.0303C194.739 24.9033 195.035 24.8398 195.357 24.8398ZM203.758 28.4707C203.758 29.0547 203.682 29.5731 203.529 30.0259C203.377 30.4787 203.155 30.8617 202.863 31.1748C202.571 31.4837 202.22 31.7207 201.809 31.8857C201.399 32.0465 200.935 32.127 200.419 32.127C199.937 32.127 199.494 32.0465 199.092 31.8857C198.69 31.7207 198.341 31.4837 198.045 31.1748C197.753 30.8617 197.527 30.4787 197.366 30.0259C197.205 29.5731 197.125 29.0547 197.125 28.4707C197.125 27.6963 197.258 27.0404 197.524 26.5029C197.795 25.9613 198.18 25.5487 198.68 25.2651C199.179 24.9816 199.774 24.8398 200.463 24.8398C201.111 24.8398 201.682 24.9816 202.177 25.2651C202.672 25.5487 203.06 25.9613 203.339 26.5029C203.618 27.0446 203.758 27.7005 203.758 28.4707ZM198.661 28.4707C198.661 28.9827 198.722 29.4207 198.845 29.7847C198.972 30.1486 199.166 30.4279 199.429 30.6226C199.691 30.813 200.03 30.9082 200.444 30.9082C200.859 30.9082 201.198 30.813 201.46 30.6226C201.722 30.4279 201.915 30.1486 202.038 29.7847C202.16 29.4207 202.222 28.9827 202.222 28.4707C202.222 27.9587 202.16 27.5249 202.038 27.1694C201.915 26.8097 201.722 26.5368 201.46 26.3506C201.198 26.1602 200.857 26.0649 200.438 26.0649C199.82 26.0649 199.37 26.2723 199.086 26.687C198.802 27.1017 198.661 27.6963 198.661 28.4707ZM207.608 35.123C206.655 35.123 205.925 34.9517 205.418 34.6089C204.91 34.2661 204.656 33.7858 204.656 33.168C204.656 32.7363 204.791 32.3703 205.062 32.0698C205.333 31.7736 205.72 31.5684 206.224 31.4541C206.033 31.3695 205.868 31.2383 205.729 31.0605C205.593 30.8786 205.526 30.6776 205.526 30.4575C205.526 30.1951 205.6 29.9709 205.748 29.7847C205.896 29.5985 206.118 29.4186 206.414 29.2451C206.046 29.0885 205.75 28.8346 205.526 28.4834C205.305 28.1279 205.195 27.7111 205.195 27.2329C205.195 26.7251 205.303 26.2935 205.519 25.938C205.735 25.5783 206.05 25.3053 206.465 25.1191C206.88 24.9287 207.381 24.8335 207.969 24.8335C208.096 24.8335 208.234 24.842 208.382 24.8589C208.534 24.8716 208.674 24.8885 208.801 24.9097C208.932 24.9266 209.032 24.9456 209.099 24.9668H211.53V25.7983L210.337 26.0205C210.451 26.1813 210.542 26.3654 210.61 26.5728C210.678 26.7759 210.712 26.998 210.712 27.2393C210.712 27.9671 210.46 28.5405 209.956 28.9595C209.457 29.3742 208.767 29.5815 207.887 29.5815C207.675 29.5731 207.47 29.5562 207.271 29.5308C207.119 29.6239 207.002 29.7275 206.922 29.8418C206.842 29.9518 206.801 30.0767 206.801 30.2163C206.801 30.3306 206.842 30.4237 206.922 30.4956C207.002 30.5633 207.121 30.6141 207.277 30.6479C207.438 30.6818 207.633 30.6987 207.861 30.6987H209.074C209.844 30.6987 210.432 30.8617 210.839 31.1875C211.245 31.5133 211.448 31.9915 211.448 32.6221C211.448 33.4219 211.118 34.0376 210.458 34.4692C209.798 34.9051 208.847 35.123 207.608 35.123ZM207.665 34.0757C208.185 34.0757 208.623 34.0249 208.979 33.9233C209.334 33.8218 209.603 33.6758 209.785 33.4854C209.967 33.2992 210.058 33.077 210.058 32.8188C210.058 32.5903 210.001 32.4147 209.886 32.292C209.772 32.1693 209.601 32.0846 209.372 32.0381C209.144 31.9915 208.86 31.9683 208.522 31.9683H207.417C207.142 31.9683 206.899 32.0106 206.687 32.0952C206.476 32.1841 206.311 32.311 206.192 32.4761C206.078 32.6411 206.021 32.84 206.021 33.0728C206.021 33.3944 206.162 33.6419 206.446 33.8154C206.734 33.9889 207.14 34.0757 207.665 34.0757ZM207.957 28.604C208.393 28.604 208.716 28.4855 208.928 28.2485C209.139 28.0073 209.245 27.6688 209.245 27.2329C209.245 26.759 209.135 26.4035 208.915 26.1665C208.699 25.9295 208.378 25.811 207.95 25.811C207.531 25.811 207.212 25.9316 206.992 26.1729C206.776 26.4141 206.668 26.7716 206.668 27.2456C206.668 27.673 206.776 28.0073 206.992 28.2485C207.212 28.4855 207.534 28.604 207.957 28.604ZM216.504 24.8398C216.622 24.8398 216.751 24.8462 216.891 24.8589C217.031 24.8716 217.151 24.8885 217.253 24.9097L217.113 26.3062C217.024 26.2808 216.914 26.2617 216.783 26.249C216.656 26.2363 216.542 26.23 216.44 26.23C216.174 26.23 215.92 26.2744 215.678 26.3633C215.437 26.4479 215.224 26.5791 215.037 26.7568C214.851 26.9303 214.705 27.1483 214.599 27.4106C214.494 27.673 214.441 27.9777 214.441 28.3247V32H212.943V24.9731H214.111L214.314 26.2109H214.384C214.523 25.9613 214.697 25.7327 214.904 25.5254C215.111 25.318 215.348 25.153 215.615 25.0303C215.886 24.9033 216.182 24.8398 216.504 24.8398ZM221.439 24.8398C222.328 24.8398 222.998 25.0366 223.451 25.4302C223.908 25.8237 224.137 26.4373 224.137 27.271V32H223.077L222.791 31.0034H222.74C222.541 31.2573 222.336 31.4668 222.124 31.6318C221.913 31.7969 221.667 31.9196 221.388 32C221.113 32.0846 220.777 32.127 220.379 32.127C219.96 32.127 219.585 32.0508 219.255 31.8984C218.925 31.7419 218.665 31.5049 218.475 31.1875C218.284 30.8701 218.189 30.4681 218.189 29.9814C218.189 29.2578 218.458 28.714 218.995 28.3501C219.537 27.9862 220.353 27.7852 221.445 27.7471L222.664 27.7026V27.3345C222.664 26.8478 222.55 26.5008 222.321 26.2935C222.097 26.0861 221.78 25.9824 221.369 25.9824C221.018 25.9824 220.677 26.0332 220.347 26.1348C220.017 26.2363 219.695 26.3612 219.382 26.5093L218.9 25.4556C219.243 25.2736 219.632 25.1255 220.068 25.0112C220.508 24.897 220.965 24.8398 221.439 24.8398ZM222.658 28.6421L221.75 28.6738C221.005 28.6992 220.482 28.8262 220.182 29.0547C219.882 29.2832 219.731 29.5964 219.731 29.9941C219.731 30.3411 219.835 30.5951 220.042 30.7559C220.25 30.9124 220.523 30.9907 220.861 30.9907C221.378 30.9907 221.805 30.8447 222.143 30.5527C222.486 30.2565 222.658 29.8228 222.658 29.2515V28.6421ZM234.296 24.8398C235.083 24.8398 235.675 25.043 236.073 25.4492C236.475 25.8555 236.676 26.5072 236.676 27.4043V32H235.185V27.6709C235.185 27.1377 235.081 26.7357 234.874 26.4648C234.666 26.194 234.351 26.0586 233.928 26.0586C233.335 26.0586 232.908 26.249 232.646 26.6299C232.387 27.0065 232.258 27.5545 232.258 28.2739V32H230.767V27.6709C230.767 27.3154 230.72 27.0192 230.627 26.7822C230.538 26.541 230.401 26.3612 230.214 26.2427C230.028 26.12 229.793 26.0586 229.51 26.0586C229.099 26.0586 228.771 26.1517 228.526 26.3379C228.285 26.5241 228.111 26.7992 228.005 27.1631C227.9 27.5228 227.847 27.965 227.847 28.4897V32H226.355V24.9731H227.517L227.726 25.9189H227.809C227.952 25.6735 228.13 25.4725 228.342 25.3159C228.558 25.1551 228.797 25.0366 229.059 24.9604C229.321 24.88 229.594 24.8398 229.878 24.8398C230.403 24.8398 230.845 24.9329 231.205 25.1191C231.564 25.3011 231.833 25.5804 232.011 25.957H232.125C232.345 25.5762 232.652 25.2948 233.045 25.1128C233.439 24.9308 233.856 24.8398 234.296 24.8398Z" fill="white"/>
<line x1="68.5" y1="1" x2="68.5" y2="35" stroke="#B3ECF8"/>
</g>
<defs>
<clipPath id="clip0_6673_1055">
<rect width="283" height="39" fill="white"/>
</clipPath>
</defs>
</svg>
