<svg width="278" height="74" viewBox="0 0 278 74" fill="none" xmlns="http://www.w3.org/2000/svg">
<path d="M26.425 67L23.6499 58.9514H23.5906C23.6038 59.1316 23.6191 59.3777 23.6367 59.6897C23.6543 60.0017 23.6697 60.3357 23.6829 60.6917C23.696 61.0476 23.7026 61.3882 23.7026 61.7134V67H22.2656V57.3628H24.4871L27.1567 65.0554H27.1963L29.9583 57.3628H32.1731V67H30.6636V61.6343C30.6636 61.3398 30.668 61.0212 30.6768 60.6785C30.6899 60.3357 30.7031 60.0105 30.7163 59.7029C30.7339 59.3953 30.7471 59.1492 30.7559 58.9646H30.7031L27.8225 67H26.425ZM37.4597 59.5645C38.1101 59.5645 38.6682 59.6985 39.134 59.9666C39.5999 60.2346 39.958 60.6147 40.2085 61.1069C40.459 61.5991 40.5842 62.188 40.5842 62.8735V63.7041H35.7129C35.7305 64.4116 35.9194 64.9565 36.2798 65.3389C36.6445 65.7212 37.1543 65.9124 37.8091 65.9124C38.2749 65.9124 38.6924 65.8684 39.0615 65.7805C39.4351 65.6882 39.8196 65.5542 40.2151 65.3784V66.6375C39.8503 66.8088 39.479 66.9341 39.1011 67.0132C38.7231 67.0923 38.2705 67.1318 37.7432 67.1318C37.0269 67.1318 36.3962 66.9934 35.8513 66.7166C35.3108 66.4353 34.8867 66.0178 34.5791 65.4641C34.2759 64.9104 34.1243 64.2227 34.1243 63.4009C34.1243 62.5835 34.2627 61.8892 34.5396 61.3179C34.8164 60.7466 35.2053 60.3115 35.7063 60.0127C36.2073 59.7139 36.7917 59.5645 37.4597 59.5645ZM37.4597 60.7312C36.9719 60.7312 36.5764 60.8894 36.2732 61.2058C35.9744 61.5222 35.7986 61.9858 35.7458 62.5967H39.0681C39.0637 62.2319 39.0022 61.9089 38.8835 61.6277C38.7693 61.3464 38.5935 61.1267 38.3562 60.9685C38.1233 60.8103 37.8245 60.7312 37.4597 60.7312ZM44.7832 67.1318C43.9131 67.1318 43.2144 66.8154 42.687 66.1826C42.1641 65.5454 41.9026 64.6072 41.9026 63.3679C41.9026 62.1155 42.1685 61.1685 42.7002 60.5269C43.2363 59.8853 43.9417 59.5645 44.8162 59.5645C45.1853 59.5645 45.5083 59.615 45.7852 59.7161C46.062 59.8127 46.2993 59.9446 46.4971 60.1116C46.6992 60.2786 46.8706 60.4653 47.0112 60.6719H47.0837C47.0618 60.5356 47.0354 60.3401 47.0046 60.0852C46.9783 59.8259 46.9651 59.5864 46.9651 59.3667V56.7432H48.5208V67H47.3079L47.031 66.0046H46.9651C46.8333 66.2156 46.6663 66.4067 46.4641 66.5781C46.2664 66.7451 46.0291 66.8792 45.7522 66.9802C45.4797 67.0813 45.1567 67.1318 44.7832 67.1318ZM45.2183 65.8728C45.8818 65.8728 46.3499 65.6816 46.6223 65.2993C46.8948 64.917 47.0354 64.3435 47.0442 63.5789V63.3745C47.0442 62.5571 46.9124 61.9309 46.6487 61.4958C46.385 61.0564 45.9038 60.8367 45.2051 60.8367C44.647 60.8367 44.2207 61.063 43.9263 61.5156C43.6362 61.9639 43.4912 62.5901 43.4912 63.3943C43.4912 64.1985 43.6362 64.8137 43.9263 65.24C44.2207 65.6619 44.6514 65.8728 45.2183 65.8728ZM52.2913 59.7029V67H50.7422V59.7029H52.2913ZM51.5266 56.908C51.7639 56.908 51.9683 56.9717 52.1396 57.0991C52.3154 57.2266 52.4033 57.4463 52.4033 57.7583C52.4033 58.0659 52.3154 58.2856 52.1396 58.4175C51.9683 58.5449 51.7639 58.6086 51.5266 58.6086C51.2805 58.6086 51.0718 58.5449 50.9004 58.4175C50.7334 58.2856 50.6499 58.0659 50.6499 57.7583C50.6499 57.4463 50.7334 57.2266 50.9004 57.0991C51.0718 56.9717 51.2805 56.908 51.5266 56.908ZM57.4526 67.1318C56.7627 67.1318 56.165 66.9978 55.6597 66.7297C55.1543 66.4617 54.7654 66.0508 54.4929 65.4971C54.2205 64.9434 54.0842 64.2402 54.0842 63.3877C54.0842 62.5 54.2336 61.7749 54.5325 61.2124C54.8313 60.6499 55.2444 60.2346 55.7717 59.9666C56.3035 59.6985 56.9121 59.5645 57.5977 59.5645C58.0327 59.5645 58.426 59.6084 58.7776 59.6963C59.1335 59.7798 59.4346 59.8831 59.6807 60.0061L59.2192 61.2454C58.9512 61.1355 58.6765 61.0432 58.3953 60.9685C58.114 60.8938 57.8438 60.8564 57.5845 60.8564C57.1582 60.8564 56.8022 60.9509 56.5166 61.1399C56.2354 61.3289 56.0244 61.6101 55.8838 61.9836C55.7476 62.3572 55.6794 62.8208 55.6794 63.3745C55.6794 63.9106 55.7498 64.3633 55.8904 64.7324C56.031 65.0972 56.2397 65.374 56.5166 65.563C56.7935 65.7476 57.134 65.8398 57.5383 65.8398C57.9382 65.8398 58.2964 65.7915 58.6128 65.6948C58.9292 65.5981 59.228 65.4729 59.5093 65.3191V66.6638C59.2324 66.822 58.9358 66.9385 58.6194 67.0132C58.303 67.0923 57.9141 67.1318 57.4526 67.1318ZM64.084 59.5645C65.0068 59.5645 65.7034 59.7688 66.1736 60.1775C66.6482 60.5862 66.8855 61.2234 66.8855 62.0891V67H65.7847L65.488 65.9651H65.4353C65.2288 66.2288 65.0156 66.4463 64.7959 66.6177C64.5762 66.7891 64.3213 66.9165 64.0312 67C63.7456 67.0879 63.3962 67.1318 62.9832 67.1318C62.5481 67.1318 62.1592 67.0527 61.8164 66.8945C61.4736 66.7319 61.2034 66.4858 61.0056 66.1562C60.8079 65.8267 60.709 65.4092 60.709 64.9038C60.709 64.1523 60.988 63.5876 61.5461 63.2097C62.1086 62.8318 62.9568 62.623 64.0906 62.5835L65.3562 62.5374V62.155C65.3562 61.6497 65.2375 61.2893 65.0002 61.074C64.7673 60.8586 64.4377 60.751 64.0115 60.751C63.6467 60.751 63.293 60.8037 62.9502 60.9092C62.6074 61.0146 62.2734 61.1443 61.9482 61.2981L61.4473 60.2039C61.8032 60.0149 62.2075 59.8611 62.6602 59.7424C63.1172 59.6238 63.5918 59.5645 64.084 59.5645ZM65.3496 63.5129L64.407 63.5459C63.6335 63.5723 63.0908 63.7041 62.7788 63.9414C62.4668 64.1787 62.3108 64.5039 62.3108 64.917C62.3108 65.2773 62.4185 65.541 62.6338 65.708C62.8491 65.8706 63.1326 65.9519 63.4841 65.9519C64.0203 65.9519 64.4641 65.8003 64.8157 65.4971C65.1716 65.1895 65.3496 64.739 65.3496 64.1458V63.5129ZM70.6033 59.7029V67H69.0542V59.7029H70.6033ZM69.8386 56.908C70.0759 56.908 70.2803 56.9717 70.4517 57.0991C70.6274 57.2266 70.7153 57.4463 70.7153 57.7583C70.7153 58.0659 70.6274 58.2856 70.4517 58.4175C70.2803 58.5449 70.0759 58.6086 69.8386 58.6086C69.5925 58.6086 69.3838 58.5449 69.2124 58.4175C69.0454 58.2856 68.9619 58.0659 68.9619 57.7583C68.9619 57.4463 69.0454 57.2266 69.2124 57.0991C69.3838 56.9717 69.5925 56.908 69.8386 56.908ZM75.2769 67.1318C74.4067 67.1318 73.708 66.8154 73.1807 66.1826C72.6577 65.5454 72.3962 64.6072 72.3962 63.3679C72.3962 62.1155 72.6621 61.1685 73.1938 60.5269C73.73 59.8853 74.4353 59.5645 75.3098 59.5645C75.679 59.5645 76.002 59.615 76.2788 59.7161C76.5557 59.8127 76.793 59.9446 76.9907 60.1116C77.1929 60.2786 77.3643 60.4653 77.5049 60.6719H77.5774C77.5554 60.5356 77.5291 60.3401 77.4983 60.0852C77.4719 59.8259 77.4587 59.5864 77.4587 59.3667V56.7432H79.0144V67H77.8015L77.5247 66.0046H77.4587C77.3269 66.2156 77.1599 66.4067 76.9578 66.5781C76.76 66.7451 76.5227 66.8792 76.2458 66.9802C75.9734 67.0813 75.6504 67.1318 75.2769 67.1318ZM75.7119 65.8728C76.3755 65.8728 76.8435 65.6816 77.116 65.2993C77.3884 64.917 77.5291 64.3435 77.5378 63.5789V63.3745C77.5378 62.5571 77.406 61.9309 77.1423 61.4958C76.8787 61.0564 76.3975 60.8367 75.6987 60.8367C75.1406 60.8367 74.7144 61.063 74.4199 61.5156C74.1299 61.9639 73.9849 62.5901 73.9849 63.3943C73.9849 64.1985 74.1299 64.8137 74.4199 65.24C74.7144 65.6619 75.145 65.8728 75.7119 65.8728ZM92.7253 62.0891C92.7253 63.1746 92.5232 64.082 92.1189 64.8115C91.7146 65.5366 91.1279 66.0837 90.3589 66.4529C89.5898 66.8176 88.6626 67 87.5771 67H84.9009V57.3628H87.8672C88.8647 57.3628 89.7261 57.543 90.4512 57.9033C91.1763 58.2593 91.7366 58.7888 92.1321 59.4919C92.5276 60.1907 92.7253 61.0564 92.7253 62.0891ZM91.0774 62.1353C91.0774 61.3442 90.9521 60.6938 90.7017 60.1841C90.4556 59.6743 90.0908 59.2964 89.6074 59.0503C89.1284 58.7998 88.5374 58.6746 87.8342 58.6746H86.4829V65.675H87.6035C88.7681 65.675 89.6382 65.3784 90.2139 64.7852C90.7896 64.1919 91.0774 63.3086 91.0774 62.1353ZM97.5044 59.5645C98.4272 59.5645 99.1238 59.7688 99.594 60.1775C100.069 60.5862 100.306 61.2234 100.306 62.0891V67H99.2051L98.9084 65.9651H98.8557C98.6492 66.2288 98.436 66.4463 98.2163 66.6177C97.9966 66.7891 97.7417 66.9165 97.4517 67C97.166 67.0879 96.8167 67.1318 96.4036 67.1318C95.9685 67.1318 95.5796 67.0527 95.2368 66.8945C94.894 66.7319 94.6238 66.4858 94.426 66.1562C94.2283 65.8267 94.1294 65.4092 94.1294 64.9038C94.1294 64.1523 94.4084 63.5876 94.9666 63.2097C95.5291 62.8318 96.3772 62.623 97.511 62.5835L98.7766 62.5374V62.155C98.7766 61.6497 98.658 61.2893 98.4207 61.074C98.1877 60.8586 97.8582 60.751 97.4319 60.751C97.0671 60.751 96.7134 60.8037 96.3706 60.9092C96.0278 61.0146 95.6938 61.1443 95.3687 61.2981L94.8677 60.2039C95.2236 60.0149 95.6279 59.8611 96.0806 59.7424C96.5376 59.6238 97.0122 59.5645 97.5044 59.5645ZM98.77 63.5129L97.8274 63.5459C97.054 63.5723 96.5112 63.7041 96.1992 63.9414C95.8872 64.1787 95.7312 64.5039 95.7312 64.917C95.7312 65.2773 95.8389 65.541 96.0542 65.708C96.2695 65.8706 96.553 65.9519 96.9045 65.9519C97.4407 65.9519 97.8845 65.8003 98.2361 65.4971C98.592 65.1895 98.77 64.739 98.77 64.1458V63.5129ZM105.19 65.8794C105.393 65.8794 105.593 65.8618 105.79 65.8267C105.988 65.7871 106.168 65.741 106.331 65.6882V66.8616C106.159 66.9363 105.938 67 105.665 67.0527C105.393 67.1055 105.109 67.1318 104.815 67.1318C104.402 67.1318 104.03 67.0637 103.701 66.9275C103.371 66.7869 103.11 66.5474 102.916 66.209C102.723 65.8706 102.626 65.4026 102.626 64.8049V60.8828H101.631V60.1907L102.699 59.6436L103.206 58.0813H104.182V59.7029H106.271V60.8828H104.182V64.7852C104.182 65.1543 104.274 65.429 104.459 65.6091C104.643 65.7893 104.887 65.8794 105.19 65.8794ZM110.675 59.5645C111.598 59.5645 112.294 59.7688 112.764 60.1775C113.239 60.5862 113.476 61.2234 113.476 62.0891V67H112.375L112.079 65.9651H112.026C111.82 66.2288 111.606 66.4463 111.387 66.6177C111.167 66.7891 110.912 66.9165 110.622 67C110.336 67.0879 109.987 67.1318 109.574 67.1318C109.139 67.1318 108.75 67.0527 108.407 66.8945C108.064 66.7319 107.794 66.4858 107.596 66.1562C107.399 65.8267 107.3 65.4092 107.3 64.9038C107.3 64.1523 107.579 63.5876 108.137 63.2097C108.699 62.8318 109.548 62.623 110.681 62.5835L111.947 62.5374V62.155C111.947 61.6497 111.828 61.2893 111.591 61.074C111.358 60.8586 111.029 60.751 110.602 60.751C110.238 60.751 109.884 60.8037 109.541 60.9092C109.198 61.0146 108.864 61.1443 108.539 61.2981L108.038 60.2039C108.394 60.0149 108.798 59.8611 109.251 59.7424C109.708 59.6238 110.183 59.5645 110.675 59.5645ZM111.94 63.5129L110.998 63.5459C110.224 63.5723 109.682 63.7041 109.37 63.9414C109.058 64.1787 108.902 64.5039 108.902 64.917C108.902 65.2773 109.009 65.541 109.225 65.708C109.44 65.8706 109.723 65.9519 110.075 65.9519C110.611 65.9519 111.055 65.8003 111.406 65.4971C111.762 65.1895 111.94 64.739 111.94 64.1458V63.5129ZM123.417 58.5691C122.955 58.5691 122.542 58.6526 122.177 58.8196C121.817 58.9866 121.512 59.2283 121.261 59.5447C121.011 59.8567 120.82 60.2368 120.688 60.6851C120.556 61.1289 120.49 61.6299 120.49 62.188C120.49 62.9351 120.595 63.5789 120.806 64.1194C121.017 64.6555 121.338 65.0686 121.769 65.3586C122.199 65.6443 122.744 65.7871 123.404 65.7871C123.812 65.7871 124.21 65.7476 124.597 65.6685C124.983 65.5894 125.383 65.4817 125.796 65.3455V66.6902C125.405 66.844 125.01 66.9561 124.61 67.0264C124.21 67.0967 123.749 67.1318 123.226 67.1318C122.241 67.1318 121.424 66.9275 120.773 66.5188C120.127 66.1101 119.644 65.5344 119.323 64.7917C119.007 64.0491 118.849 63.179 118.849 62.1814C118.849 61.4519 118.95 60.7839 119.152 60.1775C119.354 59.571 119.648 59.0481 120.035 58.6086C120.422 58.1648 120.899 57.8242 121.466 57.5869C122.037 57.3452 122.689 57.2244 123.423 57.2244C123.907 57.2244 124.381 57.2793 124.847 57.3892C125.317 57.4946 125.752 57.6462 126.152 57.844L125.599 59.1492C125.265 58.991 124.915 58.8547 124.551 58.7405C124.186 58.6262 123.808 58.5691 123.417 58.5691ZM134.168 63.335C134.168 63.9414 134.089 64.4797 133.931 64.95C133.772 65.4202 133.542 65.8179 133.239 66.1431C132.935 66.4639 132.571 66.71 132.144 66.8813C131.718 67.0483 131.237 67.1318 130.701 67.1318C130.2 67.1318 129.74 67.0483 129.323 66.8813C128.906 66.71 128.543 66.4639 128.235 66.1431C127.932 65.8179 127.697 65.4202 127.53 64.95C127.363 64.4797 127.28 63.9414 127.28 63.335C127.28 62.5308 127.418 61.8496 127.695 61.2915C127.976 60.729 128.376 60.3005 128.895 60.0061C129.413 59.7117 130.031 59.5645 130.747 59.5645C131.419 59.5645 132.012 59.7117 132.527 60.0061C133.041 60.3005 133.443 60.729 133.733 61.2915C134.023 61.854 134.168 62.5352 134.168 63.335ZM128.875 63.335C128.875 63.8667 128.938 64.3215 129.066 64.6995C129.198 65.0774 129.4 65.3674 129.672 65.5696C129.945 65.7673 130.296 65.8662 130.727 65.8662C131.158 65.8662 131.509 65.7673 131.782 65.5696C132.054 65.3674 132.254 65.0774 132.382 64.6995C132.509 64.3215 132.573 63.8667 132.573 63.335C132.573 62.8032 132.509 62.3528 132.382 61.9836C132.254 61.6101 132.054 61.3267 131.782 61.1333C131.509 60.9355 131.156 60.8367 130.72 60.8367C130.079 60.8367 129.611 61.052 129.316 61.4827C129.022 61.9133 128.875 62.5308 128.875 63.335ZM137.503 67H135.948V56.7432H137.503V67ZM141.274 67H139.718V56.7432H141.274V67ZM146.396 59.5645C147.046 59.5645 147.604 59.6985 148.07 59.9666C148.536 60.2346 148.894 60.6147 149.145 61.1069C149.395 61.5991 149.52 62.188 149.52 62.8735V63.7041H144.649C144.667 64.4116 144.855 64.9565 145.216 65.3389C145.581 65.7212 146.09 65.9124 146.745 65.9124C147.211 65.9124 147.628 65.8684 147.998 65.7805C148.371 65.6882 148.756 65.5542 149.151 65.3784V66.6375C148.786 66.8088 148.415 66.9341 148.037 67.0132C147.659 67.0923 147.207 67.1318 146.679 67.1318C145.963 67.1318 145.332 66.9934 144.787 66.7166C144.247 66.4353 143.823 66.0178 143.515 65.4641C143.212 64.9104 143.06 64.2227 143.06 63.4009C143.06 62.5835 143.199 61.8892 143.476 61.3179C143.752 60.7466 144.141 60.3115 144.642 60.0127C145.143 59.7139 145.728 59.5645 146.396 59.5645ZM146.396 60.7312C145.908 60.7312 145.512 60.8894 145.209 61.2058C144.91 61.5222 144.735 61.9858 144.682 62.5967H148.004C148 62.2319 147.938 61.9089 147.82 61.6277C147.705 61.3464 147.53 61.1267 147.292 60.9685C147.059 60.8103 146.76 60.7312 146.396 60.7312ZM154.207 67.1318C153.517 67.1318 152.919 66.9978 152.414 66.7297C151.909 66.4617 151.52 66.0508 151.247 65.4971C150.975 64.9434 150.839 64.2402 150.839 63.3877C150.839 62.5 150.988 61.7749 151.287 61.2124C151.586 60.6499 151.999 60.2346 152.526 59.9666C153.058 59.6985 153.667 59.5645 154.352 59.5645C154.787 59.5645 155.18 59.6084 155.532 59.6963C155.888 59.7798 156.189 59.8831 156.435 60.0061L155.974 61.2454C155.706 61.1355 155.431 61.0432 155.15 60.9685C154.868 60.8938 154.598 60.8564 154.339 60.8564C153.913 60.8564 153.557 60.9509 153.271 61.1399C152.99 61.3289 152.779 61.6101 152.638 61.9836C152.502 62.3572 152.434 62.8208 152.434 63.3745C152.434 63.9106 152.504 64.3633 152.645 64.7324C152.785 65.0972 152.994 65.374 153.271 65.563C153.548 65.7476 153.888 65.8398 154.293 65.8398C154.693 65.8398 155.051 65.7915 155.367 65.6948C155.684 65.5981 155.982 65.4729 156.264 65.3191V66.6638C155.987 66.822 155.69 66.9385 155.374 67.0132C155.057 67.0923 154.668 67.1318 154.207 67.1318ZM160.693 65.8794C160.896 65.8794 161.095 65.8618 161.293 65.8267C161.491 65.7871 161.671 65.741 161.834 65.6882V66.8616C161.662 66.9363 161.44 67 161.168 67.0527C160.896 67.1055 160.612 67.1318 160.318 67.1318C159.905 67.1318 159.533 67.0637 159.204 66.9275C158.874 66.7869 158.613 66.5474 158.419 66.209C158.226 65.8706 158.129 65.4026 158.129 64.8049V60.8828H157.134V60.1907L158.202 59.6436L158.709 58.0813H159.685V59.7029H161.774V60.8828H159.685V64.7852C159.685 65.1543 159.777 65.429 159.962 65.6091C160.146 65.7893 160.39 65.8794 160.693 65.8794ZM164.866 59.7029V67H163.317V59.7029H164.866ZM164.101 56.908C164.339 56.908 164.543 56.9717 164.714 57.0991C164.89 57.2266 164.978 57.4463 164.978 57.7583C164.978 58.0659 164.89 58.2856 164.714 58.4175C164.543 58.5449 164.339 58.6086 164.101 58.6086C163.855 58.6086 163.646 58.5449 163.475 58.4175C163.308 58.2856 163.225 58.0659 163.225 57.7583C163.225 57.4463 163.308 57.2266 163.475 57.0991C163.646 56.9717 163.855 56.908 164.101 56.908ZM173.547 63.335C173.547 63.9414 173.468 64.4797 173.31 64.95C173.152 65.4202 172.921 65.8179 172.618 66.1431C172.315 66.4639 171.95 66.71 171.524 66.8813C171.097 67.0483 170.616 67.1318 170.08 67.1318C169.579 67.1318 169.12 67.0483 168.702 66.8813C168.285 66.71 167.922 66.4639 167.615 66.1431C167.312 65.8179 167.076 65.4202 166.909 64.95C166.742 64.4797 166.659 63.9414 166.659 63.335C166.659 62.5308 166.797 61.8496 167.074 61.2915C167.355 60.729 167.755 60.3005 168.274 60.0061C168.792 59.7117 169.41 59.5645 170.126 59.5645C170.799 59.5645 171.392 59.7117 171.906 60.0061C172.42 60.3005 172.822 60.729 173.112 61.2915C173.402 61.854 173.547 62.5352 173.547 63.335ZM168.254 63.335C168.254 63.8667 168.318 64.3215 168.445 64.6995C168.577 65.0774 168.779 65.3674 169.052 65.5696C169.324 65.7673 169.676 65.8662 170.106 65.8662C170.537 65.8662 170.889 65.7673 171.161 65.5696C171.434 65.3674 171.634 65.0774 171.761 64.6995C171.888 64.3215 171.952 63.8667 171.952 63.335C171.952 62.8032 171.888 62.3528 171.761 61.9836C171.634 61.6101 171.434 61.3267 171.161 61.1333C170.889 60.9355 170.535 60.8367 170.1 60.8367C169.458 60.8367 168.99 61.052 168.696 61.4827C168.401 61.9133 168.254 62.5308 168.254 63.335ZM179.131 59.5645C179.952 59.5645 180.592 59.7776 181.049 60.2039C181.51 60.6257 181.741 61.3047 181.741 62.2407V67H180.192V62.5308C180.192 61.9639 180.075 61.5398 179.843 61.2585C179.61 60.9729 179.249 60.8301 178.761 60.8301C178.054 60.8301 177.562 61.0476 177.285 61.4827C177.012 61.9177 176.876 62.5483 176.876 63.3745V67H175.327V59.7029H176.533L176.751 60.6917H176.837C176.995 60.4368 177.19 60.228 177.423 60.0654C177.661 59.8984 177.924 59.7732 178.214 59.6897C178.509 59.6062 178.814 59.5645 179.131 59.5645ZM190.917 67H189.328V58.7075H186.507V57.3628H193.731V58.7075H190.917V67ZM201.51 63.335C201.51 63.9414 201.431 64.4797 201.272 64.95C201.114 65.4202 200.884 65.8179 200.58 66.1431C200.277 66.4639 199.912 66.71 199.486 66.8813C199.06 67.0483 198.579 67.1318 198.042 67.1318C197.542 67.1318 197.082 67.0483 196.665 66.8813C196.247 66.71 195.885 66.4639 195.577 66.1431C195.274 65.8179 195.039 65.4202 194.872 64.95C194.705 64.4797 194.621 63.9414 194.621 63.335C194.621 62.5308 194.76 61.8496 195.037 61.2915C195.318 60.729 195.718 60.3005 196.236 60.0061C196.755 59.7117 197.372 59.5645 198.089 59.5645C198.761 59.5645 199.354 59.7117 199.868 60.0061C200.383 60.3005 200.785 60.729 201.075 61.2915C201.365 61.854 201.51 62.5352 201.51 63.335ZM196.217 63.335C196.217 63.8667 196.28 64.3215 196.408 64.6995C196.54 65.0774 196.742 65.3674 197.014 65.5696C197.287 65.7673 197.638 65.8662 198.069 65.8662C198.5 65.8662 198.851 65.7673 199.124 65.5696C199.396 65.3674 199.596 65.0774 199.723 64.6995C199.851 64.3215 199.915 63.8667 199.915 63.335C199.915 62.8032 199.851 62.3528 199.723 61.9836C199.596 61.6101 199.396 61.3267 199.124 61.1333C198.851 60.9355 198.497 60.8367 198.062 60.8367C197.421 60.8367 196.953 61.052 196.658 61.4827C196.364 61.9133 196.217 62.5308 196.217 63.335ZM209.75 63.335C209.75 63.9414 209.67 64.4797 209.512 64.95C209.354 65.4202 209.123 65.8179 208.82 66.1431C208.517 66.4639 208.152 66.71 207.726 66.8813C207.3 67.0483 206.818 67.1318 206.282 67.1318C205.781 67.1318 205.322 67.0483 204.905 66.8813C204.487 66.71 204.125 66.4639 203.817 66.1431C203.514 65.8179 203.279 65.4202 203.112 64.95C202.945 64.4797 202.861 63.9414 202.861 63.335C202.861 62.5308 203 61.8496 203.276 61.2915C203.558 60.729 203.958 60.3005 204.476 60.0061C204.995 59.7117 205.612 59.5645 206.328 59.5645C207.001 59.5645 207.594 59.7117 208.108 60.0061C208.622 60.3005 209.024 60.729 209.314 61.2915C209.604 61.854 209.75 62.5352 209.75 63.335ZM204.456 63.335C204.456 63.8667 204.52 64.3215 204.647 64.6995C204.779 65.0774 204.981 65.3674 205.254 65.5696C205.526 65.7673 205.878 65.8662 206.309 65.8662C206.739 65.8662 207.091 65.7673 207.363 65.5696C207.636 65.3674 207.836 65.0774 207.963 64.6995C208.091 64.3215 208.154 63.8667 208.154 63.335C208.154 62.8032 208.091 62.3528 207.963 61.9836C207.836 61.6101 207.636 61.3267 207.363 61.1333C207.091 60.9355 206.737 60.8367 206.302 60.8367C205.66 60.8367 205.192 61.052 204.898 61.4827C204.604 61.9133 204.456 62.5308 204.456 63.335ZM213.085 67H211.529V56.7432H213.085V67Z" fill="#5A5A5A"/>
<line x1="229" y1="45.5" x2="20" y2="45.5" stroke="#D9D9D9"/>
<path d="M32.18 5.98H32.1L31.02 8.2L28.16 13.48L25.3 8.2L24.22 5.98H24.14V16H21.64V2.04H24.62L28.2 8.86H28.28L31.82 2.04H34.68V16H32.18V5.98ZM39.1681 2.04H44.2481C45.1548 2.04 45.9748 2.18667 46.7081 2.48C47.4548 2.77333 48.0881 3.21333 48.6081 3.8C49.1415 4.37333 49.5481 5.1 49.8281 5.98C50.1215 6.84667 50.2681 7.86 50.2681 9.02C50.2681 10.18 50.1215 11.2 49.8281 12.08C49.5481 12.9467 49.1415 13.6733 48.6081 14.26C48.0881 14.8333 47.4548 15.2667 46.7081 15.56C45.9748 15.8533 45.1548 16 44.2481 16H39.1681V2.04ZM44.2481 13.66C45.2348 13.66 46.0148 13.3733 46.5881 12.8C47.1748 12.2133 47.4681 11.32 47.4681 10.12V7.92C47.4681 6.72 47.1748 5.83333 46.5881 5.26C46.0148 4.67333 45.2348 4.38 44.2481 4.38H41.8081V13.66H44.2481ZM59.5772 16.24C58.6572 16.24 57.8239 16.0933 57.0772 15.8C56.3439 15.4933 55.7105 15.04 55.1772 14.44C54.6572 13.84 54.2572 13.1 53.9772 12.22C53.6972 11.3267 53.5572 10.2933 53.5572 9.12C53.5572 7.94667 53.6972 6.90667 53.9772 6C54.2572 5.08 54.6572 4.31333 55.1772 3.7C55.7105 3.07333 56.3439 2.6 57.0772 2.28C57.8239 1.96 58.6572 1.8 59.5772 1.8C60.8305 1.8 61.8705 2.06667 62.6972 2.6C63.5239 3.13333 64.1839 3.94 64.6772 5.02L62.4172 6.22C62.2172 5.59333 61.8905 5.09333 61.4372 4.72C60.9839 4.33333 60.3639 4.14 59.5772 4.14C58.5905 4.14 57.8039 4.47333 57.2172 5.14C56.6439 5.80667 56.3572 6.74 56.3572 7.94V10.14C56.3572 11.3533 56.6439 12.2867 57.2172 12.94C57.8039 13.58 58.5905 13.9 59.5772 13.9C60.3639 13.9 61.0039 13.6867 61.4972 13.26C62.0039 12.8333 62.3705 12.3067 62.5972 11.68L64.7372 12.94C64.2305 13.98 63.5572 14.7933 62.7172 15.38C61.8772 15.9533 60.8305 16.24 59.5772 16.24ZM73.6692 4.38V16H71.0292V4.38H67.0692V2.04H77.6292V4.38H73.6692ZM24.28 34H21.64V20.04H27.94C28.58 20.04 29.1533 20.14 29.66 20.34C30.1667 20.54 30.5933 20.8333 30.94 21.22C31.3 21.5933 31.5733 22.0467 31.76 22.58C31.96 23.1133 32.06 23.7067 32.06 24.36C32.06 25.32 31.84 26.1467 31.4 26.84C30.9733 27.5333 30.3267 28.0267 29.46 28.32L32.32 34H29.38L26.78 28.62H24.28V34ZM27.68 26.4C28.1867 26.4 28.5867 26.2667 28.88 26C29.1733 25.72 29.32 25.3267 29.32 24.82V23.9C29.32 23.3933 29.1733 23.0067 28.88 22.74C28.5867 22.4733 28.1867 22.34 27.68 22.34H24.28V26.4H27.68ZM45.3812 28.1H39.5613V34H36.9213V20.04H39.5613V25.76H45.3812V20.04H48.0213V34H45.3812V28.1ZM58.7763 22.38V34H56.1363V22.38H52.1763V20.04H62.7363V22.38H58.7763ZM66.8978 34V20.04H73.1778C73.8178 20.04 74.3911 20.1467 74.8978 20.36C75.4178 20.56 75.8578 20.8533 76.2178 21.24C76.5778 21.6133 76.8511 22.0667 77.0378 22.6C77.2245 23.1333 77.3178 23.72 77.3178 24.36C77.3178 25.0133 77.2245 25.6067 77.0378 26.14C76.8511 26.66 76.5778 27.1133 76.2178 27.5C75.8578 27.8733 75.4178 28.1667 74.8978 28.38C74.3911 28.58 73.8178 28.68 73.1778 28.68H69.5378V34H66.8978ZM69.5378 26.4H72.9378C73.4445 26.4 73.8445 26.2667 74.1378 26C74.4311 25.72 74.5778 25.3267 74.5778 24.82V23.9C74.5778 23.3933 74.4311 23.0067 74.1378 22.74C73.8445 22.4733 73.4445 22.34 72.9378 22.34H69.5378V26.4Z" fill="#5A5A5A"/>
<path d="M103.122 4.00586C103.983 4.00586 104.694 4.11068 105.255 4.32031C105.82 4.52995 106.239 4.84896 106.513 5.27734C106.791 5.70573 106.93 6.25033 106.93 6.91113C106.93 7.40332 106.839 7.82259 106.656 8.16895C106.474 8.5153 106.235 8.80241 105.938 9.03027C105.642 9.25814 105.326 9.44043 104.988 9.57715L107.825 14H105.973L103.56 9.99414H101.953V14H100.312V4.00586H103.122ZM103.013 5.37305H101.953V8.64062H103.088C103.849 8.64062 104.4 8.49935 104.742 8.2168C105.089 7.93424 105.262 7.51725 105.262 6.96582C105.262 6.38704 105.077 5.97689 104.708 5.73535C104.343 5.49382 103.778 5.37305 103.013 5.37305ZM115.827 6.43262V14H114.562L114.343 12.9814H114.254C114.095 13.2412 113.892 13.4577 113.646 13.6309C113.4 13.7995 113.126 13.9248 112.826 14.0068C112.525 14.0934 112.208 14.1367 111.875 14.1367C111.306 14.1367 110.818 14.041 110.412 13.8496C110.011 13.6536 109.704 13.3529 109.49 12.9473C109.275 12.5417 109.168 12.0176 109.168 11.375V6.43262H110.782V11.0742C110.782 11.6621 110.9 12.1019 111.137 12.3936C111.379 12.6852 111.752 12.8311 112.258 12.8311C112.746 12.8311 113.133 12.7308 113.42 12.5303C113.707 12.3298 113.91 12.0335 114.029 11.6416C114.152 11.2497 114.213 10.7689 114.213 10.1992V6.43262H115.827ZM122.105 6.28906C122.233 6.28906 122.372 6.2959 122.522 6.30957C122.673 6.32324 122.802 6.34147 122.912 6.36426L122.761 7.86816C122.666 7.84082 122.547 7.82031 122.406 7.80664C122.269 7.79297 122.146 7.78613 122.037 7.78613C121.75 7.78613 121.476 7.83398 121.217 7.92969C120.957 8.02083 120.727 8.16211 120.526 8.35352C120.326 8.54036 120.168 8.77507 120.054 9.05762C119.94 9.34017 119.884 9.66829 119.884 10.042V14H118.27V6.43262H119.528L119.747 7.76562H119.822C119.972 7.49674 120.159 7.25065 120.383 7.02734C120.606 6.80404 120.861 6.6263 121.148 6.49414C121.44 6.35742 121.759 6.28906 122.105 6.28906ZM127.42 6.28906C128.377 6.28906 129.099 6.50098 129.587 6.9248C130.079 7.34863 130.325 8.00944 130.325 8.90723V14H129.184L128.876 12.9268H128.821C128.607 13.2002 128.386 13.4258 128.158 13.6035C127.93 13.7812 127.666 13.9134 127.365 14C127.069 14.0911 126.707 14.1367 126.278 14.1367C125.827 14.1367 125.424 14.0547 125.068 13.8906C124.713 13.722 124.433 13.4668 124.228 13.125C124.023 12.7832 123.92 12.3503 123.92 11.8262C123.92 11.0469 124.209 10.4613 124.788 10.0693C125.371 9.67741 126.251 9.46094 127.427 9.41992L128.739 9.37207V8.97559C128.739 8.4515 128.616 8.0778 128.37 7.85449C128.129 7.63118 127.787 7.51953 127.345 7.51953C126.967 7.51953 126.6 7.57422 126.244 7.68359C125.889 7.79297 125.542 7.92741 125.205 8.08691L124.686 6.95215C125.055 6.75618 125.474 6.59668 125.943 6.47363C126.417 6.35059 126.91 6.28906 127.42 6.28906ZM128.733 10.3838L127.755 10.418C126.953 10.4453 126.39 10.582 126.066 10.8281C125.743 11.0742 125.581 11.4115 125.581 11.8398C125.581 12.2135 125.693 12.487 125.916 12.6602C126.139 12.8288 126.433 12.9131 126.798 12.9131C127.354 12.9131 127.814 12.7559 128.179 12.4414C128.548 12.1224 128.733 11.6553 128.733 11.04V10.3838ZM134.328 14H132.714V3.36328H134.328V14ZM148.587 14H146.953V9.48828H142.346V14H140.705V4.00586H142.346V8.09375H146.953V4.00586H148.587V14ZM154.223 6.28906C154.898 6.28906 155.476 6.42806 155.959 6.70605C156.443 6.98405 156.814 7.37826 157.074 7.88867C157.334 8.39909 157.463 9.00977 157.463 9.7207V10.582H152.412C152.43 11.3158 152.626 11.8809 153 12.2773C153.378 12.6738 153.906 12.8721 154.585 12.8721C155.069 12.8721 155.501 12.8265 155.884 12.7354C156.272 12.6396 156.67 12.5007 157.081 12.3184V13.624C156.702 13.8018 156.317 13.9316 155.925 14.0137C155.533 14.0957 155.064 14.1367 154.517 14.1367C153.774 14.1367 153.12 13.9932 152.555 13.7061C151.995 13.4144 151.555 12.9814 151.236 12.4072C150.921 11.833 150.764 11.1198 150.764 10.2676C150.764 9.41992 150.908 8.69987 151.195 8.10742C151.482 7.51497 151.885 7.0638 152.405 6.75391C152.924 6.44401 153.53 6.28906 154.223 6.28906ZM154.223 7.49902C153.717 7.49902 153.307 7.66309 152.993 7.99121C152.683 8.31934 152.501 8.80013 152.446 9.43359H155.891C155.887 9.05534 155.823 8.72038 155.7 8.42871C155.581 8.13704 155.399 7.90918 155.153 7.74512C154.911 7.58105 154.601 7.49902 154.223 7.49902ZM162.382 6.28906C163.339 6.28906 164.061 6.50098 164.549 6.9248C165.041 7.34863 165.287 8.00944 165.287 8.90723V14H164.145L163.838 12.9268H163.783C163.569 13.2002 163.348 13.4258 163.12 13.6035C162.892 13.7812 162.628 13.9134 162.327 14C162.031 14.0911 161.669 14.1367 161.24 14.1367C160.789 14.1367 160.386 14.0547 160.03 13.8906C159.675 13.722 159.394 13.4668 159.189 13.125C158.984 12.7832 158.882 12.3503 158.882 11.8262C158.882 11.0469 159.171 10.4613 159.75 10.0693C160.333 9.67741 161.213 9.46094 162.389 9.41992L163.701 9.37207V8.97559C163.701 8.4515 163.578 8.0778 163.332 7.85449C163.09 7.63118 162.749 7.51953 162.307 7.51953C161.928 7.51953 161.561 7.57422 161.206 7.68359C160.85 7.79297 160.504 7.92741 160.167 8.08691L159.647 6.95215C160.016 6.75618 160.436 6.59668 160.905 6.47363C161.379 6.35059 161.871 6.28906 162.382 6.28906ZM163.694 10.3838L162.717 10.418C161.915 10.4453 161.352 10.582 161.028 10.8281C160.705 11.0742 160.543 11.4115 160.543 11.8398C160.543 12.2135 160.655 12.487 160.878 12.6602C161.101 12.8288 161.395 12.9131 161.76 12.9131C162.316 12.9131 162.776 12.7559 163.141 12.4414C163.51 12.1224 163.694 11.6553 163.694 11.04V10.3838ZM169.289 14H167.676V3.36328H169.289V14ZM174.543 12.8379C174.752 12.8379 174.96 12.8197 175.165 12.7832C175.37 12.7422 175.557 12.6943 175.725 12.6396V13.8564C175.547 13.9339 175.317 14 175.035 14.0547C174.752 14.1094 174.458 14.1367 174.153 14.1367C173.725 14.1367 173.339 14.0661 172.998 13.9248C172.656 13.779 172.385 13.5306 172.184 13.1797C171.984 12.8288 171.883 12.3434 171.883 11.7236V7.65625H170.851V6.93848L171.959 6.37109L172.485 4.75098H173.497V6.43262H175.664V7.65625H173.497V11.7031C173.497 12.0859 173.592 12.3708 173.784 12.5576C173.975 12.7445 174.228 12.8379 174.543 12.8379ZM179.01 3.36328V6.03613C179.01 6.31413 179.001 6.58529 178.982 6.84961C178.969 7.11393 178.953 7.31901 178.935 7.46484H179.023C179.183 7.20052 179.379 6.98405 179.611 6.81543C179.844 6.64225 180.103 6.51237 180.391 6.42578C180.682 6.33919 180.992 6.2959 181.32 6.2959C181.899 6.2959 182.391 6.39388 182.797 6.58984C183.202 6.78125 183.512 7.07975 183.727 7.48535C183.945 7.89095 184.055 8.41732 184.055 9.06445V14H182.448V9.36523C182.448 8.77734 182.327 8.33757 182.086 8.0459C181.844 7.74967 181.471 7.60156 180.965 7.60156C180.477 7.60156 180.09 7.7041 179.803 7.90918C179.52 8.1097 179.317 8.4082 179.194 8.80469C179.071 9.19661 179.01 9.67513 179.01 10.2402V14H177.403V3.36328H179.01ZM103.778 32H102.131V23.4004H99.2051V22.0059H106.697V23.4004H103.778V32ZM112.039 24.2891C112.167 24.2891 112.306 24.2959 112.456 24.3096C112.607 24.3232 112.737 24.3415 112.846 24.3643L112.696 25.8682C112.6 25.8408 112.481 25.8203 112.34 25.8066C112.203 25.793 112.08 25.7861 111.971 25.7861C111.684 25.7861 111.411 25.834 111.151 25.9297C110.891 26.0208 110.661 26.1621 110.46 26.3535C110.26 26.5404 110.103 26.7751 109.989 27.0576C109.875 27.3402 109.818 27.6683 109.818 28.042V32H108.204V24.4326H109.462L109.681 25.7656H109.756C109.907 25.4967 110.093 25.2507 110.317 25.0273C110.54 24.804 110.795 24.6263 111.082 24.4941C111.374 24.3574 111.693 24.2891 112.039 24.2891ZM117.354 24.2891C118.311 24.2891 119.034 24.501 119.521 24.9248C120.013 25.3486 120.259 26.0094 120.259 26.9072V32H119.118L118.81 30.9268H118.756C118.541 31.2002 118.32 31.4258 118.092 31.6035C117.865 31.7812 117.6 31.9134 117.3 32C117.003 32.0911 116.641 32.1367 116.213 32.1367C115.761 32.1367 115.358 32.0547 115.003 31.8906C114.647 31.722 114.367 31.4668 114.162 31.125C113.957 30.7832 113.854 30.3503 113.854 29.8262C113.854 29.0469 114.144 28.4613 114.722 28.0693C115.306 27.6774 116.185 27.4609 117.361 27.4199L118.674 27.3721V26.9756C118.674 26.4515 118.551 26.0778 118.304 25.8545C118.063 25.6312 117.721 25.5195 117.279 25.5195C116.901 25.5195 116.534 25.5742 116.178 25.6836C115.823 25.793 115.477 25.9274 115.139 26.0869L114.62 24.9521C114.989 24.7562 115.408 24.5967 115.878 24.4736C116.352 24.3506 116.844 24.2891 117.354 24.2891ZM118.667 28.3838L117.689 28.418C116.887 28.4453 116.324 28.582 116.001 28.8281C115.677 29.0742 115.515 29.4115 115.515 29.8398C115.515 30.2135 115.627 30.487 115.85 30.6602C116.074 30.8288 116.368 30.9131 116.732 30.9131C117.288 30.9131 117.748 30.7559 118.113 30.4414C118.482 30.1224 118.667 29.6553 118.667 29.04V28.3838ZM126.593 24.2891C127.445 24.2891 128.108 24.5101 128.582 24.9521C129.061 25.3896 129.3 26.0938 129.3 27.0645V32H127.693V27.3652C127.693 26.7773 127.573 26.3376 127.331 26.0459C127.09 25.7497 126.716 25.6016 126.21 25.6016C125.476 25.6016 124.966 25.8271 124.679 26.2783C124.396 26.7295 124.255 27.3835 124.255 28.2402V32H122.649V24.4326H123.899L124.125 25.458H124.214C124.378 25.1937 124.581 24.9772 124.822 24.8086C125.068 24.6354 125.342 24.5055 125.643 24.4189C125.948 24.3324 126.265 24.2891 126.593 24.2891ZM136.775 29.8398C136.775 30.3366 136.654 30.7559 136.413 31.0977C136.171 31.4395 135.818 31.6992 135.353 31.877C134.893 32.0501 134.328 32.1367 133.658 32.1367C133.129 32.1367 132.673 32.098 132.29 32.0205C131.912 31.9476 131.554 31.8337 131.217 31.6787V30.291C131.577 30.4596 131.981 30.6055 132.427 30.7285C132.878 30.8516 133.304 30.9131 133.706 30.9131C134.234 30.9131 134.615 30.8311 134.847 30.667C135.08 30.4984 135.196 30.2751 135.196 29.9971C135.196 29.833 135.148 29.6872 135.052 29.5596C134.961 29.4274 134.788 29.293 134.533 29.1562C134.282 29.015 133.913 28.8464 133.425 28.6504C132.947 28.459 132.543 28.2676 132.215 28.0762C131.887 27.8848 131.639 27.6546 131.47 27.3857C131.302 27.1123 131.217 26.7637 131.217 26.3398C131.217 25.6699 131.482 25.1618 132.01 24.8154C132.543 24.4645 133.247 24.2891 134.122 24.2891C134.587 24.2891 135.025 24.3369 135.435 24.4326C135.85 24.5238 136.255 24.6582 136.652 24.8359L136.146 26.0459C135.804 25.8955 135.46 25.7725 135.114 25.6768C134.772 25.5765 134.423 25.5264 134.068 25.5264C133.653 25.5264 133.336 25.5902 133.118 25.7178C132.903 25.8454 132.796 26.0277 132.796 26.2646C132.796 26.4424 132.849 26.5928 132.954 26.7158C133.058 26.8389 133.238 26.9619 133.494 27.085C133.753 27.208 134.113 27.3607 134.574 27.543C135.025 27.7161 135.414 27.8984 135.743 28.0898C136.075 28.2767 136.331 28.5068 136.508 28.7803C136.686 29.0537 136.775 29.4069 136.775 29.8398ZM142.431 25.6562H140.593V32H138.986V25.6562H137.749V24.8838L138.986 24.4121V23.8857C138.986 23.2432 139.086 22.7327 139.287 22.3545C139.492 21.9762 139.784 21.7051 140.162 21.541C140.545 21.3724 141 21.2881 141.529 21.2881C141.875 21.2881 142.192 21.3177 142.479 21.377C142.766 21.4316 143.008 21.4954 143.204 21.5684L142.787 22.7852C142.632 22.735 142.459 22.6895 142.267 22.6484C142.076 22.6029 141.871 22.5801 141.652 22.5801C141.288 22.5801 141.019 22.694 140.846 22.9219C140.677 23.1497 140.593 23.4824 140.593 23.9199V24.4326H142.431V25.6562ZM150.563 28.1992C150.563 28.8281 150.481 29.3864 150.317 29.874C150.153 30.3617 149.913 30.7741 149.599 31.1113C149.284 31.444 148.906 31.6992 148.464 31.877C148.022 32.0501 147.523 32.1367 146.967 32.1367C146.447 32.1367 145.971 32.0501 145.538 31.877C145.105 31.6992 144.729 31.444 144.41 31.1113C144.096 30.7741 143.852 30.3617 143.679 29.874C143.506 29.3864 143.419 28.8281 143.419 28.1992C143.419 27.3652 143.563 26.6589 143.85 26.0801C144.141 25.4967 144.556 25.0524 145.094 24.7471C145.632 24.4417 146.272 24.2891 147.015 24.2891C147.712 24.2891 148.327 24.4417 148.861 24.7471C149.394 25.0524 149.811 25.4967 150.111 26.0801C150.412 26.6634 150.563 27.3698 150.563 28.1992ZM145.073 28.1992C145.073 28.7507 145.139 29.2223 145.272 29.6143C145.408 30.0062 145.618 30.307 145.901 30.5166C146.183 30.7217 146.548 30.8242 146.994 30.8242C147.441 30.8242 147.805 30.7217 148.088 30.5166C148.371 30.307 148.578 30.0062 148.71 29.6143C148.842 29.2223 148.908 28.7507 148.908 28.1992C148.908 27.6478 148.842 27.1807 148.71 26.7979C148.578 26.4105 148.371 26.1165 148.088 25.916C147.805 25.7109 147.439 25.6084 146.987 25.6084C146.322 25.6084 145.837 25.8317 145.531 26.2783C145.226 26.7249 145.073 27.3652 145.073 28.1992ZM156.383 24.2891C156.511 24.2891 156.65 24.2959 156.8 24.3096C156.951 24.3232 157.081 24.3415 157.19 24.3643L157.04 25.8682C156.944 25.8408 156.825 25.8203 156.684 25.8066C156.547 25.793 156.424 25.7861 156.315 25.7861C156.028 25.7861 155.754 25.834 155.495 25.9297C155.235 26.0208 155.005 26.1621 154.804 26.3535C154.604 26.5404 154.446 26.7751 154.333 27.0576C154.219 27.3402 154.162 27.6683 154.162 28.042V32H152.548V24.4326H153.806L154.025 25.7656H154.1C154.251 25.4967 154.437 25.2507 154.661 25.0273C154.884 24.804 155.139 24.6263 155.426 24.4941C155.718 24.3574 156.037 24.2891 156.383 24.2891ZM167.283 24.2891C168.131 24.2891 168.769 24.5078 169.197 24.9453C169.63 25.3828 169.847 26.0846 169.847 27.0508V32H168.24V27.3379C168.24 26.7637 168.128 26.3307 167.905 26.0391C167.682 25.7474 167.342 25.6016 166.887 25.6016C166.249 25.6016 165.788 25.8066 165.506 26.2168C165.228 26.6224 165.089 27.2126 165.089 27.9873V32H163.482V27.3379C163.482 26.9551 163.432 26.6361 163.332 26.3809C163.236 26.1211 163.088 25.9274 162.888 25.7998C162.687 25.6676 162.434 25.6016 162.129 25.6016C161.687 25.6016 161.334 25.7018 161.069 25.9023C160.809 26.1029 160.623 26.3991 160.509 26.791C160.395 27.1784 160.338 27.6546 160.338 28.2197V32H158.731V24.4326H159.982L160.208 25.4512H160.297C160.452 25.1868 160.643 24.9704 160.871 24.8018C161.103 24.6286 161.361 24.501 161.643 24.4189C161.926 24.3324 162.22 24.2891 162.525 24.2891C163.09 24.2891 163.567 24.3893 163.954 24.5898C164.341 24.7858 164.631 25.0866 164.822 25.4922H164.945C165.182 25.082 165.513 24.779 165.936 24.583C166.36 24.387 166.809 24.2891 167.283 24.2891ZM175.196 24.2891C176.153 24.2891 176.875 24.501 177.363 24.9248C177.855 25.3486 178.101 26.0094 178.101 26.9072V32H176.959L176.652 30.9268H176.597C176.383 31.2002 176.162 31.4258 175.934 31.6035C175.706 31.7812 175.442 31.9134 175.141 32C174.845 32.0911 174.482 32.1367 174.054 32.1367C173.603 32.1367 173.199 32.0547 172.844 31.8906C172.489 31.722 172.208 31.4668 172.003 31.125C171.798 30.7832 171.696 30.3503 171.696 29.8262C171.696 29.0469 171.985 28.4613 172.564 28.0693C173.147 27.6774 174.027 27.4609 175.202 27.4199L176.515 27.3721V26.9756C176.515 26.4515 176.392 26.0778 176.146 25.8545C175.904 25.6312 175.562 25.5195 175.12 25.5195C174.742 25.5195 174.375 25.5742 174.02 25.6836C173.664 25.793 173.318 25.9274 172.981 26.0869L172.461 24.9521C172.83 24.7562 173.25 24.5967 173.719 24.4736C174.193 24.3506 174.685 24.2891 175.196 24.2891ZM176.508 28.3838L175.531 28.418C174.728 28.4453 174.166 28.582 173.842 28.8281C173.518 29.0742 173.357 29.4115 173.357 29.8398C173.357 30.2135 173.468 30.487 173.692 30.6602C173.915 30.8288 174.209 30.9131 174.573 30.9131C175.129 30.9131 175.59 30.7559 175.954 30.4414C176.323 30.1224 176.508 29.6553 176.508 29.04V28.3838ZM183.306 30.8379C183.516 30.8379 183.723 30.8197 183.928 30.7832C184.133 30.7422 184.32 30.6943 184.489 30.6396V31.8564C184.311 31.9339 184.081 32 183.798 32.0547C183.516 32.1094 183.222 32.1367 182.917 32.1367C182.488 32.1367 182.103 32.0661 181.761 31.9248C181.42 31.779 181.148 31.5306 180.948 31.1797C180.747 30.8288 180.647 30.3434 180.647 29.7236V25.6562H179.615V24.9385L180.722 24.3711L181.249 22.751H182.26V24.4326H184.427V25.6562H182.26V29.7031C182.26 30.0859 182.356 30.3708 182.547 30.5576C182.739 30.7445 182.992 30.8379 183.306 30.8379ZM187.773 24.4326V32H186.167V24.4326H187.773ZM186.98 21.5342C187.227 21.5342 187.438 21.6003 187.616 21.7324C187.798 21.8646 187.89 22.0924 187.89 22.416C187.89 22.735 187.798 22.9629 187.616 23.0996C187.438 23.2318 187.227 23.2979 186.98 23.2979C186.725 23.2979 186.509 23.2318 186.331 23.0996C186.158 22.9629 186.071 22.735 186.071 22.416C186.071 22.0924 186.158 21.8646 186.331 21.7324C186.509 21.6003 186.725 21.5342 186.98 21.5342ZM196.916 28.1992C196.916 28.8281 196.834 29.3864 196.67 29.874C196.506 30.3617 196.267 30.7741 195.952 31.1113C195.638 31.444 195.26 31.6992 194.818 31.877C194.376 32.0501 193.877 32.1367 193.321 32.1367C192.801 32.1367 192.325 32.0501 191.892 31.877C191.459 31.6992 191.083 31.444 190.764 31.1113C190.45 30.7741 190.206 30.3617 190.033 29.874C189.859 29.3864 189.773 28.8281 189.773 28.1992C189.773 27.3652 189.916 26.6589 190.203 26.0801C190.495 25.4967 190.91 25.0524 191.448 24.7471C191.985 24.4417 192.626 24.2891 193.368 24.2891C194.066 24.2891 194.681 24.4417 195.214 24.7471C195.747 25.0524 196.164 25.4967 196.465 26.0801C196.766 26.6634 196.916 27.3698 196.916 28.1992ZM191.427 28.1992C191.427 28.7507 191.493 29.2223 191.625 29.6143C191.762 30.0062 191.972 30.307 192.254 30.5166C192.537 30.7217 192.901 30.8242 193.348 30.8242C193.795 30.8242 194.159 30.7217 194.442 30.5166C194.724 30.307 194.932 30.0062 195.064 29.6143C195.196 29.2223 195.262 28.7507 195.262 28.1992C195.262 27.6478 195.196 27.1807 195.064 26.7979C194.932 26.4105 194.724 26.1165 194.442 25.916C194.159 25.7109 193.792 25.6084 193.341 25.6084C192.676 25.6084 192.19 25.8317 191.885 26.2783C191.58 26.7249 191.427 27.3652 191.427 28.1992ZM202.846 24.2891C203.699 24.2891 204.362 24.5101 204.836 24.9521C205.314 25.3896 205.553 26.0938 205.553 27.0645V32H203.947V27.3652C203.947 26.7773 203.826 26.3376 203.585 26.0459C203.343 25.7497 202.969 25.6016 202.464 25.6016C201.73 25.6016 201.219 25.8271 200.932 26.2783C200.65 26.7295 200.508 27.3835 200.508 28.2402V32H198.902V24.4326H200.153L200.379 25.458H200.467C200.632 25.1937 200.834 24.9772 201.076 24.8086C201.322 24.6354 201.595 24.5055 201.896 24.4189C202.202 24.3324 202.518 24.2891 202.846 24.2891ZM214.788 22.0059C216.078 22.0059 217.019 22.2702 217.612 22.7988C218.204 23.3275 218.5 24.068 218.5 25.0205C218.5 25.4535 218.432 25.8659 218.295 26.2578C218.163 26.6452 217.944 26.9893 217.639 27.29C217.334 27.5863 216.93 27.821 216.429 27.9941C215.932 28.1673 215.319 28.2539 214.59 28.2539H213.524V32H211.883V22.0059H214.788ZM214.679 23.3662H213.524V26.8867H214.419C214.934 26.8867 215.372 26.8275 215.732 26.709C216.092 26.5859 216.365 26.3923 216.552 26.1279C216.739 25.8636 216.832 25.515 216.832 25.082C216.832 24.5033 216.657 24.0726 216.306 23.79C215.96 23.5075 215.417 23.3662 214.679 23.3662ZM224.307 24.2891C224.435 24.2891 224.574 24.2959 224.724 24.3096C224.875 24.3232 225.005 24.3415 225.114 24.3643L224.964 25.8682C224.868 25.8408 224.749 25.8203 224.608 25.8066C224.471 25.793 224.348 25.7861 224.239 25.7861C223.952 25.7861 223.678 25.834 223.419 25.9297C223.159 26.0208 222.929 26.1621 222.728 26.3535C222.528 26.5404 222.371 26.7751 222.257 27.0576C222.143 27.3402 222.086 27.6683 222.086 28.042V32H220.472V24.4326H221.73L221.949 25.7656H222.024C222.175 25.4967 222.361 25.2507 222.585 25.0273C222.808 24.804 223.063 24.6263 223.35 24.4941C223.642 24.3574 223.961 24.2891 224.307 24.2891ZM233.355 28.1992C233.355 28.8281 233.273 29.3864 233.109 29.874C232.944 30.3617 232.705 30.7741 232.391 31.1113C232.076 31.444 231.698 31.6992 231.256 31.877C230.814 32.0501 230.315 32.1367 229.759 32.1367C229.239 32.1367 228.763 32.0501 228.33 31.877C227.897 31.6992 227.521 31.444 227.202 31.1113C226.888 30.7741 226.644 30.3617 226.471 29.874C226.298 29.3864 226.211 28.8281 226.211 28.1992C226.211 27.3652 226.355 26.6589 226.642 26.0801C226.933 25.4967 227.348 25.0524 227.886 24.7471C228.424 24.4417 229.064 24.2891 229.807 24.2891C230.504 24.2891 231.119 24.4417 231.652 24.7471C232.186 25.0524 232.603 25.4967 232.903 26.0801C233.204 26.6634 233.355 27.3698 233.355 28.1992ZM227.865 28.1992C227.865 28.7507 227.931 29.2223 228.064 29.6143C228.2 30.0062 228.41 30.307 228.692 30.5166C228.975 30.7217 229.34 30.8242 229.786 30.8242C230.233 30.8242 230.597 30.7217 230.88 30.5166C231.163 30.307 231.37 30.0062 231.502 29.6143C231.634 29.2223 231.7 28.7507 231.7 28.1992C231.7 27.6478 231.634 27.1807 231.502 26.7979C231.37 26.4105 231.163 26.1165 230.88 25.916C230.597 25.7109 230.231 25.6084 229.779 25.6084C229.114 25.6084 228.629 25.8317 228.323 26.2783C228.018 26.7249 227.865 27.3652 227.865 28.1992ZM237.5 35.3633C236.475 35.3633 235.689 35.1787 235.142 34.8096C234.595 34.4404 234.322 33.9232 234.322 33.2578C234.322 32.793 234.468 32.3988 234.759 32.0752C235.051 31.7562 235.468 31.5352 236.01 31.4121C235.805 31.321 235.627 31.1797 235.477 30.9883C235.331 30.7923 235.258 30.5758 235.258 30.3389C235.258 30.0563 235.338 29.8148 235.498 29.6143C235.657 29.4137 235.896 29.2201 236.215 29.0332C235.819 28.8646 235.5 28.5911 235.258 28.2129C235.021 27.8301 234.903 27.3812 234.903 26.8662C234.903 26.3193 235.019 25.8545 235.251 25.4717C235.484 25.0843 235.823 24.7904 236.27 24.5898C236.717 24.3848 237.257 24.2822 237.89 24.2822C238.027 24.2822 238.175 24.2913 238.334 24.3096C238.499 24.3232 238.649 24.3415 238.786 24.3643C238.927 24.3825 239.034 24.403 239.107 24.4258H241.725V25.3213L240.44 25.5605C240.563 25.7337 240.661 25.932 240.734 26.1553C240.807 26.374 240.843 26.6133 240.843 26.873C240.843 27.6569 240.572 28.2744 240.03 28.7256C239.492 29.1722 238.749 29.3955 237.801 29.3955C237.573 29.3864 237.352 29.3682 237.138 29.3408C236.974 29.4411 236.849 29.5527 236.762 29.6758C236.676 29.7943 236.632 29.9287 236.632 30.0791C236.632 30.2021 236.676 30.3024 236.762 30.3799C236.849 30.4528 236.976 30.5075 237.145 30.5439C237.318 30.5804 237.528 30.5986 237.774 30.5986H239.08C239.909 30.5986 240.542 30.7741 240.98 31.125C241.417 31.4759 241.636 31.9909 241.636 32.6699C241.636 33.5312 241.281 34.1943 240.57 34.6592C239.859 35.1286 238.836 35.3633 237.5 35.3633ZM237.562 34.2354C238.123 34.2354 238.594 34.1807 238.977 34.0713C239.36 33.9619 239.649 33.8047 239.845 33.5996C240.041 33.3991 240.139 33.1598 240.139 32.8818C240.139 32.6357 240.078 32.4466 239.955 32.3145C239.832 32.1823 239.647 32.0911 239.401 32.041C239.155 31.9909 238.849 31.9658 238.485 31.9658H237.295C236.999 31.9658 236.737 32.0114 236.509 32.1025C236.281 32.1982 236.104 32.335 235.976 32.5127C235.853 32.6904 235.791 32.9046 235.791 33.1553C235.791 33.5016 235.944 33.7682 236.249 33.9551C236.559 34.1419 236.997 34.2354 237.562 34.2354ZM237.876 28.3428C238.346 28.3428 238.694 28.2152 238.922 27.96C239.15 27.7002 239.264 27.3356 239.264 26.8662C239.264 26.3558 239.146 25.973 238.909 25.7178C238.676 25.4626 238.33 25.335 237.87 25.335C237.418 25.335 237.074 25.4648 236.837 25.7246C236.605 25.9844 236.489 26.3695 236.489 26.8799C236.489 27.3402 236.605 27.7002 236.837 27.96C237.074 28.2152 237.421 28.3428 237.876 28.3428ZM247.081 24.2891C247.209 24.2891 247.348 24.2959 247.498 24.3096C247.648 24.3232 247.778 24.3415 247.888 24.3643L247.737 25.8682C247.641 25.8408 247.523 25.8203 247.382 25.8066C247.245 25.793 247.122 25.7861 247.013 25.7861C246.725 25.7861 246.452 25.834 246.192 25.9297C245.932 26.0208 245.702 26.1621 245.502 26.3535C245.301 26.5404 245.144 26.7751 245.03 27.0576C244.916 27.3402 244.859 27.6683 244.859 28.042V32H243.246V24.4326H244.504L244.723 25.7656H244.798C244.948 25.4967 245.135 25.2507 245.358 25.0273C245.582 24.804 245.837 24.6263 246.124 24.4941C246.416 24.3574 246.735 24.2891 247.081 24.2891ZM252.396 24.2891C253.353 24.2891 254.075 24.501 254.563 24.9248C255.055 25.3486 255.301 26.0094 255.301 26.9072V32H254.159L253.852 30.9268H253.797C253.583 31.2002 253.362 31.4258 253.134 31.6035C252.906 31.7812 252.642 31.9134 252.341 32C252.045 32.0911 251.682 32.1367 251.254 32.1367C250.803 32.1367 250.4 32.0547 250.044 31.8906C249.689 31.722 249.408 31.4668 249.203 31.125C248.998 30.7832 248.896 30.3503 248.896 29.8262C248.896 29.0469 249.185 28.4613 249.764 28.0693C250.347 27.6774 251.227 27.4609 252.403 27.4199L253.715 27.3721V26.9756C253.715 26.4515 253.592 26.0778 253.346 25.8545C253.104 25.6312 252.763 25.5195 252.321 25.5195C251.942 25.5195 251.575 25.5742 251.22 25.6836C250.864 25.793 250.518 25.9274 250.181 26.0869L249.661 24.9521C250.03 24.7562 250.45 24.5967 250.919 24.4736C251.393 24.3506 251.885 24.2891 252.396 24.2891ZM253.708 28.3838L252.731 28.418C251.929 28.4453 251.366 28.582 251.042 28.8281C250.719 29.0742 250.557 29.4115 250.557 29.8398C250.557 30.2135 250.668 30.487 250.892 30.6602C251.115 30.8288 251.409 30.9131 251.774 30.9131C252.33 30.9131 252.79 30.7559 253.154 30.4414C253.524 30.1224 253.708 29.6553 253.708 29.04V28.3838ZM266.242 24.2891C267.089 24.2891 267.727 24.5078 268.156 24.9453C268.589 25.3828 268.805 26.0846 268.805 27.0508V32H267.199V27.3379C267.199 26.7637 267.087 26.3307 266.864 26.0391C266.641 25.7474 266.301 25.6016 265.845 25.6016C265.207 25.6016 264.747 25.8066 264.464 26.2168C264.186 26.6224 264.047 27.2126 264.047 27.9873V32H262.441V27.3379C262.441 26.9551 262.391 26.6361 262.291 26.3809C262.195 26.1211 262.047 25.9274 261.846 25.7998C261.646 25.6676 261.393 25.6016 261.087 25.6016C260.645 25.6016 260.292 25.7018 260.028 25.9023C259.768 26.1029 259.581 26.3991 259.467 26.791C259.353 27.1784 259.296 27.6546 259.296 28.2197V32H257.69V24.4326H258.941L259.167 25.4512H259.255C259.41 25.1868 259.602 24.9704 259.83 24.8018C260.062 24.6286 260.32 24.501 260.602 24.4189C260.885 24.3324 261.179 24.2891 261.484 24.2891C262.049 24.2891 262.525 24.3893 262.913 24.5898C263.3 24.7858 263.589 25.0866 263.781 25.4922H263.904C264.141 25.082 264.471 24.779 264.895 24.583C265.319 24.387 265.768 24.2891 266.242 24.2891Z" fill="#5A5A5A"/>
<line x1="88.5" y1="1" x2="88.5" y2="35" stroke="#D9D9D9"/>
</svg>
