<svg width="24" height="24" viewBox="0 0 24 24" fill="none" xmlns="http://www.w3.org/2000/svg">
<path d="M12.6208 4.26038C12.279 3.91321 11.7238 3.91321 11.3819 4.26038L8.7564 6.9267C8.41453 7.27388 8.41453 7.83769 8.7564 8.18487C9.09826 8.53205 9.65345 8.53205 9.99531 8.18487L11.1276 7.03502V16.9615L9.99531 15.8144C9.65345 15.4673 9.09826 15.4673 8.7564 15.8144C8.41453 16.1616 8.41453 16.7254 8.7564 17.0726L11.3819 19.7389C11.546 19.9056 11.7675 20 12 20C12.2325 20 12.454 19.9056 12.6181 19.7389L15.2436 17.0726C15.5855 16.7254 15.5855 16.1616 15.2436 15.8144C14.9017 15.4673 14.3466 15.4673 14.0047 15.8144L12.8724 16.9643V7.03502L14.0047 8.18487C14.3466 8.53205 14.9017 8.53205 15.2436 8.18487C15.5855 7.83769 15.5855 7.27388 15.2436 6.9267L12.6181 4.26038H12.6208Z" fill="#5A5A5A"/>
</svg>
