<svg width="24" height="24" viewBox="0 0 24 24" fill="none" xmlns="http://www.w3.org/2000/svg">
<path d="M12.6353 4.2604C12.2839 3.9132 11.7133 3.9132 11.3619 4.2604L7.7635 7.8161C7.4122 8.1634 7.4122 8.7273 7.7635 9.0745C8.1149 9.4218 8.6856 9.4218 9.037 9.0745L11.1004 7.0355L11.1004 19.1111C11.1004 19.6028 11.5024 20 12 20C12.4976 20 12.8996 19.6028 12.8996 19.1111L12.8996 7.0355L14.963 9.0745C15.3144 9.4218 15.8851 9.4218 16.2365 9.0745C16.5879 8.7273 16.5879 8.1634 16.2365 7.8161L12.6381 4.2604L12.6353 4.2604Z" fill="#5A5A5A"/>
</svg>
