<svg width="13" height="16" viewBox="0 0 13 16" fill="none" xmlns="http://www.w3.org/2000/svg">
<g clip-path="url(#clip0_18_6140)">
<path fill-rule="evenodd" clip-rule="evenodd" d="M8.05091 5H12.4655V15.2502C12.4655 15.6655 12.1178 16 11.6858 16H0.778909C0.347636 16 0 15.6655 0 15.2502V0.749091C0 0.334545 0.347636 0 0.778909 0H7.27127V4.25018C7.27127 4.66255 7.62182 5 8.05018 5H8.05091ZM12.2378 3.28145L9.05673 0.218182C8.91127 0.0778182 8.71273 0 8.50473 0H8.30982V4H12.4655V3.80945C12.4655 3.61309 12.384 3.42182 12.2378 3.28145Z" fill="#0071BC"/>
<path fill-rule="evenodd" clip-rule="evenodd" d="M4.40514 9.29309C4.40514 9.74764 4.27132 10.0982 4.00368 10.3462C3.73532 10.5935 3.35495 10.7171 2.86186 10.7171H2.5535V12.0662H1.45459V8H2.86186C3.37532 8 3.76077 8.112 4.01823 8.33673C4.27641 8.56073 4.40514 8.88 4.40514 9.29309ZM2.5535 9.82182H2.7535C2.91859 9.82182 3.0495 9.77527 3.14695 9.68291C3.24441 9.58982 3.29241 9.46182 3.29241 9.29891C3.29241 9.02473 3.14114 8.88727 2.83714 8.88727H2.5535V9.82182ZM8.50477 9.94691C8.50477 10.6255 8.31786 11.1484 7.94477 11.5156C7.57095 11.8822 7.04586 12.0662 6.36877 12.0662H5.05314V8H6.46041C7.1135 8 7.61677 8.16727 7.97241 8.50036C8.32732 8.83491 8.50477 9.31636 8.50477 9.94691ZM7.36441 9.98545C7.36441 9.61309 7.29095 9.33673 7.14332 9.15636C6.99641 8.97745 6.77241 8.88727 6.47204 8.88727H6.15204V11.1651H6.39641C6.73095 11.1651 6.97532 11.0684 7.13095 10.8742C7.28659 10.6807 7.36441 10.3847 7.36441 9.98545ZM10.3157 12.0655H9.2335V8H11.6364V8.88145H10.3157V9.65745H11.5339V10.5389H10.3157V12.0662V12.0655Z" fill="white"/>
</g>
<defs>
<clipPath id="clip0_18_6140">
<rect width="12.4655" height="16" fill="white"/>
</clipPath>
</defs>
</svg>
