<svg width="22" height="22" viewBox="0 0 22 22" fill="none" xmlns="http://www.w3.org/2000/svg">
<path fill-rule="evenodd" clip-rule="evenodd" d="M20.525 5.47846C19.5414 3.79324 18.2071 2.45892 16.5219 1.47532C14.8363 0.491713 12.9962 0 11.0004 0C9.00467 0 7.16404 0.491713 5.47882 1.47532C3.79342 2.45874 2.45909 3.79307 1.47549 5.47846C0.491713 7.16386 0 9.00449 0 11C0 12.9957 0.491889 14.836 1.47532 16.5215C2.45892 18.2066 3.79324 19.5411 5.47864 20.5247C7.16404 21.5083 9.00449 22 11.0002 22C12.9959 22 14.8365 21.5083 16.5217 20.5247C18.2069 19.5413 19.5413 18.2068 20.5249 16.5215C21.5083 14.8361 22 12.9955 22 11C22 9.00432 21.5083 7.16369 20.525 5.47846ZM18.1327 9.32427L10.3555 17.1015C10.1741 17.2829 9.95452 17.3738 9.69662 17.3738C9.44839 17.3738 9.23356 17.2829 9.05213 17.1015L3.86708 11.9168C3.69532 11.7447 3.60936 11.5302 3.60936 11.2723C3.60936 11.0049 3.69515 10.7852 3.86708 10.6132L5.17046 9.32427C5.35206 9.14285 5.56672 9.05213 5.81512 9.05213C6.06353 9.05213 6.27836 9.14285 6.45978 9.32427L9.69679 12.5613L15.5406 6.73174C15.722 6.55032 15.9368 6.45961 16.1851 6.45961C16.4331 6.45961 16.6483 6.55032 16.8295 6.73174L18.1329 8.02089C18.305 8.19265 18.3908 8.41222 18.3908 8.67961C18.3908 8.93751 18.305 9.15234 18.1327 9.32427Z" fill="#262626"/>
</svg>
