<svg width="22" height="22" viewBox="0 0 22 22" fill="none" xmlns="http://www.w3.org/2000/svg">
<path fill-rule="evenodd" clip-rule="evenodd" d="M20.525 5.47846C19.5414 3.79324 18.2071 2.45892 16.5219 1.47532C14.8363 0.491713 12.9962 0 11.0004 0C9.00467 0 7.16404 0.491713 5.47882 1.47532C3.79342 2.45874 2.45909 3.79307 1.47549 5.47846C0.491714 7.16386 0 9.00449 0 11C0 12.9957 0.491889 14.836 1.47532 16.5215C2.45892 18.2066 3.79324 19.5411 5.47864 20.5247C7.16404 21.5083 9.00449 22 11.0002 22C12.9959 22 14.8365 21.5083 16.5217 20.5247C18.2069 19.5413 19.5413 18.2068 20.5249 16.5215C21.5083 14.8361 22 12.9955 22 11C22 9.00432 21.5083 7.16369 20.525 5.47846ZM9.16693 2.74987C9.16693 2.61608 9.20982 2.50638 9.29579 2.42042C9.38176 2.33463 9.49163 2.29156 9.62524 2.29156H12.3755C12.5091 2.29156 12.6189 2.33463 12.7046 2.42042C12.7903 2.50638 12.8336 2.61608 12.8336 2.74987V5.0416C12.8336 5.17521 12.7903 5.28508 12.7046 5.37088C12.6189 5.45684 12.5091 5.49974 12.3755 5.49974H9.62524C9.49163 5.49974 9.38176 5.45684 9.29579 5.37088C9.20982 5.28508 9.16693 5.17521 9.16693 5.0416V2.74987ZM14.6668 17.875C14.6668 18.0086 14.6236 18.1185 14.538 18.2041C14.4524 18.2901 14.3425 18.333 14.2085 18.333H7.79182C7.65804 18.333 7.54834 18.2901 7.46237 18.2041C7.3764 18.1183 7.33351 18.0085 7.33351 17.8748V15.5831C7.33351 15.4492 7.3764 15.3396 7.46237 15.2537C7.54834 15.1679 7.65821 15.1248 7.79182 15.1248H9.16693V10.5415H7.79182C7.65804 10.5415 7.54834 10.4986 7.46237 10.4127C7.3764 10.3269 7.33351 10.217 7.33351 10.0832V7.79165C7.33351 7.65786 7.3764 7.54816 7.46237 7.46219C7.54834 7.37623 7.65821 7.33333 7.79182 7.33333H12.3755C12.5091 7.33333 12.6189 7.37623 12.7046 7.46219C12.7903 7.54816 12.8336 7.65786 12.8336 7.79165V15.125H14.2084C14.3421 15.125 14.452 15.168 14.5378 15.2538C14.6234 15.3396 14.6667 15.4495 14.6667 15.5833V17.875H14.6668Z" fill="#262626"/>
</svg>
