<svg width="23" height="23" viewBox="0 0 23 23" fill="none" xmlns="http://www.w3.org/2000/svg">
<path fill-rule="evenodd" clip-rule="evenodd" d="M11.7679 22.9107C17.9197 22.9107 22.9107 17.9197 22.9107 11.7679C22.9107 5.61608 17.9197 0.625 11.7679 0.625C5.61608 0.625 0.625 5.61608 0.625 11.7679C0.625 17.9197 5.61608 22.9107 11.7679 22.9107ZM13.1027 14.0893H10.4185C10.1429 14.0893 9.92523 13.9297 9.92523 13.7266L9.67858 4.71652C9.67858 4.61496 9.72211 4.5134 9.82367 4.45536C9.91073 4.38282 10.0413 4.33929 10.1719 4.33929H13.3639C13.4944 4.33929 13.625 4.38282 13.7121 4.45536C13.8136 4.5134 13.8572 4.61496 13.8572 4.71652L13.596 13.7266C13.5815 13.9297 13.3639 14.0893 13.1027 14.0893ZM13.1752 19.1965H10.3895C10.1284 19.1965 9.91073 18.9788 9.91073 18.7177V15.961C9.91073 15.6998 10.1284 15.4822 10.3895 15.4822H13.1752C13.4219 15.4822 13.625 15.6998 13.625 15.961V18.7177C13.625 18.9788 13.4219 19.1965 13.1752 19.1965Z" fill="#262626"/>
</svg>
