<svg width="22" height="21" viewBox="0 0 22 21" fill="none" xmlns="http://www.w3.org/2000/svg">
<path fill-rule="evenodd" clip-rule="evenodd" d="M21.7911 18.0879L12.3736 0.821703C12.2392 0.572964 12.0399 0.365317 11.7968 0.220853C11.5566 0.0750189 11.2809 -0.00141041 10.9999 4.95696e-05C10.7137 4.95696e-05 10.4479 0.0738012 10.2028 0.220853C9.95756 0.367905 9.76536 0.568238 9.62643 0.821703L0.20865 18.0879C-0.0774763 18.6031 -0.0693486 19.1181 0.233184 19.6332C0.370196 19.8681 0.566963 20.0628 0.80348 20.197C1.0398 20.3349 1.30868 20.4068 1.58224 20.4058H20.4177C20.696 20.4058 20.9553 20.3361 21.1966 20.197C21.433 20.0628 21.6299 19.8681 21.7669 19.6332C22.0694 19.118 22.0775 18.6031 21.7911 18.0879ZM12.5699 16.8615C12.5699 16.9759 12.5309 17.0719 12.4535 17.1496C12.3759 17.2272 12.2839 17.2659 12.1775 17.2659H9.823C9.71674 17.2659 9.62478 17.2272 9.54711 17.1496C9.46945 17.0717 9.43062 16.9759 9.43062 16.8615V14.5315C9.43062 14.4171 9.46945 14.3213 9.54711 14.2434C9.62478 14.1658 9.71659 14.1271 9.823 14.1271H12.1773C12.2838 14.1271 12.3757 14.1658 12.4534 14.2434C12.5309 14.3213 12.5697 14.4171 12.5697 14.5315V16.8615H12.5699ZM12.5455 12.2753C12.5371 12.3571 12.4942 12.4245 12.4167 12.4776C12.3388 12.5309 12.243 12.5572 12.1284 12.5572H9.85973C9.74534 12.5572 9.64721 12.5307 9.56548 12.4776C9.4836 12.4243 9.44281 12.3571 9.44281 12.275L9.23435 6.67125C9.23435 6.55671 9.27529 6.47092 9.35701 6.41372C9.46328 6.32387 9.56141 6.27886 9.65142 6.27886H12.3492C12.4392 6.27886 12.5374 6.32372 12.6436 6.41372C12.7254 6.47092 12.766 6.54858 12.766 6.64672L12.5455 12.2753Z" fill="#262626"/>
</svg>
