<svg width="16" height="16" viewBox="0 0 16 16" fill="none" xmlns="http://www.w3.org/2000/svg">
<path fill-rule="evenodd" clip-rule="evenodd" d="M7.07623 3.29597L0.388634 9.98849C0.130188 10.2371 0.00034926 10.5423 0.000349227 10.9134C-0.00377448 11.0861 0.0286552 11.2577 0.095605 11.417C0.162493 11.5763 0.262364 11.7197 0.388634 11.8376L1.15905 12.6185C1.41134 12.8708 1.72025 13 2.0833 13C2.4402 13 2.7528 12.8739 3.01863 12.6185L8.00048 7.62986L12.9891 12.6185C13.2414 12.8708 13.5509 13 13.914 13C14.2696 13 14.5829 12.8739 14.8493 12.6185L15.6185 11.8382C15.8708 11.5859 16 11.277 16 10.914C16 10.5509 15.8739 10.2414 15.6185 9.9891L8.93581 3.29597C8.66937 3.04429 8.35677 2.91445 8.00048 2.91445C7.63743 2.91445 7.32791 3.0406 7.07623 3.29597Z" fill="#0071BC"/>
</svg>
