<svg width="16" height="16" viewBox="0 0 16 16" fill="none" xmlns="http://www.w3.org/2000/svg">
<path fill-rule="evenodd" clip-rule="evenodd" d="M8.92377 12.704L15.6114 6.01151C15.8698 5.76291 15.9997 5.4577 15.9997 5.08664C16.0038 4.91391 15.9713 4.74226 15.9044 4.58296C15.8375 4.42367 15.7376 4.28033 15.6114 4.16239L14.841 3.38152C14.5887 3.12922 14.2798 3 13.9167 3C13.5598 3 13.2472 3.12615 12.9814 3.38152L7.99952 8.37014L3.0109 3.38152C2.7586 3.12922 2.44908 3 2.08603 3C1.73036 3 1.41715 3.12615 1.1507 3.38152L0.381515 4.16178C0.129223 4.41407 0 4.72297 0 5.08603C0 5.44908 0.126146 5.7586 0.381515 6.0109L7.06419 12.704C7.33064 12.9557 7.64323 13.0855 7.99952 13.0855C8.36257 13.0855 8.67209 12.9594 8.92377 12.704Z" fill="#0071BC"/>
</svg>
