<svg width="8" height="8" viewBox="0 0 8 8" fill="none" xmlns="http://www.w3.org/2000/svg">
<path fill-rule="evenodd" clip-rule="evenodd" d="M7.10024 0.154393C7.30608 -0.0513518 7.63946 -0.0512511 7.84536 0.154393C8.05127 0.36032 8.05127 0.694559 7.84536 0.900486L4.74575 3.99912L7.76138 7.01474C7.96722 7.22061 7.96713 7.55487 7.76138 7.76084C7.55547 7.96674 7.2212 7.96673 7.01528 7.76084L3.99966 4.74521L0.98501 7.76084C0.77915 7.96655 0.445796 7.96647 0.239892 7.76084C0.0339682 7.55487 0.0339682 7.22066 0.239892 7.01474L3.25454 4.0001L0.154931 0.900486C-0.0509928 0.694559 -0.0509928 0.36032 0.154931 0.154393C0.360799 -0.0513175 0.694159 -0.051281 0.900049 0.154393L3.99966 3.254L7.10024 0.154393Z" fill="#262626"/>
</svg>
