<svg width="12" height="12" viewBox="0 0 12 12" fill="none" xmlns="http://www.w3.org/2000/svg">
<path fill-rule="evenodd" clip-rule="evenodd" d="M11.7176 8.97025C11.9056 9.15824 12 9.38704 12 9.65664C12 9.92623 11.9056 10.1558 11.7176 10.3438L10.344 11.7174C10.2548 11.8092 10.1477 11.8816 10.0294 11.9303C9.91108 11.979 9.78396 12.0029 9.65604 12.0006C9.38724 12.0006 9.15845 11.9062 8.97045 11.7174L5.9993 8.74785L3.02975 11.7174C2.94085 11.8088 2.83414 11.8811 2.71622 11.9296C2.5983 11.9782 2.47167 12.0021 2.34416 11.9998C2.07457 11.9998 1.84657 11.9054 1.65698 11.7166L0.282599 10.3438C0.190824 10.2547 0.118389 10.1476 0.0698049 10.0292C0.0212207 9.91087 -0.00247155 9.78375 0.000203777 9.65584C0.000203777 9.38624 0.0938021 9.15744 0.282599 8.96945L3.25215 5.9999L0.282599 3.03115C0.19094 2.94191 0.118581 2.8348 0.0700054 2.71646C0.0214296 2.59812 -0.00232818 2.47106 0.000203777 2.34316C0.000203777 2.07436 0.0938021 1.84557 0.282599 1.65757L1.65618 0.282395C1.84577 0.0943984 2.07377 0 2.34416 0C2.61376 0 2.84256 0.0943984 3.03055 0.282395L6.0001 3.25194L8.97045 0.282395C9.15845 0.0943984 9.38724 0 9.65604 0C9.92564 0 10.1544 0.0943984 10.344 0.282395L11.7176 1.65757C11.9056 1.84557 12 2.07436 12 2.34316C12 2.61356 11.9056 2.84155 11.7176 3.03115L8.74806 5.9999L11.7176 8.96945V8.97025Z" fill="#0071BC"/>
</svg>
