<svg width="16" height="16" viewBox="0 0 16 16" fill="none" xmlns="http://www.w3.org/2000/svg">
<path fill-rule="evenodd" clip-rule="evenodd" d="M8 16C12.4183 16 16 12.4183 16 8C16 3.58172 12.4183 0 8 0C3.58172 0 0 3.58172 0 8C0 12.4183 3.58172 16 8 16ZM6.77533 8.84217V9.41247H8.62287V9.07427C8.62287 8.9328 8.65095 8.80681 8.70712 8.69629C8.7673 8.58576 8.8656 8.47082 9.00201 8.35146C9.14243 8.2321 9.333 8.08842 9.57372 7.92042C9.91474 7.67728 10.1896 7.42971 10.3982 7.17772C10.6068 6.92573 10.7593 6.65606 10.8556 6.3687C10.9519 6.08134 11 5.76525 11 5.42042C11 4.6954 10.7492 4.11185 10.2477 3.66976C9.74624 3.22325 9.04012 3 8.12939 3C7.52357 3 6.96389 3.08621 6.45035 3.25862C5.93681 3.42661 5.45336 3.65429 5 3.94164L5.83651 5.74536C6.23771 5.51105 6.61484 5.33422 6.9679 5.21485C7.32498 5.09549 7.65597 5.03581 7.96088 5.03581C8.20562 5.03581 8.40421 5.09107 8.55667 5.20159C8.70913 5.30769 8.78536 5.45358 8.78536 5.63926C8.78536 5.75862 8.7653 5.87798 8.72518 5.99735C8.68505 6.11229 8.6008 6.2405 8.47242 6.38196C8.34403 6.51901 8.14343 6.68258 7.87061 6.87268C7.58576 7.07162 7.36309 7.27056 7.20261 7.4695C7.04213 7.66844 6.92979 7.87843 6.8656 8.09947C6.80542 8.32051 6.77533 8.56808 6.77533 8.84217ZM6.88365 10.7454C6.63892 10.9355 6.51655 11.2648 6.51655 11.7334C6.51655 12.1799 6.63892 12.5027 6.88365 12.7016C7.1324 12.9005 7.4333 13 7.78636 13C8.12337 13 8.41424 12.9005 8.65898 12.7016C8.90772 12.5027 9.0321 12.1799 9.0321 11.7334C9.0321 11.2648 8.90772 10.9355 8.65898 10.7454C8.41424 10.5553 8.12337 10.4602 7.78636 10.4602C7.4333 10.4602 7.1324 10.5553 6.88365 10.7454Z" fill="white"/>
</svg>
