<svg width="20" height="20" viewBox="0 0 20 20" fill="none" xmlns="http://www.w3.org/2000/svg">
<path fill-rule="evenodd" clip-rule="evenodd" d="M18.6591 4.98042C17.7649 3.4484 16.5519 2.23538 15.0199 1.3412C13.4876 0.447012 11.8147 0 10.0003 0C8.18606 0 6.51276 0.447012 4.98074 1.3412C3.44856 2.23522 2.23554 3.44824 1.34136 4.98042C0.447012 6.5126 0 8.1859 0 10C0 11.8143 0.447172 13.4872 1.3412 15.0196C2.23538 16.5514 3.4484 17.7646 4.98058 18.6588C6.51276 19.553 8.1859 20 10.0002 20C11.8144 20 13.4877 19.553 15.0197 18.6588C16.5518 17.7648 17.7648 16.5516 18.659 15.0196C19.553 13.4874 20 11.8141 20 10C20 8.18574 19.553 6.51244 18.6591 4.98042Z" fill="#5A5A5A"/>
<path fill-rule="evenodd" clip-rule="evenodd" d="M17 11.2121H3V8.69836H17V11.2121Z" fill="white"/>
</svg>
