<svg width="20" height="20" viewBox="0 0 20 20" fill="none" xmlns="http://www.w3.org/2000/svg">
<path fill-rule="evenodd" clip-rule="evenodd" d="M18.6591 4.98042C17.7649 3.4484 16.5519 2.23538 15.0199 1.3412C13.4876 0.447012 11.8147 0 10.0003 0C8.18606 0 6.51292 0.447012 4.98074 1.3412C3.44856 2.23522 2.23554 3.44824 1.34136 4.98042C0.447012 6.5126 0 8.1859 0 10C0 11.8141 0.447172 13.4872 1.3412 15.0196C2.23538 16.5513 3.4484 17.7646 4.98058 18.6588C6.51276 19.553 8.1859 20 10.0002 20C11.8144 20 13.4877 19.553 15.0197 18.6588C16.5518 17.7648 17.7648 16.5516 18.659 15.0196C19.553 13.4872 20 11.8139 20 10C20 8.1859 19.553 6.51244 18.6591 4.98042ZM11.6671 16.2368C11.6671 16.3584 11.6278 16.4602 11.5498 16.5427C11.4718 16.6252 11.3762 16.6663 11.2632 16.6663H8.76319C8.65035 16.6663 8.55047 16.6229 8.46369 16.5362C8.3769 16.4494 8.33359 16.3495 8.33359 16.2368V13.763C8.33359 13.6502 8.3769 13.5503 8.46369 13.4635C8.55047 13.3767 8.65035 13.3334 8.76319 13.3334H11.2632C11.3762 13.3334 11.4719 13.3746 11.5498 13.4569C11.6278 13.5397 11.6671 13.6414 11.6671 13.763V16.2368ZM11.6408 11.7578C11.632 11.8446 11.5866 11.9206 11.5043 11.9857C11.4217 12.0507 11.3199 12.0832 11.1984 12.0832H8.7895C8.66788 12.0832 8.56367 12.0507 8.47689 11.9857C8.39011 11.9206 8.34664 11.8446 8.34664 11.7578L8.12529 3.67176C8.12529 3.5674 8.1686 3.48941 8.25539 3.43731C8.34233 3.36795 8.44653 3.33311 8.56799 3.33311H11.4329C11.5545 3.33311 11.6586 3.36779 11.7453 3.43731C11.8321 3.48941 11.8753 3.56756 11.8753 3.67176L11.6408 11.7578Z" fill="#9F142B"/>
</svg>
