<svg width="14" height="15" viewBox="0 0 14 15" fill="none" xmlns="http://www.w3.org/2000/svg">
<path fill-rule="evenodd" clip-rule="evenodd" d="M5.43771 13.9377C5.60606 14.1061 5.84175 14.2071 6.08418 14.2071H7.91582C8.15825 14.2071 8.39394 14.1061 8.56229 13.9377C8.73064 13.7694 8.83165 13.5337 8.83165 13.2912L8.83165 9.33165L12.7912 9.33165C13.0337 9.33165 13.2694 9.23064 13.4377 9.06229C13.6061 8.89394 13.7071 8.65825 13.7071 8.41582L13.7071 6.58417C13.7071 6.34175 13.6061 6.10606 13.4377 5.93771C13.2694 5.76936 13.0337 5.66835 12.7912 5.66835L8.83165 5.66835L8.83165 1.70875C8.83165 1.46633 8.73064 1.23064 8.56229 1.06229C8.39394 0.893939 8.15825 0.792929 7.91582 0.792929H6.08418C5.84175 0.792929 5.60606 0.893939 5.43771 1.06229C5.26936 1.23064 5.16835 1.46633 5.16835 1.70875L5.16835 5.66835L1.20875 5.66835C0.96633 5.66835 0.73064 5.76936 0.56229 5.93771C0.393939 6.10606 0.29293 6.34175 0.29293 6.58417L0.29293 8.41582C0.29293 8.65825 0.39394 8.89394 0.56229 9.06229C0.73064 9.23064 0.966331 9.33165 1.20876 9.33165L5.16835 9.33165L5.16835 13.2912C5.16835 13.5337 5.26936 13.7694 5.43771 13.9377Z" fill="#71767a"/>
</svg>
