<svg width="24" height="22" viewBox="0 0 24 22" fill="none" xmlns="http://www.w3.org/2000/svg">
<path d="M16.6554 14.9669L17.9366 13.6857C18.1368 13.4855 18.4972 13.6456 18.4972 13.9259V19.7316C18.4972 20.8126 17.6163 21.6534 16.5753 21.6534H2.48153C1.40048 21.6534 0.559659 20.8126 0.559659 19.7316V5.63782C0.559659 4.5968 1.40048 3.71594 2.48153 3.71594H13.4122C13.6925 3.71594 13.8526 4.07629 13.6524 4.27649L12.3712 5.55774C12.2911 5.63782 12.211 5.63782 12.1309 5.63782H2.48153V19.7316H16.5753V15.2072C16.5753 15.1271 16.5753 15.047 16.6554 14.9669ZM22.9015 6.91907L12.4112 17.4093L8.76767 17.8097C7.72665 17.9298 6.84579 17.049 6.96591 16.0079L7.3663 12.3644L17.8565 1.87415C18.7774 0.953247 20.2589 0.953247 21.1798 1.87415L22.9015 3.59583C23.8224 4.51672 23.8224 5.99817 22.9015 6.91907ZM18.9776 8.12024L16.6554 5.79797L9.2081 13.2452L8.88778 15.8878L11.5304 15.5675L18.9776 8.12024ZM21.5401 4.95715L19.8184 3.23547C19.6583 3.03528 19.378 3.03528 19.2179 3.23547L18.0167 4.43665L20.339 6.79895L21.5802 5.55774C21.7403 5.35754 21.7403 5.11731 21.5401 4.95715Z" fill="white"/>
</svg>
