<svg width="24" height="22" viewBox="0 0 24 22" fill="none" xmlns="http://www.w3.org/2000/svg">
<path d="M16.5645 14.9669L17.8457 13.6857C18.0459 13.4855 18.4062 13.6456 18.4062 13.9259V19.7316C18.4062 20.8126 17.5254 21.6534 16.4844 21.6534H2.39062C1.30957 21.6534 0.46875 20.8126 0.46875 19.7316V5.63782C0.46875 4.5968 1.30957 3.71594 2.39062 3.71594H13.3213C13.6016 3.71594 13.7617 4.07629 13.5615 4.27649L12.2803 5.55774C12.2002 5.63782 12.1201 5.63782 12.04 5.63782H2.39062V19.7316H16.4844V15.2072C16.4844 15.1271 16.4844 15.047 16.5645 14.9669ZM22.8105 6.91907L12.3203 17.4093L8.67676 17.8097C7.63574 17.9298 6.75488 17.049 6.875 16.0079L7.27539 12.3644L17.7656 1.87415C18.6865 0.953247 20.168 0.953247 21.0889 1.87415L22.8105 3.59583C23.7314 4.51672 23.7314 5.99817 22.8105 6.91907ZM18.8867 8.12024L16.5645 5.79797L9.11719 13.2452L8.79688 15.8878L11.4395 15.5675L18.8867 8.12024ZM21.4492 4.95715L19.7275 3.23547C19.5674 3.03528 19.2871 3.03528 19.127 3.23547L17.9258 4.43665L20.248 6.79895L21.4893 5.55774C21.6494 5.35754 21.6494 5.11731 21.4492 4.95715Z" fill="#D9D9D9"/>
</svg>
