<svg width="27" height="24" viewBox="0 0 27 24" fill="none" xmlns="http://www.w3.org/2000/svg">
<path d="M17.6554 14.9669L18.9366 13.6857C19.1368 13.4855 19.4972 13.6456 19.4972 13.9259V19.7316C19.4972 20.8126 18.6163 21.6534 17.5753 21.6534H3.48153C2.40048 21.6534 1.55966 20.8126 1.55966 19.7316V5.63782C1.55966 4.5968 2.40048 3.71594 3.48153 3.71594H14.4122C14.6925 3.71594 14.8526 4.07629 14.6524 4.27649L13.3712 5.55774C13.2911 5.63782 13.211 5.63782 13.1309 5.63782H3.48153V19.7316H17.5753V15.2072C17.5753 15.1271 17.5753 15.047 17.6554 14.9669ZM23.9015 6.91907L13.4112 17.4093L9.76767 17.8097C8.72665 17.9298 7.84579 17.049 7.96591 16.0079L8.3663 12.3644L18.8565 1.87415C19.7774 0.953247 21.2589 0.953247 22.1798 1.87415L23.9015 3.59583C24.8224 4.51672 24.8224 5.99817 23.9015 6.91907ZM19.9776 8.12024L17.6554 5.79797L10.2081 13.2452L9.88778 15.8878L12.5304 15.5675L19.9776 8.12024ZM22.5401 4.95715L20.8184 3.23547C20.6583 3.03528 20.378 3.03528 20.2179 3.23547L19.0167 4.43665L21.339 6.79895L22.5802 5.55774C22.7403 5.35754 22.7403 5.11731 22.5401 4.95715Z" fill="#71767A"/>
</svg>
